%TF.GenerationSoftware,KiCad,Pcbnew,9.0.7*%
%TF.CreationDate,2026-03-30T09:29:03+01:00*%
%TF.ProjectId,hexpansion-L80,68657870-616e-4736-996f-6e2d4c38302e,rev?*%
%TF.SameCoordinates,Original*%
%TF.FileFunction,Legend,Bot*%
%TF.FilePolarity,Positive*%
%FSLAX46Y46*%
G04 Gerber Fmt 4.6, Leading zero omitted, Abs format (unit mm)*
G04 Created by KiCad (PCBNEW 9.0.7) date 2026-03-30 09:29:03*
%MOMM*%
%LPD*%
G01*
G04 APERTURE LIST*
G04 Aperture macros list*
%AMRoundRect*
0 Rectangle with rounded corners*
0 $1 Rounding radius*
0 $2 $3 $4 $5 $6 $7 $8 $9 X,Y pos of 4 corners*
0 Add a 4 corners polygon primitive as box body*
4,1,4,$2,$3,$4,$5,$6,$7,$8,$9,$2,$3,0*
0 Add four circle primitives for the rounded corners*
1,1,$1+$1,$2,$3*
1,1,$1+$1,$4,$5*
1,1,$1+$1,$6,$7*
1,1,$1+$1,$8,$9*
0 Add four rect primitives between the rounded corners*
20,1,$1+$1,$2,$3,$4,$5,0*
20,1,$1+$1,$4,$5,$6,$7,0*
20,1,$1+$1,$6,$7,$8,$9,0*
20,1,$1+$1,$8,$9,$2,$3,0*%
%AMFreePoly0*
4,1,23,0.550000,-0.750000,0.000000,-0.750000,0.000000,-0.745722,-0.065263,-0.745722,-0.191342,-0.711940,-0.304381,-0.646677,-0.396677,-0.554381,-0.461940,-0.441342,-0.495722,-0.315263,-0.495722,-0.250000,-0.500000,-0.250000,-0.500000,0.250000,-0.495722,0.250000,-0.495722,0.315263,-0.461940,0.441342,-0.396677,0.554381,-0.304381,0.646677,-0.191342,0.711940,-0.065263,0.745722,0.000000,0.745722,
0.000000,0.750000,0.550000,0.750000,0.550000,-0.750000,0.550000,-0.750000,$1*%
%AMFreePoly1*
4,1,23,0.000000,0.745722,0.065263,0.745722,0.191342,0.711940,0.304381,0.646677,0.396677,0.554381,0.461940,0.441342,0.495722,0.315263,0.495722,0.250000,0.500000,0.250000,0.500000,-0.250000,0.495722,-0.250000,0.495722,-0.315263,0.461940,-0.441342,0.396677,-0.554381,0.304381,-0.646677,0.191342,-0.711940,0.065263,-0.745722,0.000000,-0.745722,0.000000,-0.750000,-0.550000,-0.750000,
-0.550000,0.750000,0.000000,0.750000,0.000000,0.745722,0.000000,0.745722,$1*%
%AMFreePoly2*
4,1,23,0.500000,-0.750000,0.000000,-0.750000,0.000000,-0.745722,-0.065263,-0.745722,-0.191342,-0.711940,-0.304381,-0.646677,-0.396677,-0.554381,-0.461940,-0.441342,-0.495722,-0.315263,-0.495722,-0.250000,-0.500000,-0.250000,-0.500000,0.250000,-0.495722,0.250000,-0.495722,0.315263,-0.461940,0.441342,-0.396677,0.554381,-0.304381,0.646677,-0.191342,0.711940,-0.065263,0.745722,0.000000,0.745722,
0.000000,0.750000,0.500000,0.750000,0.500000,-0.750000,0.500000,-0.750000,$1*%
%AMFreePoly3*
4,1,23,0.000000,0.745722,0.065263,0.745722,0.191342,0.711940,0.304381,0.646677,0.396677,0.554381,0.461940,0.441342,0.495722,0.315263,0.495722,0.250000,0.500000,0.250000,0.500000,-0.250000,0.495722,-0.250000,0.495722,-0.315263,0.461940,-0.441342,0.396677,-0.554381,0.304381,-0.646677,0.191342,-0.711940,0.065263,-0.745722,0.000000,-0.745722,0.000000,-0.750000,-0.500000,-0.750000,
-0.500000,0.750000,0.000000,0.750000,0.000000,0.745722,0.000000,0.745722,$1*%
G04 Aperture macros list end*
%ADD10C,0.300000*%
%ADD11C,0.150000*%
%ADD12C,0.250000*%
%ADD13C,0.200000*%
%ADD14C,0.120000*%
%ADD15FreePoly0,180.000000*%
%ADD16R,1.000000X1.500000*%
%ADD17FreePoly1,180.000000*%
%ADD18RoundRect,0.150000X-1.600000X-0.150000X1.600000X-0.150000X1.600000X0.150000X-1.600000X0.150000X0*%
%ADD19RoundRect,0.150000X-1.200000X-0.150000X1.200000X-0.150000X1.200000X0.150000X-1.200000X0.150000X0*%
%ADD20C,0.700000*%
%ADD21C,4.400000*%
%ADD22FreePoly2,180.000000*%
%ADD23FreePoly3,180.000000*%
G04 APERTURE END LIST*
D10*
X156225618Y-94071429D02*
X156225618Y-94571429D01*
X157011332Y-94785715D02*
X157011332Y-94071429D01*
X157011332Y-94071429D02*
X155511332Y-94071429D01*
X155511332Y-94071429D02*
X155511332Y-94785715D01*
X157011332Y-95428572D02*
X155511332Y-95428572D01*
X155511332Y-95428572D02*
X156582761Y-95928572D01*
X156582761Y-95928572D02*
X155511332Y-96428572D01*
X155511332Y-96428572D02*
X157011332Y-96428572D01*
X156225618Y-97642858D02*
X156225618Y-97142858D01*
X157011332Y-97142858D02*
X155511332Y-97142858D01*
X155511332Y-97142858D02*
X155511332Y-97857144D01*
X155654189Y-98357144D02*
X155582761Y-98428572D01*
X155582761Y-98428572D02*
X155511332Y-98571430D01*
X155511332Y-98571430D02*
X155511332Y-98928572D01*
X155511332Y-98928572D02*
X155582761Y-99071430D01*
X155582761Y-99071430D02*
X155654189Y-99142858D01*
X155654189Y-99142858D02*
X155797046Y-99214287D01*
X155797046Y-99214287D02*
X155939904Y-99214287D01*
X155939904Y-99214287D02*
X156154189Y-99142858D01*
X156154189Y-99142858D02*
X157011332Y-98285715D01*
X157011332Y-98285715D02*
X157011332Y-99214287D01*
X155511332Y-100142858D02*
X155511332Y-100285715D01*
X155511332Y-100285715D02*
X155582761Y-100428572D01*
X155582761Y-100428572D02*
X155654189Y-100500001D01*
X155654189Y-100500001D02*
X155797046Y-100571429D01*
X155797046Y-100571429D02*
X156082761Y-100642858D01*
X156082761Y-100642858D02*
X156439904Y-100642858D01*
X156439904Y-100642858D02*
X156725618Y-100571429D01*
X156725618Y-100571429D02*
X156868475Y-100500001D01*
X156868475Y-100500001D02*
X156939904Y-100428572D01*
X156939904Y-100428572D02*
X157011332Y-100285715D01*
X157011332Y-100285715D02*
X157011332Y-100142858D01*
X157011332Y-100142858D02*
X156939904Y-100000001D01*
X156939904Y-100000001D02*
X156868475Y-99928572D01*
X156868475Y-99928572D02*
X156725618Y-99857143D01*
X156725618Y-99857143D02*
X156439904Y-99785715D01*
X156439904Y-99785715D02*
X156082761Y-99785715D01*
X156082761Y-99785715D02*
X155797046Y-99857143D01*
X155797046Y-99857143D02*
X155654189Y-99928572D01*
X155654189Y-99928572D02*
X155582761Y-100000001D01*
X155582761Y-100000001D02*
X155511332Y-100142858D01*
X155654189Y-101214286D02*
X155582761Y-101285714D01*
X155582761Y-101285714D02*
X155511332Y-101428572D01*
X155511332Y-101428572D02*
X155511332Y-101785714D01*
X155511332Y-101785714D02*
X155582761Y-101928572D01*
X155582761Y-101928572D02*
X155654189Y-102000000D01*
X155654189Y-102000000D02*
X155797046Y-102071429D01*
X155797046Y-102071429D02*
X155939904Y-102071429D01*
X155939904Y-102071429D02*
X156154189Y-102000000D01*
X156154189Y-102000000D02*
X157011332Y-101142857D01*
X157011332Y-101142857D02*
X157011332Y-102071429D01*
X155511332Y-103357143D02*
X155511332Y-103071428D01*
X155511332Y-103071428D02*
X155582761Y-102928571D01*
X155582761Y-102928571D02*
X155654189Y-102857143D01*
X155654189Y-102857143D02*
X155868475Y-102714285D01*
X155868475Y-102714285D02*
X156154189Y-102642857D01*
X156154189Y-102642857D02*
X156725618Y-102642857D01*
X156725618Y-102642857D02*
X156868475Y-102714285D01*
X156868475Y-102714285D02*
X156939904Y-102785714D01*
X156939904Y-102785714D02*
X157011332Y-102928571D01*
X157011332Y-102928571D02*
X157011332Y-103214285D01*
X157011332Y-103214285D02*
X156939904Y-103357143D01*
X156939904Y-103357143D02*
X156868475Y-103428571D01*
X156868475Y-103428571D02*
X156725618Y-103500000D01*
X156725618Y-103500000D02*
X156368475Y-103500000D01*
X156368475Y-103500000D02*
X156225618Y-103428571D01*
X156225618Y-103428571D02*
X156154189Y-103357143D01*
X156154189Y-103357143D02*
X156082761Y-103214285D01*
X156082761Y-103214285D02*
X156082761Y-102928571D01*
X156082761Y-102928571D02*
X156154189Y-102785714D01*
X156154189Y-102785714D02*
X156225618Y-102714285D01*
X156225618Y-102714285D02*
X156368475Y-102642857D01*
X159426248Y-93142857D02*
X159426248Y-92428571D01*
X159426248Y-92428571D02*
X157926248Y-92428571D01*
X158569105Y-93857143D02*
X158497677Y-93714286D01*
X158497677Y-93714286D02*
X158426248Y-93642857D01*
X158426248Y-93642857D02*
X158283391Y-93571429D01*
X158283391Y-93571429D02*
X158211962Y-93571429D01*
X158211962Y-93571429D02*
X158069105Y-93642857D01*
X158069105Y-93642857D02*
X157997677Y-93714286D01*
X157997677Y-93714286D02*
X157926248Y-93857143D01*
X157926248Y-93857143D02*
X157926248Y-94142857D01*
X157926248Y-94142857D02*
X157997677Y-94285715D01*
X157997677Y-94285715D02*
X158069105Y-94357143D01*
X158069105Y-94357143D02*
X158211962Y-94428572D01*
X158211962Y-94428572D02*
X158283391Y-94428572D01*
X158283391Y-94428572D02*
X158426248Y-94357143D01*
X158426248Y-94357143D02*
X158497677Y-94285715D01*
X158497677Y-94285715D02*
X158569105Y-94142857D01*
X158569105Y-94142857D02*
X158569105Y-93857143D01*
X158569105Y-93857143D02*
X158640534Y-93714286D01*
X158640534Y-93714286D02*
X158711962Y-93642857D01*
X158711962Y-93642857D02*
X158854820Y-93571429D01*
X158854820Y-93571429D02*
X159140534Y-93571429D01*
X159140534Y-93571429D02*
X159283391Y-93642857D01*
X159283391Y-93642857D02*
X159354820Y-93714286D01*
X159354820Y-93714286D02*
X159426248Y-93857143D01*
X159426248Y-93857143D02*
X159426248Y-94142857D01*
X159426248Y-94142857D02*
X159354820Y-94285715D01*
X159354820Y-94285715D02*
X159283391Y-94357143D01*
X159283391Y-94357143D02*
X159140534Y-94428572D01*
X159140534Y-94428572D02*
X158854820Y-94428572D01*
X158854820Y-94428572D02*
X158711962Y-94357143D01*
X158711962Y-94357143D02*
X158640534Y-94285715D01*
X158640534Y-94285715D02*
X158569105Y-94142857D01*
X157926248Y-95357143D02*
X157926248Y-95500000D01*
X157926248Y-95500000D02*
X157997677Y-95642857D01*
X157997677Y-95642857D02*
X158069105Y-95714286D01*
X158069105Y-95714286D02*
X158211962Y-95785714D01*
X158211962Y-95785714D02*
X158497677Y-95857143D01*
X158497677Y-95857143D02*
X158854820Y-95857143D01*
X158854820Y-95857143D02*
X159140534Y-95785714D01*
X159140534Y-95785714D02*
X159283391Y-95714286D01*
X159283391Y-95714286D02*
X159354820Y-95642857D01*
X159354820Y-95642857D02*
X159426248Y-95500000D01*
X159426248Y-95500000D02*
X159426248Y-95357143D01*
X159426248Y-95357143D02*
X159354820Y-95214286D01*
X159354820Y-95214286D02*
X159283391Y-95142857D01*
X159283391Y-95142857D02*
X159140534Y-95071428D01*
X159140534Y-95071428D02*
X158854820Y-95000000D01*
X158854820Y-95000000D02*
X158497677Y-95000000D01*
X158497677Y-95000000D02*
X158211962Y-95071428D01*
X158211962Y-95071428D02*
X158069105Y-95142857D01*
X158069105Y-95142857D02*
X157997677Y-95214286D01*
X157997677Y-95214286D02*
X157926248Y-95357143D01*
X159426248Y-97357142D02*
X158711962Y-96857142D01*
X159426248Y-96499999D02*
X157926248Y-96499999D01*
X157926248Y-96499999D02*
X157926248Y-97071428D01*
X157926248Y-97071428D02*
X157997677Y-97214285D01*
X157997677Y-97214285D02*
X158069105Y-97285714D01*
X158069105Y-97285714D02*
X158211962Y-97357142D01*
X158211962Y-97357142D02*
X158426248Y-97357142D01*
X158426248Y-97357142D02*
X158569105Y-97285714D01*
X158569105Y-97285714D02*
X158640534Y-97214285D01*
X158640534Y-97214285D02*
X158711962Y-97071428D01*
X158711962Y-97071428D02*
X158711962Y-96499999D01*
X158640534Y-97999999D02*
X158640534Y-98499999D01*
X159426248Y-98714285D02*
X159426248Y-97999999D01*
X159426248Y-97999999D02*
X157926248Y-97999999D01*
X157926248Y-97999999D02*
X157926248Y-98714285D01*
X158854820Y-99357142D02*
X158854820Y-100500000D01*
X159426248Y-101214285D02*
X157926248Y-101214285D01*
X157926248Y-101214285D02*
X158997677Y-101714285D01*
X158997677Y-101714285D02*
X157926248Y-102214285D01*
X157926248Y-102214285D02*
X159426248Y-102214285D01*
X157926248Y-102785714D02*
X157926248Y-103714286D01*
X157926248Y-103714286D02*
X158497677Y-103214286D01*
X158497677Y-103214286D02*
X158497677Y-103428571D01*
X158497677Y-103428571D02*
X158569105Y-103571429D01*
X158569105Y-103571429D02*
X158640534Y-103642857D01*
X158640534Y-103642857D02*
X158783391Y-103714286D01*
X158783391Y-103714286D02*
X159140534Y-103714286D01*
X159140534Y-103714286D02*
X159283391Y-103642857D01*
X159283391Y-103642857D02*
X159354820Y-103571429D01*
X159354820Y-103571429D02*
X159426248Y-103428571D01*
X159426248Y-103428571D02*
X159426248Y-103000000D01*
X159426248Y-103000000D02*
X159354820Y-102857143D01*
X159354820Y-102857143D02*
X159283391Y-102785714D01*
X157926248Y-104214285D02*
X157926248Y-105214285D01*
X157926248Y-105214285D02*
X159426248Y-104571428D01*
X160412593Y-90714285D02*
X160341164Y-90571428D01*
X160341164Y-90571428D02*
X160341164Y-90357142D01*
X160341164Y-90357142D02*
X160412593Y-90142856D01*
X160412593Y-90142856D02*
X160555450Y-89999999D01*
X160555450Y-89999999D02*
X160698307Y-89928570D01*
X160698307Y-89928570D02*
X160984021Y-89857142D01*
X160984021Y-89857142D02*
X161198307Y-89857142D01*
X161198307Y-89857142D02*
X161484021Y-89928570D01*
X161484021Y-89928570D02*
X161626878Y-89999999D01*
X161626878Y-89999999D02*
X161769736Y-90142856D01*
X161769736Y-90142856D02*
X161841164Y-90357142D01*
X161841164Y-90357142D02*
X161841164Y-90499999D01*
X161841164Y-90499999D02*
X161769736Y-90714285D01*
X161769736Y-90714285D02*
X161698307Y-90785713D01*
X161698307Y-90785713D02*
X161198307Y-90785713D01*
X161198307Y-90785713D02*
X161198307Y-90499999D01*
X161841164Y-91428570D02*
X160341164Y-91428570D01*
X160341164Y-91428570D02*
X160341164Y-91999999D01*
X160341164Y-91999999D02*
X160412593Y-92142856D01*
X160412593Y-92142856D02*
X160484021Y-92214285D01*
X160484021Y-92214285D02*
X160626878Y-92285713D01*
X160626878Y-92285713D02*
X160841164Y-92285713D01*
X160841164Y-92285713D02*
X160984021Y-92214285D01*
X160984021Y-92214285D02*
X161055450Y-92142856D01*
X161055450Y-92142856D02*
X161126878Y-91999999D01*
X161126878Y-91999999D02*
X161126878Y-91428570D01*
X161769736Y-92857142D02*
X161841164Y-93071428D01*
X161841164Y-93071428D02*
X161841164Y-93428570D01*
X161841164Y-93428570D02*
X161769736Y-93571428D01*
X161769736Y-93571428D02*
X161698307Y-93642856D01*
X161698307Y-93642856D02*
X161555450Y-93714285D01*
X161555450Y-93714285D02*
X161412593Y-93714285D01*
X161412593Y-93714285D02*
X161269736Y-93642856D01*
X161269736Y-93642856D02*
X161198307Y-93571428D01*
X161198307Y-93571428D02*
X161126878Y-93428570D01*
X161126878Y-93428570D02*
X161055450Y-93142856D01*
X161055450Y-93142856D02*
X160984021Y-92999999D01*
X160984021Y-92999999D02*
X160912593Y-92928570D01*
X160912593Y-92928570D02*
X160769736Y-92857142D01*
X160769736Y-92857142D02*
X160626878Y-92857142D01*
X160626878Y-92857142D02*
X160484021Y-92928570D01*
X160484021Y-92928570D02*
X160412593Y-92999999D01*
X160412593Y-92999999D02*
X160341164Y-93142856D01*
X160341164Y-93142856D02*
X160341164Y-93499999D01*
X160341164Y-93499999D02*
X160412593Y-93714285D01*
X161841164Y-95499998D02*
X160341164Y-95499998D01*
X161055450Y-95499998D02*
X161055450Y-96357141D01*
X161841164Y-96357141D02*
X160341164Y-96357141D01*
X161769736Y-97642856D02*
X161841164Y-97499999D01*
X161841164Y-97499999D02*
X161841164Y-97214285D01*
X161841164Y-97214285D02*
X161769736Y-97071427D01*
X161769736Y-97071427D02*
X161626878Y-96999999D01*
X161626878Y-96999999D02*
X161055450Y-96999999D01*
X161055450Y-96999999D02*
X160912593Y-97071427D01*
X160912593Y-97071427D02*
X160841164Y-97214285D01*
X160841164Y-97214285D02*
X160841164Y-97499999D01*
X160841164Y-97499999D02*
X160912593Y-97642856D01*
X160912593Y-97642856D02*
X161055450Y-97714285D01*
X161055450Y-97714285D02*
X161198307Y-97714285D01*
X161198307Y-97714285D02*
X161341164Y-96999999D01*
X161841164Y-98214284D02*
X160841164Y-98999999D01*
X160841164Y-98214284D02*
X161841164Y-98999999D01*
X160841164Y-99571427D02*
X162341164Y-99571427D01*
X160912593Y-99571427D02*
X160841164Y-99714285D01*
X160841164Y-99714285D02*
X160841164Y-99999999D01*
X160841164Y-99999999D02*
X160912593Y-100142856D01*
X160912593Y-100142856D02*
X160984021Y-100214285D01*
X160984021Y-100214285D02*
X161126878Y-100285713D01*
X161126878Y-100285713D02*
X161555450Y-100285713D01*
X161555450Y-100285713D02*
X161698307Y-100214285D01*
X161698307Y-100214285D02*
X161769736Y-100142856D01*
X161769736Y-100142856D02*
X161841164Y-99999999D01*
X161841164Y-99999999D02*
X161841164Y-99714285D01*
X161841164Y-99714285D02*
X161769736Y-99571427D01*
X161841164Y-101571428D02*
X161055450Y-101571428D01*
X161055450Y-101571428D02*
X160912593Y-101499999D01*
X160912593Y-101499999D02*
X160841164Y-101357142D01*
X160841164Y-101357142D02*
X160841164Y-101071428D01*
X160841164Y-101071428D02*
X160912593Y-100928570D01*
X161769736Y-101571428D02*
X161841164Y-101428570D01*
X161841164Y-101428570D02*
X161841164Y-101071428D01*
X161841164Y-101071428D02*
X161769736Y-100928570D01*
X161769736Y-100928570D02*
X161626878Y-100857142D01*
X161626878Y-100857142D02*
X161484021Y-100857142D01*
X161484021Y-100857142D02*
X161341164Y-100928570D01*
X161341164Y-100928570D02*
X161269736Y-101071428D01*
X161269736Y-101071428D02*
X161269736Y-101428570D01*
X161269736Y-101428570D02*
X161198307Y-101571428D01*
X160841164Y-102285713D02*
X161841164Y-102285713D01*
X160984021Y-102285713D02*
X160912593Y-102357142D01*
X160912593Y-102357142D02*
X160841164Y-102499999D01*
X160841164Y-102499999D02*
X160841164Y-102714285D01*
X160841164Y-102714285D02*
X160912593Y-102857142D01*
X160912593Y-102857142D02*
X161055450Y-102928571D01*
X161055450Y-102928571D02*
X161841164Y-102928571D01*
X161769736Y-103571428D02*
X161841164Y-103714285D01*
X161841164Y-103714285D02*
X161841164Y-103999999D01*
X161841164Y-103999999D02*
X161769736Y-104142856D01*
X161769736Y-104142856D02*
X161626878Y-104214285D01*
X161626878Y-104214285D02*
X161555450Y-104214285D01*
X161555450Y-104214285D02*
X161412593Y-104142856D01*
X161412593Y-104142856D02*
X161341164Y-103999999D01*
X161341164Y-103999999D02*
X161341164Y-103785714D01*
X161341164Y-103785714D02*
X161269736Y-103642856D01*
X161269736Y-103642856D02*
X161126878Y-103571428D01*
X161126878Y-103571428D02*
X161055450Y-103571428D01*
X161055450Y-103571428D02*
X160912593Y-103642856D01*
X160912593Y-103642856D02*
X160841164Y-103785714D01*
X160841164Y-103785714D02*
X160841164Y-103999999D01*
X160841164Y-103999999D02*
X160912593Y-104142856D01*
X161841164Y-104857142D02*
X160841164Y-104857142D01*
X160341164Y-104857142D02*
X160412593Y-104785714D01*
X160412593Y-104785714D02*
X160484021Y-104857142D01*
X160484021Y-104857142D02*
X160412593Y-104928571D01*
X160412593Y-104928571D02*
X160341164Y-104857142D01*
X160341164Y-104857142D02*
X160484021Y-104857142D01*
X161841164Y-105785714D02*
X161769736Y-105642857D01*
X161769736Y-105642857D02*
X161698307Y-105571428D01*
X161698307Y-105571428D02*
X161555450Y-105500000D01*
X161555450Y-105500000D02*
X161126878Y-105500000D01*
X161126878Y-105500000D02*
X160984021Y-105571428D01*
X160984021Y-105571428D02*
X160912593Y-105642857D01*
X160912593Y-105642857D02*
X160841164Y-105785714D01*
X160841164Y-105785714D02*
X160841164Y-106000000D01*
X160841164Y-106000000D02*
X160912593Y-106142857D01*
X160912593Y-106142857D02*
X160984021Y-106214286D01*
X160984021Y-106214286D02*
X161126878Y-106285714D01*
X161126878Y-106285714D02*
X161555450Y-106285714D01*
X161555450Y-106285714D02*
X161698307Y-106214286D01*
X161698307Y-106214286D02*
X161769736Y-106142857D01*
X161769736Y-106142857D02*
X161841164Y-106000000D01*
X161841164Y-106000000D02*
X161841164Y-105785714D01*
X160841164Y-106928571D02*
X161841164Y-106928571D01*
X160984021Y-106928571D02*
X160912593Y-107000000D01*
X160912593Y-107000000D02*
X160841164Y-107142857D01*
X160841164Y-107142857D02*
X160841164Y-107357143D01*
X160841164Y-107357143D02*
X160912593Y-107500000D01*
X160912593Y-107500000D02*
X161055450Y-107571429D01*
X161055450Y-107571429D02*
X161841164Y-107571429D01*
X163256080Y-87107142D02*
X164470366Y-87107142D01*
X164470366Y-87107142D02*
X164613223Y-87035713D01*
X164613223Y-87035713D02*
X164684652Y-86964284D01*
X164684652Y-86964284D02*
X164756080Y-86821427D01*
X164756080Y-86821427D02*
X164756080Y-86607142D01*
X164756080Y-86607142D02*
X164684652Y-86464284D01*
X164184652Y-87107142D02*
X164256080Y-86964284D01*
X164256080Y-86964284D02*
X164256080Y-86678570D01*
X164256080Y-86678570D02*
X164184652Y-86535713D01*
X164184652Y-86535713D02*
X164113223Y-86464284D01*
X164113223Y-86464284D02*
X163970366Y-86392856D01*
X163970366Y-86392856D02*
X163541794Y-86392856D01*
X163541794Y-86392856D02*
X163398937Y-86464284D01*
X163398937Y-86464284D02*
X163327509Y-86535713D01*
X163327509Y-86535713D02*
X163256080Y-86678570D01*
X163256080Y-86678570D02*
X163256080Y-86964284D01*
X163256080Y-86964284D02*
X163327509Y-87107142D01*
X164256080Y-87821427D02*
X163256080Y-87821427D01*
X162756080Y-87821427D02*
X162827509Y-87749999D01*
X162827509Y-87749999D02*
X162898937Y-87821427D01*
X162898937Y-87821427D02*
X162827509Y-87892856D01*
X162827509Y-87892856D02*
X162756080Y-87821427D01*
X162756080Y-87821427D02*
X162898937Y-87821427D01*
X163256080Y-88321428D02*
X163256080Y-88892856D01*
X162756080Y-88535713D02*
X164041794Y-88535713D01*
X164041794Y-88535713D02*
X164184652Y-88607142D01*
X164184652Y-88607142D02*
X164256080Y-88749999D01*
X164256080Y-88749999D02*
X164256080Y-88892856D01*
X164256080Y-89392856D02*
X162756080Y-89392856D01*
X164256080Y-90035714D02*
X163470366Y-90035714D01*
X163470366Y-90035714D02*
X163327509Y-89964285D01*
X163327509Y-89964285D02*
X163256080Y-89821428D01*
X163256080Y-89821428D02*
X163256080Y-89607142D01*
X163256080Y-89607142D02*
X163327509Y-89464285D01*
X163327509Y-89464285D02*
X163398937Y-89392856D01*
X163256080Y-91392857D02*
X164256080Y-91392857D01*
X163256080Y-90749999D02*
X164041794Y-90749999D01*
X164041794Y-90749999D02*
X164184652Y-90821428D01*
X164184652Y-90821428D02*
X164256080Y-90964285D01*
X164256080Y-90964285D02*
X164256080Y-91178571D01*
X164256080Y-91178571D02*
X164184652Y-91321428D01*
X164184652Y-91321428D02*
X164113223Y-91392857D01*
X164256080Y-92107142D02*
X162756080Y-92107142D01*
X163327509Y-92107142D02*
X163256080Y-92250000D01*
X163256080Y-92250000D02*
X163256080Y-92535714D01*
X163256080Y-92535714D02*
X163327509Y-92678571D01*
X163327509Y-92678571D02*
X163398937Y-92750000D01*
X163398937Y-92750000D02*
X163541794Y-92821428D01*
X163541794Y-92821428D02*
X163970366Y-92821428D01*
X163970366Y-92821428D02*
X164113223Y-92750000D01*
X164113223Y-92750000D02*
X164184652Y-92678571D01*
X164184652Y-92678571D02*
X164256080Y-92535714D01*
X164256080Y-92535714D02*
X164256080Y-92250000D01*
X164256080Y-92250000D02*
X164184652Y-92107142D01*
X164113223Y-93464285D02*
X164184652Y-93535714D01*
X164184652Y-93535714D02*
X164256080Y-93464285D01*
X164256080Y-93464285D02*
X164184652Y-93392857D01*
X164184652Y-93392857D02*
X164113223Y-93464285D01*
X164113223Y-93464285D02*
X164256080Y-93464285D01*
X164184652Y-94821429D02*
X164256080Y-94678571D01*
X164256080Y-94678571D02*
X164256080Y-94392857D01*
X164256080Y-94392857D02*
X164184652Y-94250000D01*
X164184652Y-94250000D02*
X164113223Y-94178571D01*
X164113223Y-94178571D02*
X163970366Y-94107143D01*
X163970366Y-94107143D02*
X163541794Y-94107143D01*
X163541794Y-94107143D02*
X163398937Y-94178571D01*
X163398937Y-94178571D02*
X163327509Y-94250000D01*
X163327509Y-94250000D02*
X163256080Y-94392857D01*
X163256080Y-94392857D02*
X163256080Y-94678571D01*
X163256080Y-94678571D02*
X163327509Y-94821429D01*
X164256080Y-95678571D02*
X164184652Y-95535714D01*
X164184652Y-95535714D02*
X164113223Y-95464285D01*
X164113223Y-95464285D02*
X163970366Y-95392857D01*
X163970366Y-95392857D02*
X163541794Y-95392857D01*
X163541794Y-95392857D02*
X163398937Y-95464285D01*
X163398937Y-95464285D02*
X163327509Y-95535714D01*
X163327509Y-95535714D02*
X163256080Y-95678571D01*
X163256080Y-95678571D02*
X163256080Y-95892857D01*
X163256080Y-95892857D02*
X163327509Y-96035714D01*
X163327509Y-96035714D02*
X163398937Y-96107143D01*
X163398937Y-96107143D02*
X163541794Y-96178571D01*
X163541794Y-96178571D02*
X163970366Y-96178571D01*
X163970366Y-96178571D02*
X164113223Y-96107143D01*
X164113223Y-96107143D02*
X164184652Y-96035714D01*
X164184652Y-96035714D02*
X164256080Y-95892857D01*
X164256080Y-95892857D02*
X164256080Y-95678571D01*
X164256080Y-96821428D02*
X163256080Y-96821428D01*
X163398937Y-96821428D02*
X163327509Y-96892857D01*
X163327509Y-96892857D02*
X163256080Y-97035714D01*
X163256080Y-97035714D02*
X163256080Y-97250000D01*
X163256080Y-97250000D02*
X163327509Y-97392857D01*
X163327509Y-97392857D02*
X163470366Y-97464286D01*
X163470366Y-97464286D02*
X164256080Y-97464286D01*
X163470366Y-97464286D02*
X163327509Y-97535714D01*
X163327509Y-97535714D02*
X163256080Y-97678571D01*
X163256080Y-97678571D02*
X163256080Y-97892857D01*
X163256080Y-97892857D02*
X163327509Y-98035714D01*
X163327509Y-98035714D02*
X163470366Y-98107143D01*
X163470366Y-98107143D02*
X164256080Y-98107143D01*
X162684652Y-99892857D02*
X164613223Y-98607143D01*
X162756080Y-100178572D02*
X162756080Y-101035715D01*
X164256080Y-100607143D02*
X162756080Y-100607143D01*
X164184652Y-102107143D02*
X164256080Y-101964286D01*
X164256080Y-101964286D02*
X164256080Y-101678572D01*
X164256080Y-101678572D02*
X164184652Y-101535714D01*
X164184652Y-101535714D02*
X164041794Y-101464286D01*
X164041794Y-101464286D02*
X163470366Y-101464286D01*
X163470366Y-101464286D02*
X163327509Y-101535714D01*
X163327509Y-101535714D02*
X163256080Y-101678572D01*
X163256080Y-101678572D02*
X163256080Y-101964286D01*
X163256080Y-101964286D02*
X163327509Y-102107143D01*
X163327509Y-102107143D02*
X163470366Y-102178572D01*
X163470366Y-102178572D02*
X163613223Y-102178572D01*
X163613223Y-102178572D02*
X163756080Y-101464286D01*
X164184652Y-103464286D02*
X164256080Y-103321428D01*
X164256080Y-103321428D02*
X164256080Y-103035714D01*
X164256080Y-103035714D02*
X164184652Y-102892857D01*
X164184652Y-102892857D02*
X164113223Y-102821428D01*
X164113223Y-102821428D02*
X163970366Y-102750000D01*
X163970366Y-102750000D02*
X163541794Y-102750000D01*
X163541794Y-102750000D02*
X163398937Y-102821428D01*
X163398937Y-102821428D02*
X163327509Y-102892857D01*
X163327509Y-102892857D02*
X163256080Y-103035714D01*
X163256080Y-103035714D02*
X163256080Y-103321428D01*
X163256080Y-103321428D02*
X163327509Y-103464286D01*
X164256080Y-104107142D02*
X162756080Y-104107142D01*
X164256080Y-104750000D02*
X163470366Y-104750000D01*
X163470366Y-104750000D02*
X163327509Y-104678571D01*
X163327509Y-104678571D02*
X163256080Y-104535714D01*
X163256080Y-104535714D02*
X163256080Y-104321428D01*
X163256080Y-104321428D02*
X163327509Y-104178571D01*
X163327509Y-104178571D02*
X163398937Y-104107142D01*
X164113223Y-106321428D02*
X164184652Y-106250000D01*
X164184652Y-106250000D02*
X164256080Y-106035714D01*
X164256080Y-106035714D02*
X164256080Y-105892857D01*
X164256080Y-105892857D02*
X164184652Y-105678571D01*
X164184652Y-105678571D02*
X164041794Y-105535714D01*
X164041794Y-105535714D02*
X163898937Y-105464285D01*
X163898937Y-105464285D02*
X163613223Y-105392857D01*
X163613223Y-105392857D02*
X163398937Y-105392857D01*
X163398937Y-105392857D02*
X163113223Y-105464285D01*
X163113223Y-105464285D02*
X162970366Y-105535714D01*
X162970366Y-105535714D02*
X162827509Y-105678571D01*
X162827509Y-105678571D02*
X162756080Y-105892857D01*
X162756080Y-105892857D02*
X162756080Y-106035714D01*
X162756080Y-106035714D02*
X162827509Y-106250000D01*
X162827509Y-106250000D02*
X162898937Y-106321428D01*
X164256080Y-107607143D02*
X163470366Y-107607143D01*
X163470366Y-107607143D02*
X163327509Y-107535714D01*
X163327509Y-107535714D02*
X163256080Y-107392857D01*
X163256080Y-107392857D02*
X163256080Y-107107143D01*
X163256080Y-107107143D02*
X163327509Y-106964285D01*
X164184652Y-107607143D02*
X164256080Y-107464285D01*
X164256080Y-107464285D02*
X164256080Y-107107143D01*
X164256080Y-107107143D02*
X164184652Y-106964285D01*
X164184652Y-106964285D02*
X164041794Y-106892857D01*
X164041794Y-106892857D02*
X163898937Y-106892857D01*
X163898937Y-106892857D02*
X163756080Y-106964285D01*
X163756080Y-106964285D02*
X163684652Y-107107143D01*
X163684652Y-107107143D02*
X163684652Y-107464285D01*
X163684652Y-107464285D02*
X163613223Y-107607143D01*
X164256080Y-108321428D02*
X162756080Y-108321428D01*
X163327509Y-108321428D02*
X163256080Y-108464286D01*
X163256080Y-108464286D02*
X163256080Y-108750000D01*
X163256080Y-108750000D02*
X163327509Y-108892857D01*
X163327509Y-108892857D02*
X163398937Y-108964286D01*
X163398937Y-108964286D02*
X163541794Y-109035714D01*
X163541794Y-109035714D02*
X163970366Y-109035714D01*
X163970366Y-109035714D02*
X164113223Y-108964286D01*
X164113223Y-108964286D02*
X164184652Y-108892857D01*
X164184652Y-108892857D02*
X164256080Y-108750000D01*
X164256080Y-108750000D02*
X164256080Y-108464286D01*
X164256080Y-108464286D02*
X164184652Y-108321428D01*
X164256080Y-109678571D02*
X163256080Y-109678571D01*
X162756080Y-109678571D02*
X162827509Y-109607143D01*
X162827509Y-109607143D02*
X162898937Y-109678571D01*
X162898937Y-109678571D02*
X162827509Y-109750000D01*
X162827509Y-109750000D02*
X162756080Y-109678571D01*
X162756080Y-109678571D02*
X162898937Y-109678571D01*
X163256080Y-110392857D02*
X164256080Y-110392857D01*
X163398937Y-110392857D02*
X163327509Y-110464286D01*
X163327509Y-110464286D02*
X163256080Y-110607143D01*
X163256080Y-110607143D02*
X163256080Y-110821429D01*
X163256080Y-110821429D02*
X163327509Y-110964286D01*
X163327509Y-110964286D02*
X163470366Y-111035715D01*
X163470366Y-111035715D02*
X164256080Y-111035715D01*
X168943055Y-93285714D02*
X169014484Y-93214286D01*
X169014484Y-93214286D02*
X169085912Y-93000000D01*
X169085912Y-93000000D02*
X169085912Y-92857143D01*
X169085912Y-92857143D02*
X169014484Y-92642857D01*
X169014484Y-92642857D02*
X168871626Y-92500000D01*
X168871626Y-92500000D02*
X168728769Y-92428571D01*
X168728769Y-92428571D02*
X168443055Y-92357143D01*
X168443055Y-92357143D02*
X168228769Y-92357143D01*
X168228769Y-92357143D02*
X167943055Y-92428571D01*
X167943055Y-92428571D02*
X167800198Y-92500000D01*
X167800198Y-92500000D02*
X167657341Y-92642857D01*
X167657341Y-92642857D02*
X167585912Y-92857143D01*
X167585912Y-92857143D02*
X167585912Y-93000000D01*
X167585912Y-93000000D02*
X167657341Y-93214286D01*
X167657341Y-93214286D02*
X167728769Y-93285714D01*
X169085912Y-93928571D02*
X168085912Y-93928571D01*
X168371626Y-93928571D02*
X168228769Y-94000000D01*
X168228769Y-94000000D02*
X168157341Y-94071429D01*
X168157341Y-94071429D02*
X168085912Y-94214286D01*
X168085912Y-94214286D02*
X168085912Y-94357143D01*
X169014484Y-95428571D02*
X169085912Y-95285714D01*
X169085912Y-95285714D02*
X169085912Y-95000000D01*
X169085912Y-95000000D02*
X169014484Y-94857142D01*
X169014484Y-94857142D02*
X168871626Y-94785714D01*
X168871626Y-94785714D02*
X168300198Y-94785714D01*
X168300198Y-94785714D02*
X168157341Y-94857142D01*
X168157341Y-94857142D02*
X168085912Y-95000000D01*
X168085912Y-95000000D02*
X168085912Y-95285714D01*
X168085912Y-95285714D02*
X168157341Y-95428571D01*
X168157341Y-95428571D02*
X168300198Y-95500000D01*
X168300198Y-95500000D02*
X168443055Y-95500000D01*
X168443055Y-95500000D02*
X168585912Y-94785714D01*
X169085912Y-96785714D02*
X168300198Y-96785714D01*
X168300198Y-96785714D02*
X168157341Y-96714285D01*
X168157341Y-96714285D02*
X168085912Y-96571428D01*
X168085912Y-96571428D02*
X168085912Y-96285714D01*
X168085912Y-96285714D02*
X168157341Y-96142856D01*
X169014484Y-96785714D02*
X169085912Y-96642856D01*
X169085912Y-96642856D02*
X169085912Y-96285714D01*
X169085912Y-96285714D02*
X169014484Y-96142856D01*
X169014484Y-96142856D02*
X168871626Y-96071428D01*
X168871626Y-96071428D02*
X168728769Y-96071428D01*
X168728769Y-96071428D02*
X168585912Y-96142856D01*
X168585912Y-96142856D02*
X168514484Y-96285714D01*
X168514484Y-96285714D02*
X168514484Y-96642856D01*
X168514484Y-96642856D02*
X168443055Y-96785714D01*
X168085912Y-97285714D02*
X168085912Y-97857142D01*
X167585912Y-97499999D02*
X168871626Y-97499999D01*
X168871626Y-97499999D02*
X169014484Y-97571428D01*
X169014484Y-97571428D02*
X169085912Y-97714285D01*
X169085912Y-97714285D02*
X169085912Y-97857142D01*
X169014484Y-98928571D02*
X169085912Y-98785714D01*
X169085912Y-98785714D02*
X169085912Y-98500000D01*
X169085912Y-98500000D02*
X169014484Y-98357142D01*
X169014484Y-98357142D02*
X168871626Y-98285714D01*
X168871626Y-98285714D02*
X168300198Y-98285714D01*
X168300198Y-98285714D02*
X168157341Y-98357142D01*
X168157341Y-98357142D02*
X168085912Y-98500000D01*
X168085912Y-98500000D02*
X168085912Y-98785714D01*
X168085912Y-98785714D02*
X168157341Y-98928571D01*
X168157341Y-98928571D02*
X168300198Y-99000000D01*
X168300198Y-99000000D02*
X168443055Y-99000000D01*
X168443055Y-99000000D02*
X168585912Y-98285714D01*
X169085912Y-100285714D02*
X167585912Y-100285714D01*
X169014484Y-100285714D02*
X169085912Y-100142856D01*
X169085912Y-100142856D02*
X169085912Y-99857142D01*
X169085912Y-99857142D02*
X169014484Y-99714285D01*
X169014484Y-99714285D02*
X168943055Y-99642856D01*
X168943055Y-99642856D02*
X168800198Y-99571428D01*
X168800198Y-99571428D02*
X168371626Y-99571428D01*
X168371626Y-99571428D02*
X168228769Y-99642856D01*
X168228769Y-99642856D02*
X168157341Y-99714285D01*
X168157341Y-99714285D02*
X168085912Y-99857142D01*
X168085912Y-99857142D02*
X168085912Y-100142856D01*
X168085912Y-100142856D02*
X168157341Y-100285714D01*
X169085912Y-102142856D02*
X167585912Y-102142856D01*
X168157341Y-102142856D02*
X168085912Y-102285714D01*
X168085912Y-102285714D02*
X168085912Y-102571428D01*
X168085912Y-102571428D02*
X168157341Y-102714285D01*
X168157341Y-102714285D02*
X168228769Y-102785714D01*
X168228769Y-102785714D02*
X168371626Y-102857142D01*
X168371626Y-102857142D02*
X168800198Y-102857142D01*
X168800198Y-102857142D02*
X168943055Y-102785714D01*
X168943055Y-102785714D02*
X169014484Y-102714285D01*
X169014484Y-102714285D02*
X169085912Y-102571428D01*
X169085912Y-102571428D02*
X169085912Y-102285714D01*
X169085912Y-102285714D02*
X169014484Y-102142856D01*
X168085912Y-103357142D02*
X169085912Y-103714285D01*
X168085912Y-104071428D02*
X169085912Y-103714285D01*
X169085912Y-103714285D02*
X169443055Y-103571428D01*
X169443055Y-103571428D02*
X169514484Y-103499999D01*
X169514484Y-103499999D02*
X169585912Y-103357142D01*
X170000828Y-91214286D02*
X171072257Y-91214286D01*
X171072257Y-91214286D02*
X171286542Y-91142857D01*
X171286542Y-91142857D02*
X171429400Y-91000000D01*
X171429400Y-91000000D02*
X171500828Y-90785714D01*
X171500828Y-90785714D02*
X171500828Y-90642857D01*
X171500828Y-92142857D02*
X171429400Y-92000000D01*
X171429400Y-92000000D02*
X171357971Y-91928571D01*
X171357971Y-91928571D02*
X171215114Y-91857143D01*
X171215114Y-91857143D02*
X170786542Y-91857143D01*
X170786542Y-91857143D02*
X170643685Y-91928571D01*
X170643685Y-91928571D02*
X170572257Y-92000000D01*
X170572257Y-92000000D02*
X170500828Y-92142857D01*
X170500828Y-92142857D02*
X170500828Y-92357143D01*
X170500828Y-92357143D02*
X170572257Y-92500000D01*
X170572257Y-92500000D02*
X170643685Y-92571429D01*
X170643685Y-92571429D02*
X170786542Y-92642857D01*
X170786542Y-92642857D02*
X171215114Y-92642857D01*
X171215114Y-92642857D02*
X171357971Y-92571429D01*
X171357971Y-92571429D02*
X171429400Y-92500000D01*
X171429400Y-92500000D02*
X171500828Y-92357143D01*
X171500828Y-92357143D02*
X171500828Y-92142857D01*
X171500828Y-93285714D02*
X170000828Y-93285714D01*
X171500828Y-93928572D02*
X170715114Y-93928572D01*
X170715114Y-93928572D02*
X170572257Y-93857143D01*
X170572257Y-93857143D02*
X170500828Y-93714286D01*
X170500828Y-93714286D02*
X170500828Y-93500000D01*
X170500828Y-93500000D02*
X170572257Y-93357143D01*
X170572257Y-93357143D02*
X170643685Y-93285714D01*
X170500828Y-94642857D02*
X171500828Y-94642857D01*
X170643685Y-94642857D02*
X170572257Y-94714286D01*
X170572257Y-94714286D02*
X170500828Y-94857143D01*
X170500828Y-94857143D02*
X170500828Y-95071429D01*
X170500828Y-95071429D02*
X170572257Y-95214286D01*
X170572257Y-95214286D02*
X170715114Y-95285715D01*
X170715114Y-95285715D02*
X171500828Y-95285715D01*
X171500828Y-97857143D02*
X171500828Y-97142857D01*
X171500828Y-97142857D02*
X170000828Y-97142857D01*
X171500828Y-99000001D02*
X170715114Y-99000001D01*
X170715114Y-99000001D02*
X170572257Y-98928572D01*
X170572257Y-98928572D02*
X170500828Y-98785715D01*
X170500828Y-98785715D02*
X170500828Y-98500001D01*
X170500828Y-98500001D02*
X170572257Y-98357143D01*
X171429400Y-99000001D02*
X171500828Y-98857143D01*
X171500828Y-98857143D02*
X171500828Y-98500001D01*
X171500828Y-98500001D02*
X171429400Y-98357143D01*
X171429400Y-98357143D02*
X171286542Y-98285715D01*
X171286542Y-98285715D02*
X171143685Y-98285715D01*
X171143685Y-98285715D02*
X171000828Y-98357143D01*
X171000828Y-98357143D02*
X170929400Y-98500001D01*
X170929400Y-98500001D02*
X170929400Y-98857143D01*
X170929400Y-98857143D02*
X170857971Y-99000001D01*
X170500828Y-99571429D02*
X171500828Y-99857144D01*
X171500828Y-99857144D02*
X170786542Y-100142858D01*
X170786542Y-100142858D02*
X171500828Y-100428572D01*
X171500828Y-100428572D02*
X170500828Y-100714286D01*
X171500828Y-101285715D02*
X170500828Y-101285715D01*
X170786542Y-101285715D02*
X170643685Y-101357144D01*
X170643685Y-101357144D02*
X170572257Y-101428573D01*
X170572257Y-101428573D02*
X170500828Y-101571430D01*
X170500828Y-101571430D02*
X170500828Y-101714287D01*
X171429400Y-102785715D02*
X171500828Y-102642858D01*
X171500828Y-102642858D02*
X171500828Y-102357144D01*
X171500828Y-102357144D02*
X171429400Y-102214286D01*
X171429400Y-102214286D02*
X171286542Y-102142858D01*
X171286542Y-102142858D02*
X170715114Y-102142858D01*
X170715114Y-102142858D02*
X170572257Y-102214286D01*
X170572257Y-102214286D02*
X170500828Y-102357144D01*
X170500828Y-102357144D02*
X170500828Y-102642858D01*
X170500828Y-102642858D02*
X170572257Y-102785715D01*
X170572257Y-102785715D02*
X170715114Y-102857144D01*
X170715114Y-102857144D02*
X170857971Y-102857144D01*
X170857971Y-102857144D02*
X171000828Y-102142858D01*
X170500828Y-103500000D02*
X171500828Y-103500000D01*
X170643685Y-103500000D02*
X170572257Y-103571429D01*
X170572257Y-103571429D02*
X170500828Y-103714286D01*
X170500828Y-103714286D02*
X170500828Y-103928572D01*
X170500828Y-103928572D02*
X170572257Y-104071429D01*
X170572257Y-104071429D02*
X170715114Y-104142858D01*
X170715114Y-104142858D02*
X171500828Y-104142858D01*
X171429400Y-105500001D02*
X171500828Y-105357143D01*
X171500828Y-105357143D02*
X171500828Y-105071429D01*
X171500828Y-105071429D02*
X171429400Y-104928572D01*
X171429400Y-104928572D02*
X171357971Y-104857143D01*
X171357971Y-104857143D02*
X171215114Y-104785715D01*
X171215114Y-104785715D02*
X170786542Y-104785715D01*
X170786542Y-104785715D02*
X170643685Y-104857143D01*
X170643685Y-104857143D02*
X170572257Y-104928572D01*
X170572257Y-104928572D02*
X170500828Y-105071429D01*
X170500828Y-105071429D02*
X170500828Y-105357143D01*
X170500828Y-105357143D02*
X170572257Y-105500001D01*
X171429400Y-106714286D02*
X171500828Y-106571429D01*
X171500828Y-106571429D02*
X171500828Y-106285715D01*
X171500828Y-106285715D02*
X171429400Y-106142857D01*
X171429400Y-106142857D02*
X171286542Y-106071429D01*
X171286542Y-106071429D02*
X170715114Y-106071429D01*
X170715114Y-106071429D02*
X170572257Y-106142857D01*
X170572257Y-106142857D02*
X170500828Y-106285715D01*
X170500828Y-106285715D02*
X170500828Y-106571429D01*
X170500828Y-106571429D02*
X170572257Y-106714286D01*
X170572257Y-106714286D02*
X170715114Y-106785715D01*
X170715114Y-106785715D02*
X170857971Y-106785715D01*
X170857971Y-106785715D02*
X171000828Y-106071429D01*
D11*
X152883333Y-106354819D02*
X152883333Y-107069104D01*
X152883333Y-107069104D02*
X152930952Y-107211961D01*
X152930952Y-107211961D02*
X153026190Y-107307200D01*
X153026190Y-107307200D02*
X153169047Y-107354819D01*
X153169047Y-107354819D02*
X153264285Y-107354819D01*
X152407142Y-107354819D02*
X152407142Y-106354819D01*
X152407142Y-106354819D02*
X152026190Y-106354819D01*
X152026190Y-106354819D02*
X151930952Y-106402438D01*
X151930952Y-106402438D02*
X151883333Y-106450057D01*
X151883333Y-106450057D02*
X151835714Y-106545295D01*
X151835714Y-106545295D02*
X151835714Y-106688152D01*
X151835714Y-106688152D02*
X151883333Y-106783390D01*
X151883333Y-106783390D02*
X151930952Y-106831009D01*
X151930952Y-106831009D02*
X152026190Y-106878628D01*
X152026190Y-106878628D02*
X152407142Y-106878628D01*
X150978571Y-106688152D02*
X150978571Y-107354819D01*
X151216666Y-106307200D02*
X151454761Y-107021485D01*
X151454761Y-107021485D02*
X150835714Y-107021485D01*
X152883333Y-109054819D02*
X152883333Y-109769104D01*
X152883333Y-109769104D02*
X152930952Y-109911961D01*
X152930952Y-109911961D02*
X153026190Y-110007200D01*
X153026190Y-110007200D02*
X153169047Y-110054819D01*
X153169047Y-110054819D02*
X153264285Y-110054819D01*
X152407142Y-110054819D02*
X152407142Y-109054819D01*
X152407142Y-109054819D02*
X152026190Y-109054819D01*
X152026190Y-109054819D02*
X151930952Y-109102438D01*
X151930952Y-109102438D02*
X151883333Y-109150057D01*
X151883333Y-109150057D02*
X151835714Y-109245295D01*
X151835714Y-109245295D02*
X151835714Y-109388152D01*
X151835714Y-109388152D02*
X151883333Y-109483390D01*
X151883333Y-109483390D02*
X151930952Y-109531009D01*
X151930952Y-109531009D02*
X152026190Y-109578628D01*
X152026190Y-109578628D02*
X152407142Y-109578628D01*
X151502380Y-109054819D02*
X150883333Y-109054819D01*
X150883333Y-109054819D02*
X151216666Y-109435771D01*
X151216666Y-109435771D02*
X151073809Y-109435771D01*
X151073809Y-109435771D02*
X150978571Y-109483390D01*
X150978571Y-109483390D02*
X150930952Y-109531009D01*
X150930952Y-109531009D02*
X150883333Y-109626247D01*
X150883333Y-109626247D02*
X150883333Y-109864342D01*
X150883333Y-109864342D02*
X150930952Y-109959580D01*
X150930952Y-109959580D02*
X150978571Y-110007200D01*
X150978571Y-110007200D02*
X151073809Y-110054819D01*
X151073809Y-110054819D02*
X151359523Y-110054819D01*
X151359523Y-110054819D02*
X151454761Y-110007200D01*
X151454761Y-110007200D02*
X151502380Y-109959580D01*
X152883333Y-112004819D02*
X152883333Y-112719104D01*
X152883333Y-112719104D02*
X152930952Y-112861961D01*
X152930952Y-112861961D02*
X153026190Y-112957200D01*
X153026190Y-112957200D02*
X153169047Y-113004819D01*
X153169047Y-113004819D02*
X153264285Y-113004819D01*
X152407142Y-113004819D02*
X152407142Y-112004819D01*
X152407142Y-112004819D02*
X152026190Y-112004819D01*
X152026190Y-112004819D02*
X151930952Y-112052438D01*
X151930952Y-112052438D02*
X151883333Y-112100057D01*
X151883333Y-112100057D02*
X151835714Y-112195295D01*
X151835714Y-112195295D02*
X151835714Y-112338152D01*
X151835714Y-112338152D02*
X151883333Y-112433390D01*
X151883333Y-112433390D02*
X151930952Y-112481009D01*
X151930952Y-112481009D02*
X152026190Y-112528628D01*
X152026190Y-112528628D02*
X152407142Y-112528628D01*
X151454761Y-112100057D02*
X151407142Y-112052438D01*
X151407142Y-112052438D02*
X151311904Y-112004819D01*
X151311904Y-112004819D02*
X151073809Y-112004819D01*
X151073809Y-112004819D02*
X150978571Y-112052438D01*
X150978571Y-112052438D02*
X150930952Y-112100057D01*
X150930952Y-112100057D02*
X150883333Y-112195295D01*
X150883333Y-112195295D02*
X150883333Y-112290533D01*
X150883333Y-112290533D02*
X150930952Y-112433390D01*
X150930952Y-112433390D02*
X151502380Y-113004819D01*
X151502380Y-113004819D02*
X150883333Y-113004819D01*
D12*
X136913309Y-94975901D02*
X136960928Y-95118758D01*
X136960928Y-95118758D02*
X137008547Y-95166377D01*
X137008547Y-95166377D02*
X137103785Y-95213996D01*
X137103785Y-95213996D02*
X137246642Y-95213996D01*
X137246642Y-95213996D02*
X137341880Y-95166377D01*
X137341880Y-95166377D02*
X137389500Y-95118758D01*
X137389500Y-95118758D02*
X137437119Y-95023520D01*
X137437119Y-95023520D02*
X137437119Y-94642568D01*
X137437119Y-94642568D02*
X136437119Y-94642568D01*
X136437119Y-94642568D02*
X136437119Y-94975901D01*
X136437119Y-94975901D02*
X136484738Y-95071139D01*
X136484738Y-95071139D02*
X136532357Y-95118758D01*
X136532357Y-95118758D02*
X136627595Y-95166377D01*
X136627595Y-95166377D02*
X136722833Y-95166377D01*
X136722833Y-95166377D02*
X136818071Y-95118758D01*
X136818071Y-95118758D02*
X136865690Y-95071139D01*
X136865690Y-95071139D02*
X136913309Y-94975901D01*
X136913309Y-94975901D02*
X136913309Y-94642568D01*
X136437119Y-95833044D02*
X136437119Y-96023520D01*
X136437119Y-96023520D02*
X136484738Y-96118758D01*
X136484738Y-96118758D02*
X136579976Y-96213996D01*
X136579976Y-96213996D02*
X136770452Y-96261615D01*
X136770452Y-96261615D02*
X137103785Y-96261615D01*
X137103785Y-96261615D02*
X137294261Y-96213996D01*
X137294261Y-96213996D02*
X137389500Y-96118758D01*
X137389500Y-96118758D02*
X137437119Y-96023520D01*
X137437119Y-96023520D02*
X137437119Y-95833044D01*
X137437119Y-95833044D02*
X137389500Y-95737806D01*
X137389500Y-95737806D02*
X137294261Y-95642568D01*
X137294261Y-95642568D02*
X137103785Y-95594949D01*
X137103785Y-95594949D02*
X136770452Y-95594949D01*
X136770452Y-95594949D02*
X136579976Y-95642568D01*
X136579976Y-95642568D02*
X136484738Y-95737806D01*
X136484738Y-95737806D02*
X136437119Y-95833044D01*
X136437119Y-96547330D02*
X136437119Y-97118758D01*
X137437119Y-96833044D02*
X136437119Y-96833044D01*
X136437119Y-97309235D02*
X136437119Y-97880663D01*
X137437119Y-97594949D02*
X136437119Y-97594949D01*
X136437119Y-98404473D02*
X136437119Y-98594949D01*
X136437119Y-98594949D02*
X136484738Y-98690187D01*
X136484738Y-98690187D02*
X136579976Y-98785425D01*
X136579976Y-98785425D02*
X136770452Y-98833044D01*
X136770452Y-98833044D02*
X137103785Y-98833044D01*
X137103785Y-98833044D02*
X137294261Y-98785425D01*
X137294261Y-98785425D02*
X137389500Y-98690187D01*
X137389500Y-98690187D02*
X137437119Y-98594949D01*
X137437119Y-98594949D02*
X137437119Y-98404473D01*
X137437119Y-98404473D02*
X137389500Y-98309235D01*
X137389500Y-98309235D02*
X137294261Y-98213997D01*
X137294261Y-98213997D02*
X137103785Y-98166378D01*
X137103785Y-98166378D02*
X136770452Y-98166378D01*
X136770452Y-98166378D02*
X136579976Y-98213997D01*
X136579976Y-98213997D02*
X136484738Y-98309235D01*
X136484738Y-98309235D02*
X136437119Y-98404473D01*
X137437119Y-99261616D02*
X136437119Y-99261616D01*
X136437119Y-99261616D02*
X137151404Y-99594949D01*
X137151404Y-99594949D02*
X136437119Y-99928282D01*
X136437119Y-99928282D02*
X137437119Y-99928282D01*
X137341880Y-100404473D02*
X137389500Y-100452092D01*
X137389500Y-100452092D02*
X137437119Y-100404473D01*
X137437119Y-100404473D02*
X137389500Y-100356854D01*
X137389500Y-100356854D02*
X137341880Y-100404473D01*
X137341880Y-100404473D02*
X137437119Y-100404473D01*
X137056166Y-100404473D02*
X136484738Y-100356854D01*
X136484738Y-100356854D02*
X136437119Y-100404473D01*
X136437119Y-100404473D02*
X136484738Y-100452092D01*
X136484738Y-100452092D02*
X137056166Y-100404473D01*
X137056166Y-100404473D02*
X136437119Y-100404473D01*
D13*
X136964195Y-102331101D02*
X136964195Y-101873958D01*
X136964195Y-102102530D02*
X136164195Y-102102530D01*
X136164195Y-102102530D02*
X136278480Y-102026339D01*
X136278480Y-102026339D02*
X136354671Y-101950149D01*
X136354671Y-101950149D02*
X136392766Y-101873958D01*
D14*
%TO.C,JP4*%
X157500000Y-108150000D02*
X157500000Y-107550000D01*
X156950000Y-109350000D02*
X156350000Y-109350000D01*
X156850000Y-106850000D02*
X154050000Y-106850000D01*
X156650000Y-109050000D02*
X156950000Y-109350000D01*
X156650000Y-109050000D02*
X156350000Y-109350000D01*
X154050000Y-108850000D02*
X156850000Y-108850000D01*
X153400000Y-107550000D02*
X153400000Y-108150000D01*
X156800000Y-106850000D02*
G75*
G02*
X157500000Y-107550000I1J-699999D01*
G01*
X157500000Y-108150000D02*
G75*
G02*
X156800000Y-108850000I-699999J-1D01*
G01*
X153400000Y-107550000D02*
G75*
G02*
X154100000Y-106850000I700000J0D01*
G01*
X154100000Y-108850000D02*
G75*
G02*
X153400000Y-108150000I0J700000D01*
G01*
%TO.C,JP3*%
X157500000Y-110900000D02*
X157500000Y-110300000D01*
X156950000Y-112100000D02*
X156350000Y-112100000D01*
X156850000Y-109600000D02*
X154050000Y-109600000D01*
X156650000Y-111800000D02*
X156950000Y-112100000D01*
X156650000Y-111800000D02*
X156350000Y-112100000D01*
X154050000Y-111600000D02*
X156850000Y-111600000D01*
X153400000Y-110300000D02*
X153400000Y-110900000D01*
X156800000Y-109600000D02*
G75*
G02*
X157500000Y-110300000I1J-699999D01*
G01*
X157500000Y-110900000D02*
G75*
G02*
X156800000Y-111600000I-699999J-1D01*
G01*
X153400000Y-110300000D02*
G75*
G02*
X154100000Y-109600000I700000J0D01*
G01*
X154100000Y-111600000D02*
G75*
G02*
X153400000Y-110900000I0J700000D01*
G01*
%TO.C,JP2*%
X157500000Y-113650000D02*
X157500000Y-113050000D01*
X156950000Y-114850000D02*
X156350000Y-114850000D01*
X156850000Y-112350000D02*
X154050000Y-112350000D01*
X156650000Y-114550000D02*
X156950000Y-114850000D01*
X156650000Y-114550000D02*
X156350000Y-114850000D01*
X154050000Y-114350000D02*
X156850000Y-114350000D01*
X153400000Y-113050000D02*
X153400000Y-113650000D01*
X156800000Y-112350000D02*
G75*
G02*
X157500000Y-113050000I1J-699999D01*
G01*
X157500000Y-113650000D02*
G75*
G02*
X156800000Y-114350000I-699999J-1D01*
G01*
X153400000Y-113050000D02*
G75*
G02*
X154100000Y-112350000I700000J0D01*
G01*
X154100000Y-114350000D02*
G75*
G02*
X153400000Y-113650000I0J700000D01*
G01*
%TO.C,JP1*%
X144450000Y-98200000D02*
X144450000Y-98800000D01*
X145150000Y-99500000D02*
X146550000Y-99500000D01*
X146550000Y-97500000D02*
X145150000Y-97500000D01*
X147250000Y-98800000D02*
X147250000Y-98200000D01*
X144450000Y-98200000D02*
G75*
G02*
X145150000Y-97500000I700000J0D01*
G01*
X145150000Y-99500000D02*
G75*
G02*
X144450000Y-98800000I0J700000D01*
G01*
X146550000Y-97500000D02*
G75*
G02*
X147250000Y-98200000I1J-699999D01*
G01*
X147250000Y-98800000D02*
G75*
G02*
X146550000Y-99500000I-699999J-1D01*
G01*
%TD*%
%LPC*%
%TO.C,JP4*%
G36*
X156200000Y-107100000D02*
G01*
X154700000Y-107100000D01*
X154700000Y-108600000D01*
X156200000Y-108600000D01*
X156200000Y-107100000D01*
G37*
%TO.C,JP3*%
G36*
X156200000Y-109850000D02*
G01*
X154700000Y-109850000D01*
X154700000Y-111350000D01*
X156200000Y-111350000D01*
X156200000Y-109850000D01*
G37*
%TO.C,JP2*%
G36*
X156200000Y-112600000D02*
G01*
X154700000Y-112600000D01*
X154700000Y-114100000D01*
X156200000Y-114100000D01*
X156200000Y-112600000D01*
G37*
%TD*%
D15*
%TO.C,JP4*%
X156750000Y-107850000D03*
D16*
X155450000Y-107850000D03*
D17*
X154150000Y-107850000D03*
%TD*%
D15*
%TO.C,JP3*%
X156750000Y-110600000D03*
D16*
X155450000Y-110600000D03*
D17*
X154150000Y-110600000D03*
%TD*%
D15*
%TO.C,JP2*%
X156750000Y-113350000D03*
D16*
X155450000Y-113350000D03*
D17*
X154150000Y-113350000D03*
%TD*%
D18*
%TO.C,J1*%
X134122500Y-101940000D03*
D19*
X134522500Y-101140000D03*
X134522500Y-100340000D03*
X134522500Y-99540000D03*
X134522500Y-98740000D03*
X134522500Y-97940000D03*
X134522500Y-97140000D03*
X134522500Y-96340000D03*
D18*
X134122500Y-95540000D03*
X134122500Y-94740000D03*
%TD*%
D20*
%TO.C,H2*%
X144472500Y-86040000D03*
X144955774Y-84873274D03*
X144955774Y-87206726D03*
X146122500Y-84390000D03*
D21*
X146122500Y-86040000D03*
D20*
X146122500Y-87690000D03*
X147289226Y-84873274D03*
X147289226Y-87206726D03*
X147772500Y-86040000D03*
%TD*%
%TO.C,H1*%
X144472500Y-111040000D03*
X144955774Y-109873274D03*
X144955774Y-112206726D03*
X146122500Y-109390000D03*
D21*
X146122500Y-111040000D03*
D20*
X146122500Y-112690000D03*
X147289226Y-109873274D03*
X147289226Y-112206726D03*
X147772500Y-111040000D03*
%TD*%
D22*
%TO.C,JP1*%
X146500000Y-98500000D03*
D23*
X145200000Y-98500000D03*
%TD*%
%LPD*%
M02*
