%TF.GenerationSoftware,KiCad,Pcbnew,9.0.7*%
%TF.CreationDate,2026-03-30T09:29:03+01:00*%
%TF.ProjectId,hexpansion-L80,68657870-616e-4736-996f-6e2d4c38302e,rev?*%
%TF.SameCoordinates,Original*%
%TF.FileFunction,Soldermask,Bot*%
%TF.FilePolarity,Negative*%
%FSLAX46Y46*%
G04 Gerber Fmt 4.6, Leading zero omitted, Abs format (unit mm)*
G04 Created by KiCad (PCBNEW 9.0.7) date 2026-03-30 09:29:03*
%MOMM*%
%LPD*%
G01*
G04 APERTURE LIST*
G04 Aperture macros list*
%AMRoundRect*
0 Rectangle with rounded corners*
0 $1 Rounding radius*
0 $2 $3 $4 $5 $6 $7 $8 $9 X,Y pos of 4 corners*
0 Add a 4 corners polygon primitive as box body*
4,1,4,$2,$3,$4,$5,$6,$7,$8,$9,$2,$3,0*
0 Add four circle primitives for the rounded corners*
1,1,$1+$1,$2,$3*
1,1,$1+$1,$4,$5*
1,1,$1+$1,$6,$7*
1,1,$1+$1,$8,$9*
0 Add four rect primitives between the rounded corners*
20,1,$1+$1,$2,$3,$4,$5,0*
20,1,$1+$1,$4,$5,$6,$7,0*
20,1,$1+$1,$6,$7,$8,$9,0*
20,1,$1+$1,$8,$9,$2,$3,0*%
%AMFreePoly0*
4,1,23,0.550000,-0.750000,0.000000,-0.750000,0.000000,-0.745722,-0.065263,-0.745722,-0.191342,-0.711940,-0.304381,-0.646677,-0.396677,-0.554381,-0.461940,-0.441342,-0.495722,-0.315263,-0.495722,-0.250000,-0.500000,-0.250000,-0.500000,0.250000,-0.495722,0.250000,-0.495722,0.315263,-0.461940,0.441342,-0.396677,0.554381,-0.304381,0.646677,-0.191342,0.711940,-0.065263,0.745722,0.000000,0.745722,
0.000000,0.750000,0.550000,0.750000,0.550000,-0.750000,0.550000,-0.750000,$1*%
%AMFreePoly1*
4,1,23,0.000000,0.745722,0.065263,0.745722,0.191342,0.711940,0.304381,0.646677,0.396677,0.554381,0.461940,0.441342,0.495722,0.315263,0.495722,0.250000,0.500000,0.250000,0.500000,-0.250000,0.495722,-0.250000,0.495722,-0.315263,0.461940,-0.441342,0.396677,-0.554381,0.304381,-0.646677,0.191342,-0.711940,0.065263,-0.745722,0.000000,-0.745722,0.000000,-0.750000,-0.550000,-0.750000,
-0.550000,0.750000,0.000000,0.750000,0.000000,0.745722,0.000000,0.745722,$1*%
%AMFreePoly2*
4,1,23,0.500000,-0.750000,0.000000,-0.750000,0.000000,-0.745722,-0.065263,-0.745722,-0.191342,-0.711940,-0.304381,-0.646677,-0.396677,-0.554381,-0.461940,-0.441342,-0.495722,-0.315263,-0.495722,-0.250000,-0.500000,-0.250000,-0.500000,0.250000,-0.495722,0.250000,-0.495722,0.315263,-0.461940,0.441342,-0.396677,0.554381,-0.304381,0.646677,-0.191342,0.711940,-0.065263,0.745722,0.000000,0.745722,
0.000000,0.750000,0.500000,0.750000,0.500000,-0.750000,0.500000,-0.750000,$1*%
%AMFreePoly3*
4,1,23,0.000000,0.745722,0.065263,0.745722,0.191342,0.711940,0.304381,0.646677,0.396677,0.554381,0.461940,0.441342,0.495722,0.315263,0.495722,0.250000,0.500000,0.250000,0.500000,-0.250000,0.495722,-0.250000,0.495722,-0.315263,0.461940,-0.441342,0.396677,-0.554381,0.304381,-0.646677,0.191342,-0.711940,0.065263,-0.745722,0.000000,-0.745722,0.000000,-0.750000,-0.500000,-0.750000,
-0.500000,0.750000,0.000000,0.750000,0.000000,0.745722,0.000000,0.745722,$1*%
G04 Aperture macros list end*
%ADD10FreePoly0,180.000000*%
%ADD11R,1.000000X1.500000*%
%ADD12FreePoly1,180.000000*%
%ADD13RoundRect,0.150000X-1.600000X-0.150000X1.600000X-0.150000X1.600000X0.150000X-1.600000X0.150000X0*%
%ADD14RoundRect,0.150000X-1.200000X-0.150000X1.200000X-0.150000X1.200000X0.150000X-1.200000X0.150000X0*%
%ADD15C,0.700000*%
%ADD16C,4.400000*%
%ADD17FreePoly2,180.000000*%
%ADD18FreePoly3,180.000000*%
G04 APERTURE END LIST*
%TO.C,JP4*%
G36*
X156200000Y-107100000D02*
G01*
X154700000Y-107100000D01*
X154700000Y-108600000D01*
X156200000Y-108600000D01*
X156200000Y-107100000D01*
G37*
%TO.C,JP3*%
G36*
X156200000Y-109850000D02*
G01*
X154700000Y-109850000D01*
X154700000Y-111350000D01*
X156200000Y-111350000D01*
X156200000Y-109850000D01*
G37*
%TO.C,JP2*%
G36*
X156200000Y-112600000D02*
G01*
X154700000Y-112600000D01*
X154700000Y-114100000D01*
X156200000Y-114100000D01*
X156200000Y-112600000D01*
G37*
%TD*%
D10*
%TO.C,JP4*%
X156750000Y-107850000D03*
D11*
X155450000Y-107850000D03*
D12*
X154150000Y-107850000D03*
%TD*%
D10*
%TO.C,JP3*%
X156750000Y-110600000D03*
D11*
X155450000Y-110600000D03*
D12*
X154150000Y-110600000D03*
%TD*%
D10*
%TO.C,JP2*%
X156750000Y-113350000D03*
D11*
X155450000Y-113350000D03*
D12*
X154150000Y-113350000D03*
%TD*%
D13*
%TO.C,J1*%
X134122500Y-101940000D03*
D14*
X134522500Y-101140000D03*
X134522500Y-100340000D03*
X134522500Y-99540000D03*
X134522500Y-98740000D03*
X134522500Y-97940000D03*
X134522500Y-97140000D03*
X134522500Y-96340000D03*
D13*
X134122500Y-95540000D03*
X134122500Y-94740000D03*
%TD*%
D15*
%TO.C,H2*%
X144472500Y-86040000D03*
X144955774Y-84873274D03*
X144955774Y-87206726D03*
X146122500Y-84390000D03*
D16*
X146122500Y-86040000D03*
D15*
X146122500Y-87690000D03*
X147289226Y-84873274D03*
X147289226Y-87206726D03*
X147772500Y-86040000D03*
%TD*%
%TO.C,H1*%
X144472500Y-111040000D03*
X144955774Y-109873274D03*
X144955774Y-112206726D03*
X146122500Y-109390000D03*
D16*
X146122500Y-111040000D03*
D15*
X146122500Y-112690000D03*
X147289226Y-109873274D03*
X147289226Y-112206726D03*
X147772500Y-111040000D03*
%TD*%
D17*
%TO.C,JP1*%
X146500000Y-98500000D03*
D18*
X145200000Y-98500000D03*
%TD*%
M02*
