%TF.GenerationSoftware,KiCad,Pcbnew,9.0.7*%
%TF.CreationDate,2026-03-30T09:29:02+01:00*%
%TF.ProjectId,hexpansion-L80,68657870-616e-4736-996f-6e2d4c38302e,rev?*%
%TF.SameCoordinates,Original*%
%TF.FileFunction,Copper,L2,Bot*%
%TF.FilePolarity,Positive*%
%FSLAX46Y46*%
G04 Gerber Fmt 4.6, Leading zero omitted, Abs format (unit mm)*
G04 Created by KiCad (PCBNEW 9.0.7) date 2026-03-30 09:29:02*
%MOMM*%
%LPD*%
G01*
G04 APERTURE LIST*
G04 Aperture macros list*
%AMRoundRect*
0 Rectangle with rounded corners*
0 $1 Rounding radius*
0 $2 $3 $4 $5 $6 $7 $8 $9 X,Y pos of 4 corners*
0 Add a 4 corners polygon primitive as box body*
4,1,4,$2,$3,$4,$5,$6,$7,$8,$9,$2,$3,0*
0 Add four circle primitives for the rounded corners*
1,1,$1+$1,$2,$3*
1,1,$1+$1,$4,$5*
1,1,$1+$1,$6,$7*
1,1,$1+$1,$8,$9*
0 Add four rect primitives between the rounded corners*
20,1,$1+$1,$2,$3,$4,$5,0*
20,1,$1+$1,$4,$5,$6,$7,0*
20,1,$1+$1,$6,$7,$8,$9,0*
20,1,$1+$1,$8,$9,$2,$3,0*%
%AMFreePoly0*
4,1,23,0.550000,-0.750000,0.000000,-0.750000,0.000000,-0.745722,-0.065263,-0.745722,-0.191342,-0.711940,-0.304381,-0.646677,-0.396677,-0.554381,-0.461940,-0.441342,-0.495722,-0.315263,-0.495722,-0.250000,-0.500000,-0.250000,-0.500000,0.250000,-0.495722,0.250000,-0.495722,0.315263,-0.461940,0.441342,-0.396677,0.554381,-0.304381,0.646677,-0.191342,0.711940,-0.065263,0.745722,0.000000,0.745722,
0.000000,0.750000,0.550000,0.750000,0.550000,-0.750000,0.550000,-0.750000,$1*%
%AMFreePoly1*
4,1,23,0.000000,0.745722,0.065263,0.745722,0.191342,0.711940,0.304381,0.646677,0.396677,0.554381,0.461940,0.441342,0.495722,0.315263,0.495722,0.250000,0.500000,0.250000,0.500000,-0.250000,0.495722,-0.250000,0.495722,-0.315263,0.461940,-0.441342,0.396677,-0.554381,0.304381,-0.646677,0.191342,-0.711940,0.065263,-0.745722,0.000000,-0.745722,0.000000,-0.750000,-0.550000,-0.750000,
-0.550000,0.750000,0.000000,0.750000,0.000000,0.745722,0.000000,0.745722,$1*%
%AMFreePoly2*
4,1,23,0.500000,-0.750000,0.000000,-0.750000,0.000000,-0.745722,-0.065263,-0.745722,-0.191342,-0.711940,-0.304381,-0.646677,-0.396677,-0.554381,-0.461940,-0.441342,-0.495722,-0.315263,-0.495722,-0.250000,-0.500000,-0.250000,-0.500000,0.250000,-0.495722,0.250000,-0.495722,0.315263,-0.461940,0.441342,-0.396677,0.554381,-0.304381,0.646677,-0.191342,0.711940,-0.065263,0.745722,0.000000,0.745722,
0.000000,0.750000,0.500000,0.750000,0.500000,-0.750000,0.500000,-0.750000,$1*%
%AMFreePoly3*
4,1,23,0.000000,0.745722,0.065263,0.745722,0.191342,0.711940,0.304381,0.646677,0.396677,0.554381,0.461940,0.441342,0.495722,0.315263,0.495722,0.250000,0.500000,0.250000,0.500000,-0.250000,0.495722,-0.250000,0.495722,-0.315263,0.461940,-0.441342,0.396677,-0.554381,0.304381,-0.646677,0.191342,-0.711940,0.065263,-0.745722,0.000000,-0.745722,0.000000,-0.750000,-0.500000,-0.750000,
-0.500000,0.750000,0.000000,0.750000,0.000000,0.745722,0.000000,0.745722,$1*%
G04 Aperture macros list end*
%TA.AperFunction,EtchedComponent*%
%ADD10C,0.000000*%
%TD*%
%TA.AperFunction,SMDPad,CuDef*%
%ADD11FreePoly0,180.000000*%
%TD*%
%TA.AperFunction,SMDPad,CuDef*%
%ADD12R,1.000000X1.500000*%
%TD*%
%TA.AperFunction,SMDPad,CuDef*%
%ADD13FreePoly1,180.000000*%
%TD*%
%TA.AperFunction,SMDPad,CuDef*%
%ADD14RoundRect,0.150000X-1.600000X-0.150000X1.600000X-0.150000X1.600000X0.150000X-1.600000X0.150000X0*%
%TD*%
%TA.AperFunction,SMDPad,CuDef*%
%ADD15RoundRect,0.150000X-1.200000X-0.150000X1.200000X-0.150000X1.200000X0.150000X-1.200000X0.150000X0*%
%TD*%
%TA.AperFunction,ComponentPad*%
%ADD16C,0.700000*%
%TD*%
%TA.AperFunction,ComponentPad*%
%ADD17C,4.400000*%
%TD*%
%TA.AperFunction,SMDPad,CuDef*%
%ADD18FreePoly2,180.000000*%
%TD*%
%TA.AperFunction,SMDPad,CuDef*%
%ADD19FreePoly3,180.000000*%
%TD*%
%TA.AperFunction,ViaPad*%
%ADD20C,0.800000*%
%TD*%
%TA.AperFunction,Conductor*%
%ADD21C,0.250000*%
%TD*%
%TA.AperFunction,Conductor*%
%ADD22C,0.500000*%
%TD*%
G04 APERTURE END LIST*
D10*
%TA.AperFunction,EtchedComponent*%
%TO.C,JP1*%
G36*
X146100000Y-98800000D02*
G01*
X145600000Y-98800000D01*
X145600000Y-98200000D01*
X146100000Y-98200000D01*
X146100000Y-98800000D01*
G37*
%TD.AperFunction*%
%TD*%
D11*
%TO.P,JP4,1,A*%
%TO.N,/GND*%
X156750000Y-107850000D03*
D12*
%TO.P,JP4,2,C*%
%TO.N,Net-(JP4-C)*%
X155450000Y-107850000D03*
D13*
%TO.P,JP4,3,B*%
%TO.N,/3V3*%
X154150000Y-107850000D03*
%TD*%
D11*
%TO.P,JP3,1,A*%
%TO.N,/GND*%
X156750000Y-110600000D03*
D12*
%TO.P,JP3,2,C*%
%TO.N,Net-(JP3-C)*%
X155450000Y-110600000D03*
D13*
%TO.P,JP3,3,B*%
%TO.N,/3V3*%
X154150000Y-110600000D03*
%TD*%
D11*
%TO.P,JP2,1,A*%
%TO.N,/GND*%
X156750000Y-113350000D03*
D12*
%TO.P,JP2,2,C*%
%TO.N,Net-(JP2-C)*%
X155450000Y-113350000D03*
D13*
%TO.P,JP2,3,B*%
%TO.N,/3V3*%
X154150000Y-113350000D03*
%TD*%
D14*
%TO.P,J1,1,GND*%
%TO.N,/GND*%
X134122500Y-101940000D03*
D15*
%TO.P,J1,2,LS_A*%
%TO.N,unconnected-(J1-LS_A-Pad2)*%
X134522500Y-101140000D03*
%TO.P,J1,3,LS_B*%
%TO.N,unconnected-(J1-LS_B-Pad3)*%
X134522500Y-100340000D03*
%TO.P,J1,4,SDA*%
%TO.N,/SDA*%
X134522500Y-99540000D03*
%TO.P,J1,5,SCL*%
%TO.N,/SCL*%
X134522500Y-98740000D03*
%TO.P,J1,6,HEXP_DET*%
%TO.N,/HEXP_DET*%
X134522500Y-97940000D03*
%TO.P,J1,7,LS_C*%
%TO.N,/LS_C*%
X134522500Y-97140000D03*
%TO.P,J1,8,LS_D*%
%TO.N,/LS_D*%
X134522500Y-96340000D03*
D14*
%TO.P,J1,9,LS_E*%
%TO.N,/LS_E*%
X134122500Y-95540000D03*
%TO.P,J1,10,GND*%
%TO.N,/GND*%
X134122500Y-94740000D03*
%TD*%
D16*
%TO.P,H2,1,1*%
%TO.N,/GND*%
X144472500Y-86040000D03*
X144955774Y-84873274D03*
X144955774Y-87206726D03*
X146122500Y-84390000D03*
D17*
X146122500Y-86040000D03*
D16*
X146122500Y-87690000D03*
X147289226Y-84873274D03*
X147289226Y-87206726D03*
X147772500Y-86040000D03*
%TD*%
%TO.P,H1,1,1*%
%TO.N,/GND*%
X144472500Y-111040000D03*
X144955774Y-109873274D03*
X144955774Y-112206726D03*
X146122500Y-109390000D03*
D17*
X146122500Y-111040000D03*
D16*
X146122500Y-112690000D03*
X147289226Y-109873274D03*
X147289226Y-112206726D03*
X147772500Y-111040000D03*
%TD*%
D18*
%TO.P,JP1,1,A*%
%TO.N,/GND*%
X146500000Y-98500000D03*
D19*
%TO.P,JP1,2,B*%
%TO.N,/HEXP_DET*%
X145200000Y-98500000D03*
%TD*%
D20*
%TO.N,/GND*%
X150350000Y-106250000D03*
X140150000Y-100600000D03*
X140450000Y-97500000D03*
X152700000Y-81750000D03*
X169150000Y-81750000D03*
X172300000Y-87250000D03*
X167000000Y-87050000D03*
X148850000Y-94800000D03*
X151150000Y-114000000D03*
X162850000Y-112000000D03*
X165800000Y-108800000D03*
X152650000Y-88200000D03*
X153500000Y-94950000D03*
X161900000Y-102300000D03*
X163100000Y-108350000D03*
X163100000Y-104450000D03*
%TO.N,/3V3*%
X153800000Y-115200000D03*
%TO.N,/GND*%
X158100000Y-114050000D03*
X158100000Y-110600000D03*
X158450000Y-88050000D03*
X160450000Y-88050000D03*
X160450000Y-88750000D03*
X160450000Y-87400000D03*
X158450000Y-88800000D03*
X158450000Y-87400000D03*
X151900000Y-99200000D03*
%TO.N,/3V3*%
X154100000Y-105600000D03*
%TO.N,/LS_D*%
X169150000Y-86650000D03*
%TO.N,/LS_C*%
X170250000Y-86650000D03*
%TO.N,/HS_I*%
X148750000Y-105100000D03*
X169600000Y-108900000D03*
%TO.N,/SCL*%
X151450000Y-104200000D03*
%TO.N,/SDA*%
X152850000Y-110474000D03*
%TO.N,/HS_H*%
X151000000Y-94950000D03*
X148812653Y-101587347D03*
%TO.N,Net-(JP2-C)*%
X159250000Y-115205000D03*
%TO.N,Net-(JP3-C)*%
X159250000Y-113935000D03*
%TO.N,Net-(JP4-C)*%
X159250000Y-112665000D03*
%TO.N,/GND*%
X139872500Y-104040000D03*
X139872500Y-92790000D03*
%TD*%
D21*
%TO.N,/HS_I*%
X148750000Y-105100000D02*
X151800000Y-105100000D01*
X151800000Y-105100000D02*
X153450000Y-103450000D01*
X153450000Y-103450000D02*
X164150000Y-103450000D01*
X164150000Y-103450000D02*
X169600000Y-108900000D01*
%TO.N,/SCL*%
X151450000Y-104200000D02*
X147450000Y-104200000D01*
X147450000Y-104200000D02*
X144250000Y-101000000D01*
X144250000Y-101000000D02*
X142737810Y-101000000D01*
X140487810Y-98750000D02*
X135882499Y-98750000D01*
X142737810Y-101000000D02*
X140487810Y-98750000D01*
X135882499Y-98750000D02*
X135872499Y-98740000D01*
X135872499Y-98740000D02*
X134522500Y-98740000D01*
%TO.N,/SDA*%
X152850000Y-110474000D02*
X153035000Y-110474000D01*
X153035000Y-110474000D02*
X152850000Y-110289000D01*
X140640000Y-99540000D02*
X134522500Y-99540000D01*
X143889000Y-101489000D02*
X142589000Y-101489000D01*
X152689000Y-110289000D02*
X143889000Y-101489000D01*
X152850000Y-110289000D02*
X152689000Y-110289000D01*
X142589000Y-101489000D02*
X140640000Y-99540000D01*
%TO.N,/HS_H*%
X148750000Y-101524694D02*
X148750000Y-98112500D01*
X148750000Y-98112500D02*
X151000000Y-95862500D01*
X148812653Y-101587347D02*
X148750000Y-101524694D01*
X151000000Y-95862500D02*
X151000000Y-94950000D01*
%TO.N,/LS_C*%
X170250000Y-86650000D02*
X163500000Y-93400000D01*
X138137810Y-97100000D02*
X134562500Y-97100000D01*
X148300000Y-93400000D02*
X145999000Y-95701000D01*
X134562500Y-97100000D02*
X134522500Y-97140000D01*
X139536810Y-95701000D02*
X138137810Y-97100000D01*
X163500000Y-93400000D02*
X148300000Y-93400000D01*
X145999000Y-95701000D02*
X139536810Y-95701000D01*
%TO.N,/LS_D*%
X169150000Y-86650000D02*
X163050000Y-92750000D01*
X163050000Y-92750000D02*
X148300000Y-92750000D01*
X139350000Y-95250000D02*
X138260000Y-96340000D01*
X148300000Y-92750000D02*
X145800000Y-95250000D01*
X145800000Y-95250000D02*
X139350000Y-95250000D01*
X138260000Y-96340000D02*
X134522500Y-96340000D01*
%TO.N,/HEXP_DET*%
X145200000Y-98500000D02*
X145150000Y-98450000D01*
X145150000Y-98450000D02*
X143550000Y-98450000D01*
X143550000Y-98450000D02*
X141400000Y-96300000D01*
X141400000Y-96300000D02*
X139575620Y-96300000D01*
X139575620Y-96300000D02*
X137935620Y-97940000D01*
X137935620Y-97940000D02*
X134522500Y-97940000D01*
%TO.N,/GND*%
X138390000Y-94740000D02*
X138400000Y-94750000D01*
X134122500Y-94740000D02*
X138390000Y-94740000D01*
D22*
%TO.N,/3V3*%
X154100000Y-105600000D02*
X154100000Y-107800000D01*
X154100000Y-107800000D02*
X154150000Y-107850000D01*
X153800000Y-115200000D02*
X153800000Y-114600000D01*
X153800000Y-114600000D02*
X154150000Y-114250000D01*
X154150000Y-114250000D02*
X154150000Y-113350000D01*
X154150000Y-110600000D02*
X154150000Y-113350000D01*
X154150000Y-107850000D02*
X154150000Y-110600000D01*
D21*
%TO.N,Net-(JP3-C)*%
X159250000Y-113935000D02*
X157165000Y-111850000D01*
X157165000Y-111850000D02*
X155700000Y-111850000D01*
X155700000Y-111850000D02*
X155450000Y-111600000D01*
X155450000Y-111600000D02*
X155450000Y-110600000D01*
%TO.N,Net-(JP4-C)*%
X159250000Y-112665000D02*
X159250000Y-109200000D01*
X155681000Y-108931000D02*
X155450000Y-108700000D01*
X159250000Y-109200000D02*
X158981000Y-108931000D01*
X158981000Y-108931000D02*
X155681000Y-108931000D01*
X155450000Y-108700000D02*
X155450000Y-107850000D01*
%TO.N,Net-(JP2-C)*%
X159250000Y-115205000D02*
X156305000Y-115205000D01*
X156305000Y-115205000D02*
X155450000Y-114350000D01*
X155450000Y-114350000D02*
X155450000Y-113350000D01*
X159250000Y-115205000D02*
X159245000Y-115200000D01*
%TO.N,/GND*%
X138190000Y-101940000D02*
X138200000Y-101950000D01*
X134122500Y-101940000D02*
X138190000Y-101940000D01*
X134162500Y-101900000D02*
X134122500Y-101940000D01*
%TD*%
%TA.AperFunction,Conductor*%
%TO.N,/GND*%
G36*
X172705385Y-80350971D02*
G01*
X172851567Y-80363760D01*
X172864907Y-80365665D01*
X172894247Y-80371501D01*
X172902109Y-80373334D01*
X173026922Y-80406777D01*
X173042275Y-80411989D01*
X173059224Y-80419009D01*
X173064134Y-80421169D01*
X173189918Y-80479823D01*
X173208633Y-80490629D01*
X173333582Y-80578119D01*
X173350140Y-80592013D01*
X173457986Y-80699859D01*
X173471880Y-80716417D01*
X173559370Y-80841366D01*
X173570177Y-80860084D01*
X173628809Y-80985819D01*
X173630989Y-80990774D01*
X173638009Y-81007723D01*
X173643222Y-81023080D01*
X173676659Y-81147869D01*
X173678501Y-81155769D01*
X173684330Y-81185071D01*
X173686241Y-81198456D01*
X173699028Y-81344605D01*
X173699500Y-81355413D01*
X173699500Y-115744586D01*
X173699028Y-115755394D01*
X173686241Y-115901542D01*
X173684330Y-115914927D01*
X173678501Y-115944229D01*
X173676659Y-115952129D01*
X173643222Y-116076918D01*
X173638009Y-116092275D01*
X173630989Y-116109224D01*
X173628809Y-116114179D01*
X173570177Y-116239915D01*
X173559370Y-116258633D01*
X173471880Y-116383582D01*
X173457986Y-116400140D01*
X173350140Y-116507986D01*
X173333582Y-116521880D01*
X173208633Y-116609370D01*
X173189915Y-116620177D01*
X173064179Y-116678809D01*
X173059224Y-116680989D01*
X173042275Y-116688009D01*
X173026919Y-116693222D01*
X172902123Y-116726661D01*
X172894217Y-116728504D01*
X172864929Y-116734329D01*
X172851549Y-116736239D01*
X172705461Y-116749021D01*
X172694524Y-116749493D01*
X150153956Y-116726054D01*
X150095060Y-116711104D01*
X145537973Y-114244508D01*
X140456002Y-111493810D01*
X139532486Y-110993942D01*
X139337432Y-110888366D01*
X143422500Y-110888366D01*
X143422500Y-111191633D01*
X143456452Y-111492966D01*
X143456454Y-111492982D01*
X143523934Y-111788633D01*
X143523938Y-111788645D01*
X143624092Y-112074866D01*
X143624098Y-112074880D01*
X143755672Y-112348096D01*
X143917015Y-112604872D01*
X144044371Y-112764573D01*
X144641999Y-112166944D01*
X144755774Y-112166944D01*
X144755774Y-112246508D01*
X144786222Y-112320017D01*
X144842483Y-112376278D01*
X144915992Y-112406726D01*
X144995556Y-112406726D01*
X145069065Y-112376278D01*
X145125326Y-112320017D01*
X145155774Y-112246508D01*
X145155774Y-112166944D01*
X145125326Y-112093435D01*
X145069065Y-112037174D01*
X144995556Y-112006726D01*
X144915992Y-112006726D01*
X144842483Y-112037174D01*
X144786222Y-112093435D01*
X144755774Y-112166944D01*
X144641999Y-112166944D01*
X145186208Y-111622735D01*
X145283467Y-111756602D01*
X145405898Y-111879033D01*
X145539762Y-111976290D01*
X144397925Y-113118127D01*
X144557627Y-113245484D01*
X144814403Y-113406827D01*
X145087619Y-113538401D01*
X145087633Y-113538407D01*
X145373854Y-113638561D01*
X145373866Y-113638565D01*
X145669517Y-113706045D01*
X145669533Y-113706047D01*
X145970866Y-113739999D01*
X145970868Y-113740000D01*
X146274132Y-113740000D01*
X146274133Y-113739999D01*
X146575466Y-113706047D01*
X146575482Y-113706045D01*
X146871133Y-113638565D01*
X146871145Y-113638561D01*
X147157366Y-113538407D01*
X147157380Y-113538401D01*
X147430596Y-113406827D01*
X147687372Y-113245484D01*
X147847073Y-113118126D01*
X146895891Y-112166944D01*
X147089226Y-112166944D01*
X147089226Y-112246508D01*
X147119674Y-112320017D01*
X147175935Y-112376278D01*
X147249444Y-112406726D01*
X147329008Y-112406726D01*
X147402517Y-112376278D01*
X147458778Y-112320017D01*
X147489226Y-112246508D01*
X147489226Y-112166944D01*
X147458778Y-112093435D01*
X147402517Y-112037174D01*
X147329008Y-112006726D01*
X147249444Y-112006726D01*
X147175935Y-112037174D01*
X147119674Y-112093435D01*
X147089226Y-112166944D01*
X146895891Y-112166944D01*
X146705237Y-111976290D01*
X146839102Y-111879033D01*
X146961533Y-111756602D01*
X147058790Y-111622737D01*
X148200626Y-112764573D01*
X148327984Y-112604872D01*
X148489327Y-112348096D01*
X148620901Y-112074880D01*
X148620907Y-112074866D01*
X148721061Y-111788645D01*
X148721065Y-111788633D01*
X148788545Y-111492982D01*
X148788547Y-111492966D01*
X148822499Y-111191633D01*
X148822500Y-111191631D01*
X148822500Y-110888368D01*
X148822499Y-110888366D01*
X148788547Y-110587033D01*
X148788545Y-110587017D01*
X148721065Y-110291366D01*
X148721061Y-110291354D01*
X148620907Y-110005133D01*
X148620901Y-110005119D01*
X148489327Y-109731903D01*
X148327984Y-109475127D01*
X148200627Y-109315425D01*
X147058790Y-110457262D01*
X146961533Y-110323398D01*
X146839102Y-110200967D01*
X146705236Y-110103709D01*
X146975453Y-109833492D01*
X147089226Y-109833492D01*
X147089226Y-109913056D01*
X147119674Y-109986565D01*
X147175935Y-110042826D01*
X147249444Y-110073274D01*
X147329008Y-110073274D01*
X147402517Y-110042826D01*
X147458778Y-109986565D01*
X147489226Y-109913056D01*
X147489226Y-109833492D01*
X147458778Y-109759983D01*
X147402517Y-109703722D01*
X147329008Y-109673274D01*
X147249444Y-109673274D01*
X147175935Y-109703722D01*
X147119674Y-109759983D01*
X147089226Y-109833492D01*
X146975453Y-109833492D01*
X147847073Y-108961871D01*
X147687372Y-108834515D01*
X147430596Y-108673172D01*
X147157380Y-108541598D01*
X147157366Y-108541592D01*
X146871145Y-108441438D01*
X146871133Y-108441434D01*
X146575482Y-108373954D01*
X146575466Y-108373952D01*
X146274133Y-108340000D01*
X145970866Y-108340000D01*
X145669533Y-108373952D01*
X145669517Y-108373954D01*
X145373866Y-108441434D01*
X145373854Y-108441438D01*
X145087633Y-108541592D01*
X145087619Y-108541598D01*
X144814403Y-108673172D01*
X144557627Y-108834515D01*
X144397925Y-108961871D01*
X145539763Y-110103709D01*
X145405898Y-110200967D01*
X145283467Y-110323398D01*
X145186209Y-110457263D01*
X144562438Y-109833492D01*
X144755774Y-109833492D01*
X144755774Y-109913056D01*
X144786222Y-109986565D01*
X144842483Y-110042826D01*
X144915992Y-110073274D01*
X144995556Y-110073274D01*
X145069065Y-110042826D01*
X145125326Y-109986565D01*
X145155774Y-109913056D01*
X145155774Y-109833492D01*
X145125326Y-109759983D01*
X145069065Y-109703722D01*
X144995556Y-109673274D01*
X144915992Y-109673274D01*
X144842483Y-109703722D01*
X144786222Y-109759983D01*
X144755774Y-109833492D01*
X144562438Y-109833492D01*
X144044371Y-109315425D01*
X143917015Y-109475127D01*
X143755672Y-109731903D01*
X143624098Y-110005119D01*
X143624092Y-110005133D01*
X143523938Y-110291354D01*
X143523934Y-110291366D01*
X143456454Y-110587017D01*
X143456452Y-110587033D01*
X143422500Y-110888366D01*
X139337432Y-110888366D01*
X136069175Y-109119369D01*
X136069174Y-109119369D01*
X134128996Y-108069216D01*
X134116918Y-108061753D01*
X133995914Y-107977034D01*
X133984072Y-107967616D01*
X133962993Y-107948637D01*
X133958296Y-107944181D01*
X133864496Y-107850386D01*
X133850601Y-107833827D01*
X133763112Y-107708882D01*
X133752313Y-107690178D01*
X133687845Y-107551923D01*
X133680455Y-107531615D01*
X133646129Y-107403490D01*
X133644614Y-107397181D01*
X133638722Y-107369456D01*
X133636488Y-107354503D01*
X133623471Y-107205640D01*
X133623000Y-107194839D01*
X133623000Y-104799760D01*
X133624526Y-104780364D01*
X133632139Y-104732293D01*
X133644124Y-104695406D01*
X133661737Y-104660839D01*
X133684533Y-104629464D01*
X133711964Y-104602033D01*
X133743339Y-104579237D01*
X133777906Y-104561624D01*
X133814793Y-104549639D01*
X133862865Y-104542025D01*
X133882260Y-104540500D01*
X138191495Y-104540500D01*
X138282541Y-104522389D01*
X138326828Y-104513580D01*
X138350876Y-104503618D01*
X138354427Y-104502809D01*
X138364226Y-104498089D01*
X138454311Y-104460775D01*
X138486831Y-104439045D01*
X138496101Y-104434582D01*
X138509478Y-104423913D01*
X138569042Y-104384114D01*
X138607070Y-104346085D01*
X138619041Y-104336541D01*
X138628588Y-104324567D01*
X138666614Y-104286542D01*
X138706413Y-104226978D01*
X138717082Y-104213601D01*
X138721545Y-104204331D01*
X138743275Y-104171811D01*
X138780589Y-104081726D01*
X138785309Y-104071927D01*
X138786118Y-104068376D01*
X138796080Y-104044328D01*
X138823000Y-103908993D01*
X138823000Y-103840000D01*
X138823000Y-103839500D01*
X138823000Y-103771007D01*
X138823000Y-103771004D01*
X138798853Y-103649611D01*
X138796080Y-103635672D01*
X138786119Y-103611624D01*
X138785309Y-103608073D01*
X138780584Y-103598263D01*
X138743275Y-103508189D01*
X138743275Y-103508188D01*
X138726387Y-103482915D01*
X138726387Y-103482914D01*
X138721546Y-103475670D01*
X138717082Y-103466399D01*
X138706408Y-103453014D01*
X138666614Y-103393458D01*
X138666612Y-103393455D01*
X138666610Y-103393453D01*
X138633521Y-103360365D01*
X138628593Y-103355437D01*
X138619041Y-103343459D01*
X138607062Y-103333906D01*
X138602134Y-103328978D01*
X138569045Y-103295888D01*
X138569044Y-103295887D01*
X138548834Y-103282383D01*
X138509482Y-103256089D01*
X138496101Y-103245418D01*
X138486832Y-103240954D01*
X138479593Y-103236117D01*
X138479587Y-103236114D01*
X138454314Y-103219227D01*
X138454313Y-103219226D01*
X138454311Y-103219225D01*
X138454308Y-103219223D01*
X138454303Y-103219221D01*
X138367457Y-103183249D01*
X138367452Y-103183247D01*
X138364233Y-103181913D01*
X138354427Y-103177191D01*
X138350880Y-103176381D01*
X138341236Y-103172386D01*
X138341227Y-103172384D01*
X138337373Y-103170788D01*
X138326828Y-103166420D01*
X138326824Y-103166419D01*
X138191495Y-103139500D01*
X138191493Y-103139500D01*
X138122707Y-103139500D01*
X138012301Y-103139500D01*
X137945262Y-103119815D01*
X137899507Y-103067011D01*
X137888304Y-103016362D01*
X137869355Y-100290362D01*
X137888573Y-100223187D01*
X137941058Y-100177066D01*
X137993352Y-100165500D01*
X140329548Y-100165500D01*
X140396587Y-100185185D01*
X140417229Y-100201819D01*
X142100016Y-101884606D01*
X142100045Y-101884637D01*
X142190263Y-101974855D01*
X142190267Y-101974858D01*
X142292707Y-102043307D01*
X142292713Y-102043310D01*
X142292714Y-102043311D01*
X142406548Y-102090463D01*
X142466971Y-102102481D01*
X142527393Y-102114500D01*
X142527394Y-102114500D01*
X143578548Y-102114500D01*
X143645587Y-102134185D01*
X143666229Y-102150819D01*
X151913181Y-110397771D01*
X151946666Y-110459094D01*
X151949500Y-110485452D01*
X151949500Y-110562695D01*
X151984103Y-110736658D01*
X151984106Y-110736667D01*
X152051983Y-110900540D01*
X152051990Y-110900553D01*
X152150535Y-111048034D01*
X152150538Y-111048038D01*
X152275961Y-111173461D01*
X152275965Y-111173464D01*
X152423446Y-111272009D01*
X152423459Y-111272016D01*
X152537960Y-111319443D01*
X152587334Y-111339894D01*
X152587336Y-111339894D01*
X152587341Y-111339896D01*
X152761304Y-111374499D01*
X152761307Y-111374500D01*
X152761309Y-111374500D01*
X152938693Y-111374500D01*
X152938694Y-111374499D01*
X153112666Y-111339894D01*
X153140613Y-111328317D01*
X153170431Y-111325111D01*
X153199877Y-111319443D01*
X153204803Y-111321416D01*
X153210081Y-111320849D01*
X153236898Y-111334272D01*
X153264736Y-111345424D01*
X153268994Y-111350339D01*
X153272560Y-111352124D01*
X153289087Y-111370972D01*
X153292504Y-111375773D01*
X153312125Y-111409757D01*
X153375241Y-111492010D01*
X153376522Y-111493810D01*
X153387246Y-111524815D01*
X153399070Y-111555399D01*
X153399240Y-111559494D01*
X153399361Y-111559842D01*
X153399270Y-111560214D01*
X153399500Y-111565717D01*
X153399500Y-112384282D01*
X153379815Y-112451321D01*
X153373875Y-112459769D01*
X153312132Y-112540232D01*
X153312120Y-112540250D01*
X153246303Y-112654248D01*
X153246302Y-112654249D01*
X153195800Y-112776170D01*
X153161724Y-112903341D01*
X153144500Y-113034166D01*
X153144500Y-113665833D01*
X153161724Y-113796658D01*
X153195801Y-113923832D01*
X153229133Y-114004303D01*
X153236602Y-114073772D01*
X153217675Y-114120645D01*
X153167813Y-114195270D01*
X153167812Y-114195269D01*
X153134921Y-114244496D01*
X153134914Y-114244508D01*
X153078342Y-114381086D01*
X153078340Y-114381092D01*
X153049500Y-114526079D01*
X153049500Y-114664729D01*
X153029815Y-114731768D01*
X153028602Y-114733620D01*
X153001988Y-114773449D01*
X153001987Y-114773452D01*
X152934106Y-114937332D01*
X152934103Y-114937341D01*
X152899500Y-115111304D01*
X152899500Y-115288695D01*
X152934103Y-115462658D01*
X152934106Y-115462667D01*
X153001983Y-115626540D01*
X153001990Y-115626553D01*
X153100535Y-115774034D01*
X153100538Y-115774038D01*
X153225961Y-115899461D01*
X153225965Y-115899464D01*
X153373446Y-115998009D01*
X153373459Y-115998016D01*
X153496363Y-116048923D01*
X153537334Y-116065894D01*
X153537336Y-116065894D01*
X153537341Y-116065896D01*
X153711304Y-116100499D01*
X153711307Y-116100500D01*
X153711309Y-116100500D01*
X153888693Y-116100500D01*
X153888694Y-116100499D01*
X153946682Y-116088964D01*
X154062658Y-116065896D01*
X154062661Y-116065894D01*
X154062666Y-116065894D01*
X154214476Y-116003013D01*
X154226540Y-115998016D01*
X154226540Y-115998015D01*
X154226547Y-115998013D01*
X154374035Y-115899464D01*
X154499464Y-115774035D01*
X154598013Y-115626547D01*
X154665894Y-115462666D01*
X154700500Y-115288691D01*
X154700500Y-115111309D01*
X154700500Y-115111306D01*
X154700499Y-115111304D01*
X154666890Y-114942341D01*
X154665894Y-114937334D01*
X154656051Y-114913570D01*
X154654184Y-114896210D01*
X154647405Y-114880119D01*
X154650527Y-114862193D01*
X154648582Y-114844101D01*
X154656429Y-114828303D01*
X154659394Y-114811286D01*
X154677295Y-114786302D01*
X154679347Y-114782173D01*
X154681095Y-114780271D01*
X154732952Y-114728416D01*
X154743997Y-114711885D01*
X154750493Y-114704823D01*
X154772529Y-114691567D01*
X154792261Y-114675075D01*
X154801976Y-114673854D01*
X154810365Y-114668808D01*
X154836065Y-114669570D01*
X154861585Y-114666363D01*
X154870419Y-114670588D01*
X154880204Y-114670879D01*
X154901413Y-114685415D01*
X154924615Y-114696514D01*
X154934863Y-114708341D01*
X154937837Y-114710379D01*
X154938979Y-114713091D01*
X154944859Y-114719876D01*
X154964139Y-114748730D01*
X154964141Y-114748732D01*
X154964142Y-114748733D01*
X155051267Y-114835858D01*
X155051268Y-114835858D01*
X155058335Y-114842925D01*
X155058334Y-114842925D01*
X155058338Y-114842928D01*
X155906263Y-115690855D01*
X155906267Y-115690858D01*
X156008710Y-115759309D01*
X156008711Y-115759309D01*
X156008715Y-115759312D01*
X156075397Y-115786932D01*
X156122548Y-115806463D01*
X156142597Y-115810451D01*
X156207624Y-115823385D01*
X156243392Y-115830501D01*
X156243394Y-115830501D01*
X156372721Y-115830501D01*
X156372741Y-115830500D01*
X158550639Y-115830500D01*
X158617678Y-115850185D01*
X158638321Y-115866820D01*
X158675961Y-115904461D01*
X158675965Y-115904464D01*
X158823446Y-116003009D01*
X158823459Y-116003016D01*
X158946363Y-116053923D01*
X158987334Y-116070894D01*
X158987336Y-116070894D01*
X158987341Y-116070896D01*
X159161304Y-116105499D01*
X159161307Y-116105500D01*
X159161309Y-116105500D01*
X159338693Y-116105500D01*
X159338694Y-116105499D01*
X159407319Y-116091849D01*
X159512658Y-116070896D01*
X159512661Y-116070894D01*
X159512666Y-116070894D01*
X159676547Y-116003013D01*
X159824035Y-115904464D01*
X159949464Y-115779035D01*
X160048013Y-115631547D01*
X160115894Y-115467666D01*
X160116889Y-115462667D01*
X160150499Y-115293695D01*
X160150500Y-115293693D01*
X160150500Y-115116306D01*
X160150499Y-115116304D01*
X160115896Y-114942341D01*
X160115893Y-114942332D01*
X160048016Y-114778459D01*
X160048014Y-114778455D01*
X160048013Y-114778453D01*
X159954759Y-114638890D01*
X159933882Y-114572214D01*
X159952366Y-114504834D01*
X159954760Y-114501109D01*
X160034953Y-114381092D01*
X160048013Y-114361547D01*
X160115894Y-114197666D01*
X160125801Y-114147864D01*
X160140538Y-114073772D01*
X160150500Y-114023691D01*
X160150500Y-113846309D01*
X160150500Y-113846306D01*
X160150499Y-113846304D01*
X160115896Y-113672341D01*
X160115893Y-113672332D01*
X160048016Y-113508459D01*
X160048014Y-113508455D01*
X160048013Y-113508453D01*
X159954759Y-113368890D01*
X159933882Y-113302214D01*
X159952366Y-113234834D01*
X159954760Y-113231109D01*
X159989758Y-113178731D01*
X160048013Y-113091547D01*
X160115894Y-112927666D01*
X160123387Y-112890000D01*
X160146028Y-112776171D01*
X160150500Y-112753691D01*
X160150500Y-112576309D01*
X160150500Y-112576306D01*
X160150499Y-112576304D01*
X160115896Y-112402341D01*
X160115893Y-112402332D01*
X160048016Y-112238459D01*
X160048009Y-112238446D01*
X159949464Y-112090965D01*
X159949461Y-112090961D01*
X159911819Y-112053319D01*
X159878334Y-111991996D01*
X159875500Y-111965638D01*
X159875500Y-109138394D01*
X159867962Y-109100499D01*
X159851463Y-109017548D01*
X159813020Y-108924739D01*
X159804312Y-108903716D01*
X159804307Y-108903708D01*
X159765439Y-108845538D01*
X159760665Y-108838393D01*
X159735858Y-108801267D01*
X159648733Y-108714142D01*
X159648732Y-108714141D01*
X159473927Y-108539337D01*
X159473925Y-108539334D01*
X159473925Y-108539335D01*
X159466858Y-108532268D01*
X159466858Y-108532267D01*
X159379733Y-108445142D01*
X159379732Y-108445141D01*
X159379731Y-108445140D01*
X159324018Y-108407914D01*
X159324016Y-108407913D01*
X159317732Y-108403714D01*
X159277286Y-108376688D01*
X159196792Y-108343347D01*
X159192525Y-108341579D01*
X159192520Y-108341577D01*
X159163453Y-108329537D01*
X159153427Y-108327543D01*
X159103029Y-108317518D01*
X159042610Y-108305500D01*
X159042607Y-108305500D01*
X159042606Y-108305500D01*
X156574500Y-108305500D01*
X156507461Y-108285815D01*
X156461706Y-108233011D01*
X156450500Y-108181500D01*
X156450499Y-107052129D01*
X156450498Y-107052123D01*
X156449220Y-107040236D01*
X156444091Y-106992517D01*
X156393796Y-106857669D01*
X156393795Y-106857668D01*
X156393793Y-106857664D01*
X156307547Y-106742455D01*
X156307544Y-106742452D01*
X156192335Y-106656206D01*
X156192328Y-106656202D01*
X156057482Y-106605908D01*
X156057483Y-106605908D01*
X155997883Y-106599501D01*
X155997881Y-106599500D01*
X155997873Y-106599500D01*
X155997865Y-106599500D01*
X154974500Y-106599500D01*
X154907461Y-106579815D01*
X154861706Y-106527011D01*
X154850500Y-106475500D01*
X154850500Y-106135269D01*
X154870185Y-106068230D01*
X154871398Y-106066378D01*
X154898013Y-106026547D01*
X154965894Y-105862666D01*
X154971900Y-105832475D01*
X155000499Y-105688695D01*
X155000500Y-105688693D01*
X155000500Y-105511306D01*
X155000499Y-105511304D01*
X154965896Y-105337341D01*
X154965893Y-105337332D01*
X154898016Y-105173459D01*
X154898009Y-105173446D01*
X154799464Y-105025965D01*
X154799461Y-105025961D01*
X154674038Y-104900538D01*
X154674034Y-104900535D01*
X154526553Y-104801990D01*
X154526540Y-104801983D01*
X154362667Y-104734106D01*
X154362658Y-104734103D01*
X154188694Y-104699500D01*
X154188691Y-104699500D01*
X154011309Y-104699500D01*
X154011306Y-104699500D01*
X153837341Y-104734103D01*
X153837332Y-104734106D01*
X153673459Y-104801983D01*
X153673446Y-104801990D01*
X153525965Y-104900535D01*
X153525961Y-104900538D01*
X153400538Y-105025961D01*
X153400535Y-105025965D01*
X153301990Y-105173446D01*
X153301983Y-105173459D01*
X153234106Y-105337332D01*
X153234103Y-105337341D01*
X153199500Y-105511304D01*
X153199500Y-105688695D01*
X153234103Y-105862658D01*
X153234106Y-105862667D01*
X153301984Y-106026542D01*
X153301985Y-106026543D01*
X153301987Y-106026547D01*
X153328602Y-106066378D01*
X153349480Y-106133055D01*
X153349500Y-106135269D01*
X153349500Y-106949442D01*
X153329815Y-107016481D01*
X153323877Y-107024927D01*
X153312129Y-107040236D01*
X153246301Y-107154252D01*
X153195800Y-107276170D01*
X153161724Y-107403341D01*
X153144500Y-107534166D01*
X153144500Y-108165833D01*
X153161724Y-108296658D01*
X153161725Y-108296662D01*
X153182435Y-108373952D01*
X153195800Y-108423829D01*
X153246302Y-108545750D01*
X153246303Y-108545751D01*
X153312120Y-108659749D01*
X153312132Y-108659767D01*
X153373875Y-108740230D01*
X153399070Y-108805399D01*
X153399500Y-108815717D01*
X153399500Y-109541336D01*
X153379815Y-109608375D01*
X153327011Y-109654130D01*
X153257853Y-109664074D01*
X153228049Y-109655898D01*
X153169038Y-109631456D01*
X153112666Y-109608106D01*
X153112662Y-109608105D01*
X153112658Y-109608103D01*
X152938694Y-109573500D01*
X152938691Y-109573500D01*
X152909453Y-109573500D01*
X152842414Y-109553815D01*
X152821772Y-109537181D01*
X149287016Y-106002426D01*
X149280684Y-105990830D01*
X149270663Y-105982220D01*
X149264263Y-105960758D01*
X149253531Y-105941103D01*
X149254473Y-105927924D01*
X149250698Y-105915263D01*
X149256917Y-105893748D01*
X149258515Y-105871411D01*
X149266869Y-105859324D01*
X149270102Y-105848142D01*
X149285427Y-105832475D01*
X149293103Y-105821372D01*
X149299131Y-105816104D01*
X149324035Y-105799464D01*
X149364635Y-105758863D01*
X149367767Y-105756127D01*
X149395854Y-105743158D01*
X149423001Y-105728334D01*
X149429463Y-105727639D01*
X149431201Y-105726837D01*
X149433692Y-105727184D01*
X149449361Y-105725500D01*
X151861607Y-105725500D01*
X151922029Y-105713481D01*
X151982452Y-105701463D01*
X152015792Y-105687652D01*
X152096286Y-105654312D01*
X152147509Y-105620084D01*
X152198733Y-105585858D01*
X152285858Y-105498733D01*
X152285858Y-105498731D01*
X152296066Y-105488524D01*
X152296067Y-105488521D01*
X153672772Y-104111819D01*
X153734095Y-104078334D01*
X153760453Y-104075500D01*
X163839548Y-104075500D01*
X163906587Y-104095185D01*
X163927229Y-104111819D01*
X168663181Y-108847771D01*
X168696666Y-108909094D01*
X168699500Y-108935452D01*
X168699500Y-108988695D01*
X168734103Y-109162658D01*
X168734106Y-109162667D01*
X168801983Y-109326540D01*
X168801990Y-109326553D01*
X168900535Y-109474034D01*
X168900538Y-109474038D01*
X169025961Y-109599461D01*
X169025965Y-109599464D01*
X169173446Y-109698009D01*
X169173459Y-109698016D01*
X169280896Y-109742517D01*
X169337334Y-109765894D01*
X169337336Y-109765894D01*
X169337341Y-109765896D01*
X169511304Y-109800499D01*
X169511307Y-109800500D01*
X169511309Y-109800500D01*
X169688693Y-109800500D01*
X169688694Y-109800499D01*
X169746682Y-109788964D01*
X169862658Y-109765896D01*
X169862661Y-109765894D01*
X169862666Y-109765894D01*
X170026547Y-109698013D01*
X170174035Y-109599464D01*
X170299464Y-109474035D01*
X170398013Y-109326547D01*
X170465894Y-109162666D01*
X170474507Y-109119369D01*
X170494760Y-109017548D01*
X170500500Y-108988691D01*
X170500500Y-108811309D01*
X170500500Y-108811306D01*
X170500499Y-108811304D01*
X170465896Y-108637341D01*
X170465893Y-108637332D01*
X170398016Y-108473459D01*
X170398009Y-108473446D01*
X170299464Y-108325965D01*
X170299461Y-108325961D01*
X170174038Y-108200538D01*
X170174034Y-108200535D01*
X170026553Y-108101990D01*
X170026540Y-108101983D01*
X169862667Y-108034106D01*
X169862658Y-108034103D01*
X169688694Y-107999500D01*
X169688691Y-107999500D01*
X169635452Y-107999500D01*
X169568413Y-107979815D01*
X169547771Y-107963181D01*
X164643150Y-103058560D01*
X164635860Y-103051270D01*
X164635858Y-103051267D01*
X164548733Y-102964142D01*
X164497509Y-102929915D01*
X164446286Y-102895688D01*
X164446283Y-102895686D01*
X164446280Y-102895685D01*
X164372603Y-102865168D01*
X164372601Y-102865167D01*
X164365792Y-102862347D01*
X164332452Y-102848537D01*
X164272029Y-102836518D01*
X164267306Y-102835578D01*
X164267304Y-102835578D01*
X164211610Y-102824500D01*
X164211607Y-102824500D01*
X164211606Y-102824500D01*
X153511606Y-102824500D01*
X153388393Y-102824500D01*
X153388389Y-102824500D01*
X153332697Y-102835578D01*
X153327971Y-102836518D01*
X153284743Y-102845116D01*
X153267546Y-102848537D01*
X153153716Y-102895687D01*
X153087089Y-102940207D01*
X153087088Y-102940208D01*
X153051263Y-102964144D01*
X153051262Y-102964145D01*
X152352426Y-103662982D01*
X152291103Y-103696467D01*
X152221411Y-103691483D01*
X152165478Y-103649611D01*
X152161642Y-103644191D01*
X152149462Y-103625962D01*
X152024038Y-103500538D01*
X152024034Y-103500535D01*
X151876553Y-103401990D01*
X151876540Y-103401983D01*
X151712667Y-103334106D01*
X151712658Y-103334103D01*
X151538694Y-103299500D01*
X151538691Y-103299500D01*
X151361309Y-103299500D01*
X151361306Y-103299500D01*
X151187341Y-103334103D01*
X151187332Y-103334106D01*
X151023459Y-103401983D01*
X151023446Y-103401990D01*
X150875965Y-103500535D01*
X150875961Y-103500538D01*
X150838321Y-103538180D01*
X150776999Y-103571666D01*
X150750639Y-103574500D01*
X147760453Y-103574500D01*
X147693414Y-103554815D01*
X147672772Y-103538181D01*
X144746180Y-100611590D01*
X144735859Y-100601269D01*
X144735858Y-100601267D01*
X144648733Y-100514142D01*
X144585542Y-100471919D01*
X144546286Y-100445688D01*
X144546287Y-100445688D01*
X144546285Y-100445687D01*
X144506822Y-100429342D01*
X144465792Y-100412347D01*
X144432452Y-100398537D01*
X144372029Y-100386518D01*
X144367306Y-100385578D01*
X144367304Y-100385578D01*
X144311610Y-100374500D01*
X144311607Y-100374500D01*
X144311606Y-100374500D01*
X143048263Y-100374500D01*
X142981224Y-100354815D01*
X142960582Y-100338181D01*
X140983632Y-98361232D01*
X140973669Y-98351269D01*
X140973668Y-98351267D01*
X140886543Y-98264142D01*
X140835319Y-98229915D01*
X140784096Y-98195688D01*
X140784093Y-98195686D01*
X140784092Y-98195686D01*
X140784091Y-98195685D01*
X140691125Y-98157178D01*
X140691119Y-98157176D01*
X140682760Y-98153714D01*
X140670262Y-98148537D01*
X140609839Y-98136518D01*
X140606761Y-98135905D01*
X140606746Y-98135902D01*
X140549420Y-98124500D01*
X140549417Y-98124500D01*
X140549416Y-98124500D01*
X138935072Y-98124500D01*
X138868033Y-98104815D01*
X138822278Y-98052011D01*
X138812334Y-97982853D01*
X138841359Y-97919297D01*
X138847391Y-97912819D01*
X139798391Y-96961819D01*
X139859714Y-96928334D01*
X139886072Y-96925500D01*
X141089548Y-96925500D01*
X141156587Y-96945185D01*
X141177229Y-96961819D01*
X143061016Y-98845606D01*
X143061045Y-98845637D01*
X143151263Y-98935855D01*
X143151267Y-98935858D01*
X143253707Y-99004307D01*
X143253713Y-99004310D01*
X143253714Y-99004311D01*
X143367548Y-99051463D01*
X143427971Y-99063481D01*
X143488393Y-99075500D01*
X143488394Y-99075500D01*
X144163638Y-99075500D01*
X144230677Y-99095185D01*
X144276432Y-99147989D01*
X144278198Y-99152046D01*
X144296295Y-99195734D01*
X144296304Y-99195753D01*
X144362120Y-99309749D01*
X144362132Y-99309767D01*
X144442455Y-99414444D01*
X144442459Y-99414449D01*
X144535551Y-99507541D01*
X144535555Y-99507544D01*
X144640232Y-99587867D01*
X144640236Y-99587869D01*
X144640243Y-99587875D01*
X144640250Y-99587879D01*
X144754248Y-99653696D01*
X144754249Y-99653697D01*
X144754252Y-99653698D01*
X144754257Y-99653701D01*
X144876171Y-99704200D01*
X145003338Y-99738275D01*
X145134174Y-99755500D01*
X145134181Y-99755500D01*
X145700000Y-99755500D01*
X145771940Y-99750355D01*
X145909992Y-99709819D01*
X146031032Y-99632031D01*
X146125254Y-99523294D01*
X146185024Y-99392416D01*
X146205500Y-99250000D01*
X146205500Y-97750000D01*
X146200355Y-97678060D01*
X146159819Y-97540008D01*
X146129261Y-97492459D01*
X146082032Y-97418969D01*
X146082028Y-97418965D01*
X145973299Y-97324750D01*
X145973297Y-97324748D01*
X145973294Y-97324746D01*
X145973290Y-97324744D01*
X145842419Y-97264976D01*
X145842414Y-97264975D01*
X145700000Y-97244500D01*
X145134174Y-97244500D01*
X145134166Y-97244500D01*
X145003341Y-97261724D01*
X144876170Y-97295800D01*
X144754249Y-97346302D01*
X144754248Y-97346303D01*
X144640250Y-97412120D01*
X144640232Y-97412132D01*
X144535555Y-97492455D01*
X144535545Y-97492464D01*
X144442464Y-97585545D01*
X144442455Y-97585555D01*
X144362132Y-97690232D01*
X144362120Y-97690250D01*
X144320407Y-97762500D01*
X144269840Y-97810716D01*
X144213020Y-97824500D01*
X143860452Y-97824500D01*
X143793413Y-97804815D01*
X143772771Y-97788181D01*
X142522771Y-96538181D01*
X142489286Y-96476858D01*
X142494270Y-96407166D01*
X142536142Y-96351233D01*
X142601606Y-96326816D01*
X142610452Y-96326500D01*
X146060607Y-96326500D01*
X146121029Y-96314481D01*
X146181452Y-96302463D01*
X146214792Y-96288652D01*
X146295286Y-96255312D01*
X146346509Y-96221084D01*
X146397733Y-96186858D01*
X146484858Y-96099733D01*
X146484858Y-96099731D01*
X146495066Y-96089524D01*
X146495067Y-96089521D01*
X148522772Y-94061819D01*
X148584095Y-94028334D01*
X148610453Y-94025500D01*
X150353982Y-94025500D01*
X150421021Y-94045185D01*
X150466776Y-94097989D01*
X150476720Y-94167147D01*
X150447695Y-94230703D01*
X150430219Y-94246119D01*
X150430673Y-94246672D01*
X150425961Y-94250538D01*
X150300538Y-94375961D01*
X150300535Y-94375965D01*
X150201990Y-94523446D01*
X150201983Y-94523459D01*
X150134106Y-94687332D01*
X150134103Y-94687341D01*
X150099500Y-94861304D01*
X150099500Y-95038695D01*
X150134103Y-95212658D01*
X150134106Y-95212667D01*
X150201983Y-95376540D01*
X150201990Y-95376553D01*
X150303920Y-95529100D01*
X150302145Y-95530285D01*
X150325672Y-95585720D01*
X150313863Y-95654584D01*
X150290183Y-95687725D01*
X149052409Y-96925500D01*
X148351269Y-97626640D01*
X148351267Y-97626642D01*
X148307703Y-97670205D01*
X148264140Y-97713768D01*
X148238564Y-97752045D01*
X148238558Y-97752056D01*
X148234888Y-97757549D01*
X148195688Y-97816214D01*
X148162769Y-97895689D01*
X148160642Y-97900821D01*
X148160636Y-97900835D01*
X148148539Y-97930041D01*
X148148535Y-97930055D01*
X148124500Y-98050889D01*
X148124500Y-100958768D01*
X148104815Y-101025807D01*
X148103602Y-101027659D01*
X148014643Y-101160793D01*
X148014636Y-101160806D01*
X147946759Y-101324679D01*
X147946756Y-101324688D01*
X147912153Y-101498651D01*
X147912153Y-101676042D01*
X147946756Y-101850005D01*
X147946759Y-101850014D01*
X148014636Y-102013887D01*
X148014643Y-102013900D01*
X148113188Y-102161381D01*
X148113191Y-102161385D01*
X148238614Y-102286808D01*
X148238618Y-102286811D01*
X148386099Y-102385356D01*
X148386112Y-102385363D01*
X148509016Y-102436270D01*
X148549987Y-102453241D01*
X148549989Y-102453241D01*
X148549994Y-102453243D01*
X148723957Y-102487846D01*
X148723960Y-102487847D01*
X148723962Y-102487847D01*
X148901346Y-102487847D01*
X148901347Y-102487846D01*
X148959335Y-102476311D01*
X149075311Y-102453243D01*
X149075314Y-102453241D01*
X149075319Y-102453241D01*
X149239200Y-102385360D01*
X149386688Y-102286811D01*
X149512117Y-102161382D01*
X149610666Y-102013894D01*
X149678547Y-101850013D01*
X149713153Y-101676038D01*
X149713153Y-101498656D01*
X149713153Y-101498653D01*
X149713152Y-101498651D01*
X149678549Y-101324688D01*
X149678546Y-101324679D01*
X149610669Y-101160806D01*
X149610662Y-101160793D01*
X149512117Y-101013312D01*
X149512114Y-101013308D01*
X149411819Y-100913013D01*
X149378334Y-100851690D01*
X149375500Y-100825332D01*
X149375500Y-98422952D01*
X149395185Y-98355913D01*
X149411819Y-98335271D01*
X151485855Y-96261236D01*
X151485855Y-96261235D01*
X151485858Y-96261233D01*
X151554312Y-96158785D01*
X151601463Y-96044951D01*
X151625501Y-95924106D01*
X151625501Y-95800893D01*
X151625501Y-95795783D01*
X151625500Y-95795757D01*
X151625500Y-95649361D01*
X151645185Y-95582322D01*
X151661820Y-95561679D01*
X151699461Y-95524038D01*
X151699464Y-95524035D01*
X151798013Y-95376547D01*
X151865894Y-95212666D01*
X151900500Y-95038691D01*
X151900500Y-94861309D01*
X151900500Y-94861306D01*
X151900499Y-94861304D01*
X151865896Y-94687341D01*
X151865893Y-94687332D01*
X151798016Y-94523459D01*
X151798009Y-94523446D01*
X151699464Y-94375965D01*
X151699461Y-94375961D01*
X151574038Y-94250538D01*
X151569327Y-94246672D01*
X151570738Y-94244952D01*
X151532328Y-94199003D01*
X151523612Y-94129679D01*
X151553760Y-94066648D01*
X151613199Y-94029922D01*
X151646018Y-94025500D01*
X163561607Y-94025500D01*
X163622029Y-94013481D01*
X163682452Y-94001463D01*
X163715792Y-93987652D01*
X163796286Y-93954312D01*
X163857244Y-93913580D01*
X163898733Y-93885858D01*
X163985858Y-93798733D01*
X163985858Y-93798731D01*
X163996066Y-93788524D01*
X163996067Y-93788521D01*
X170197772Y-87586819D01*
X170259095Y-87553334D01*
X170285453Y-87550500D01*
X170338693Y-87550500D01*
X170338694Y-87550499D01*
X170396682Y-87538964D01*
X170512658Y-87515896D01*
X170512661Y-87515894D01*
X170512666Y-87515894D01*
X170676547Y-87448013D01*
X170824035Y-87349464D01*
X170949464Y-87224035D01*
X171048013Y-87076547D01*
X171048704Y-87074880D01*
X171076933Y-87006726D01*
X171115894Y-86912666D01*
X171150500Y-86738691D01*
X171150500Y-86561309D01*
X171150500Y-86561306D01*
X171150499Y-86561304D01*
X171115896Y-86387341D01*
X171115893Y-86387332D01*
X171048016Y-86223459D01*
X171048009Y-86223446D01*
X170949464Y-86075965D01*
X170949461Y-86075961D01*
X170824038Y-85950538D01*
X170824034Y-85950535D01*
X170676553Y-85851990D01*
X170676540Y-85851983D01*
X170512667Y-85784106D01*
X170512658Y-85784103D01*
X170338694Y-85749500D01*
X170338691Y-85749500D01*
X170161309Y-85749500D01*
X170161306Y-85749500D01*
X169987341Y-85784103D01*
X169987332Y-85784106D01*
X169823459Y-85851983D01*
X169823448Y-85851989D01*
X169768890Y-85888444D01*
X169702213Y-85909321D01*
X169634833Y-85890836D01*
X169631110Y-85888444D01*
X169576551Y-85851989D01*
X169576540Y-85851983D01*
X169412667Y-85784106D01*
X169412658Y-85784103D01*
X169238694Y-85749500D01*
X169238691Y-85749500D01*
X169061309Y-85749500D01*
X169061306Y-85749500D01*
X168887341Y-85784103D01*
X168887332Y-85784106D01*
X168723459Y-85851983D01*
X168723446Y-85851990D01*
X168575965Y-85950535D01*
X168575961Y-85950538D01*
X168450538Y-86075961D01*
X168450535Y-86075965D01*
X168351990Y-86223446D01*
X168351983Y-86223459D01*
X168284106Y-86387332D01*
X168284103Y-86387341D01*
X168249500Y-86561304D01*
X168249500Y-86614547D01*
X168229815Y-86681586D01*
X168213181Y-86702228D01*
X162827229Y-92088181D01*
X162765906Y-92121666D01*
X162739548Y-92124500D01*
X148238389Y-92124500D01*
X148187535Y-92134615D01*
X148187530Y-92134616D01*
X148177971Y-92136518D01*
X148117548Y-92148537D01*
X148070397Y-92168067D01*
X148003715Y-92195688D01*
X148003714Y-92195689D01*
X147981347Y-92210633D01*
X147981344Y-92210635D01*
X147901268Y-92264140D01*
X147875909Y-92289500D01*
X147814142Y-92351267D01*
X147814139Y-92351270D01*
X146680451Y-93484959D01*
X145577229Y-94588181D01*
X145515906Y-94621666D01*
X145489548Y-94624500D01*
X139288389Y-94624500D01*
X139231063Y-94635902D01*
X139231044Y-94635906D01*
X139227971Y-94636518D01*
X139167548Y-94648537D01*
X139155050Y-94653714D01*
X139146693Y-94657175D01*
X139146683Y-94657178D01*
X139053715Y-94695686D01*
X139043627Y-94702428D01*
X139043626Y-94702429D01*
X138951268Y-94764140D01*
X138907705Y-94807703D01*
X138864142Y-94851267D01*
X138048291Y-95667118D01*
X137986968Y-95700603D01*
X137917276Y-95695619D01*
X137861343Y-95653747D01*
X137836926Y-95588283D01*
X137836613Y-95580299D01*
X137826082Y-94065362D01*
X137845300Y-93998187D01*
X137897785Y-93952066D01*
X137950079Y-93940500D01*
X138191495Y-93940500D01*
X138282541Y-93922389D01*
X138326828Y-93913580D01*
X138350876Y-93903618D01*
X138354427Y-93902809D01*
X138364226Y-93898089D01*
X138454311Y-93860775D01*
X138486831Y-93839045D01*
X138496101Y-93834582D01*
X138509478Y-93823913D01*
X138569042Y-93784114D01*
X138607070Y-93746085D01*
X138619041Y-93736541D01*
X138628588Y-93724567D01*
X138666614Y-93686542D01*
X138706413Y-93626978D01*
X138717082Y-93613601D01*
X138721545Y-93604331D01*
X138743275Y-93571811D01*
X138780589Y-93481726D01*
X138785309Y-93471927D01*
X138786118Y-93468376D01*
X138796080Y-93444328D01*
X138823000Y-93308993D01*
X138823000Y-93240000D01*
X138823000Y-93239500D01*
X138823000Y-93171007D01*
X138823000Y-93171004D01*
X138796081Y-93035678D01*
X138796080Y-93035674D01*
X138796080Y-93035672D01*
X138786119Y-93011624D01*
X138785309Y-93008073D01*
X138780584Y-92998263D01*
X138743275Y-92908189D01*
X138743275Y-92908188D01*
X138726387Y-92882915D01*
X138726387Y-92882914D01*
X138721546Y-92875670D01*
X138717082Y-92866399D01*
X138706408Y-92853014D01*
X138666614Y-92793458D01*
X138666612Y-92793455D01*
X138666610Y-92793453D01*
X138633521Y-92760365D01*
X138628593Y-92755437D01*
X138619041Y-92743459D01*
X138607062Y-92733906D01*
X138602134Y-92728978D01*
X138569045Y-92695888D01*
X138569044Y-92695887D01*
X138548834Y-92682383D01*
X138509482Y-92656089D01*
X138496101Y-92645418D01*
X138486832Y-92640954D01*
X138479593Y-92636117D01*
X138479587Y-92636114D01*
X138454314Y-92619227D01*
X138454313Y-92619226D01*
X138454311Y-92619225D01*
X138454308Y-92619223D01*
X138454303Y-92619221D01*
X138367457Y-92583249D01*
X138367452Y-92583247D01*
X138364233Y-92581913D01*
X138354427Y-92577191D01*
X138350880Y-92576381D01*
X138341236Y-92572386D01*
X138341227Y-92572384D01*
X138337373Y-92570788D01*
X138326828Y-92566420D01*
X138326824Y-92566419D01*
X138191495Y-92539500D01*
X138191493Y-92539500D01*
X138122707Y-92539500D01*
X133882257Y-92539500D01*
X133862859Y-92537973D01*
X133814799Y-92530361D01*
X133777901Y-92518372D01*
X133743344Y-92500764D01*
X133711959Y-92477961D01*
X133684537Y-92450539D01*
X133661733Y-92419152D01*
X133644127Y-92384598D01*
X133632138Y-92347700D01*
X133629283Y-92329675D01*
X133624526Y-92299635D01*
X133623000Y-92280239D01*
X133623000Y-89885167D01*
X133623472Y-89874356D01*
X133630661Y-89792217D01*
X133636325Y-89727506D01*
X133638558Y-89712564D01*
X133645861Y-89678210D01*
X133647355Y-89671984D01*
X133680480Y-89548360D01*
X133687862Y-89528079D01*
X133752328Y-89389819D01*
X133763130Y-89371109D01*
X133850614Y-89246152D01*
X133864502Y-89229598D01*
X133883528Y-89210567D01*
X133954985Y-89139095D01*
X133959596Y-89134718D01*
X133985730Y-89111182D01*
X133997547Y-89101780D01*
X134116483Y-89018477D01*
X134128568Y-89011008D01*
X139897712Y-85888366D01*
X143422500Y-85888366D01*
X143422500Y-86191633D01*
X143456452Y-86492966D01*
X143456454Y-86492982D01*
X143523934Y-86788633D01*
X143523938Y-86788645D01*
X143624092Y-87074866D01*
X143624098Y-87074880D01*
X143755672Y-87348096D01*
X143917015Y-87604872D01*
X144044371Y-87764573D01*
X144641999Y-87166944D01*
X144755774Y-87166944D01*
X144755774Y-87246508D01*
X144786222Y-87320017D01*
X144842483Y-87376278D01*
X144915992Y-87406726D01*
X144995556Y-87406726D01*
X145069065Y-87376278D01*
X145125326Y-87320017D01*
X145155774Y-87246508D01*
X145155774Y-87166944D01*
X145125326Y-87093435D01*
X145069065Y-87037174D01*
X144995556Y-87006726D01*
X144915992Y-87006726D01*
X144842483Y-87037174D01*
X144786222Y-87093435D01*
X144755774Y-87166944D01*
X144641999Y-87166944D01*
X145186208Y-86622735D01*
X145283467Y-86756602D01*
X145405898Y-86879033D01*
X145539762Y-86976290D01*
X144397925Y-88118127D01*
X144557627Y-88245484D01*
X144814403Y-88406827D01*
X145087619Y-88538401D01*
X145087633Y-88538407D01*
X145373854Y-88638561D01*
X145373866Y-88638565D01*
X145669517Y-88706045D01*
X145669533Y-88706047D01*
X145970866Y-88739999D01*
X145970868Y-88740000D01*
X146274132Y-88740000D01*
X146274133Y-88739999D01*
X146575466Y-88706047D01*
X146575482Y-88706045D01*
X146871133Y-88638565D01*
X146871145Y-88638561D01*
X147157366Y-88538407D01*
X147157380Y-88538401D01*
X147430596Y-88406827D01*
X147687372Y-88245484D01*
X147847073Y-88118126D01*
X146895891Y-87166944D01*
X147089226Y-87166944D01*
X147089226Y-87246508D01*
X147119674Y-87320017D01*
X147175935Y-87376278D01*
X147249444Y-87406726D01*
X147329008Y-87406726D01*
X147402517Y-87376278D01*
X147458778Y-87320017D01*
X147489226Y-87246508D01*
X147489226Y-87166944D01*
X147458778Y-87093435D01*
X147402517Y-87037174D01*
X147329008Y-87006726D01*
X147249444Y-87006726D01*
X147175935Y-87037174D01*
X147119674Y-87093435D01*
X147089226Y-87166944D01*
X146895891Y-87166944D01*
X146705237Y-86976290D01*
X146839102Y-86879033D01*
X146961533Y-86756602D01*
X147058790Y-86622737D01*
X148200626Y-87764573D01*
X148327984Y-87604872D01*
X148489327Y-87348096D01*
X148620901Y-87074880D01*
X148620907Y-87074866D01*
X148721061Y-86788645D01*
X148721065Y-86788633D01*
X148788545Y-86492982D01*
X148788547Y-86492966D01*
X148822499Y-86191633D01*
X148822500Y-86191631D01*
X148822500Y-85888368D01*
X148822499Y-85888366D01*
X148789445Y-85595000D01*
X158500000Y-85595000D01*
X160400000Y-85595000D01*
X160400000Y-83505000D01*
X158500000Y-83505000D01*
X158500000Y-85595000D01*
X148789445Y-85595000D01*
X148788547Y-85587033D01*
X148788545Y-85587017D01*
X148721065Y-85291366D01*
X148721061Y-85291354D01*
X148620907Y-85005133D01*
X148620901Y-85005119D01*
X148489327Y-84731903D01*
X148327984Y-84475127D01*
X148200627Y-84315425D01*
X147058790Y-85457262D01*
X146961533Y-85323398D01*
X146839102Y-85200967D01*
X146705236Y-85103709D01*
X146975453Y-84833492D01*
X147089226Y-84833492D01*
X147089226Y-84913056D01*
X147119674Y-84986565D01*
X147175935Y-85042826D01*
X147249444Y-85073274D01*
X147329008Y-85073274D01*
X147402517Y-85042826D01*
X147458778Y-84986565D01*
X147489226Y-84913056D01*
X147489226Y-84833492D01*
X147458778Y-84759983D01*
X147402517Y-84703722D01*
X147329008Y-84673274D01*
X147249444Y-84673274D01*
X147175935Y-84703722D01*
X147119674Y-84759983D01*
X147089226Y-84833492D01*
X146975453Y-84833492D01*
X147847073Y-83961871D01*
X147687372Y-83834515D01*
X147430596Y-83673172D01*
X147206718Y-83565358D01*
X147157380Y-83541598D01*
X147157366Y-83541592D01*
X146871145Y-83441438D01*
X146871133Y-83441434D01*
X146575482Y-83373954D01*
X146575466Y-83373952D01*
X146274133Y-83340000D01*
X145970866Y-83340000D01*
X145669533Y-83373952D01*
X145669517Y-83373954D01*
X145373866Y-83441434D01*
X145373854Y-83441438D01*
X145087633Y-83541592D01*
X145087619Y-83541598D01*
X144814403Y-83673172D01*
X144557627Y-83834515D01*
X144397925Y-83961871D01*
X145539763Y-85103709D01*
X145405898Y-85200967D01*
X145283467Y-85323398D01*
X145186209Y-85457263D01*
X144562438Y-84833492D01*
X144755774Y-84833492D01*
X144755774Y-84913056D01*
X144786222Y-84986565D01*
X144842483Y-85042826D01*
X144915992Y-85073274D01*
X144995556Y-85073274D01*
X145069065Y-85042826D01*
X145125326Y-84986565D01*
X145155774Y-84913056D01*
X145155774Y-84833492D01*
X145125326Y-84759983D01*
X145069065Y-84703722D01*
X144995556Y-84673274D01*
X144915992Y-84673274D01*
X144842483Y-84703722D01*
X144786222Y-84759983D01*
X144755774Y-84833492D01*
X144562438Y-84833492D01*
X144044371Y-84315425D01*
X143917015Y-84475127D01*
X143755672Y-84731903D01*
X143624098Y-85005119D01*
X143624092Y-85005133D01*
X143523938Y-85291354D01*
X143523934Y-85291366D01*
X143456454Y-85587017D01*
X143456452Y-85587033D01*
X143422500Y-85888366D01*
X139897712Y-85888366D01*
X150095010Y-80368915D01*
X150154014Y-80353966D01*
X172694597Y-80350500D01*
X172705385Y-80350971D01*
G37*
%TD.AperFunction*%
%TA.AperFunction,Conductor*%
G36*
X156921587Y-112495185D02*
G01*
X156942229Y-112511819D01*
X158313181Y-113882771D01*
X158346666Y-113944094D01*
X158349500Y-113970452D01*
X158349500Y-114023695D01*
X158384103Y-114197658D01*
X158384106Y-114197667D01*
X158451983Y-114361540D01*
X158451989Y-114361551D01*
X158468733Y-114386610D01*
X158489610Y-114453287D01*
X158471125Y-114520667D01*
X158419146Y-114567357D01*
X158365630Y-114579500D01*
X156615453Y-114579500D01*
X156586012Y-114570855D01*
X156556026Y-114564332D01*
X156551010Y-114560577D01*
X156548414Y-114559815D01*
X156527772Y-114543181D01*
X156431978Y-114447387D01*
X156398493Y-114386064D01*
X156403476Y-114316375D01*
X156444091Y-114207483D01*
X156450500Y-114147873D01*
X156450499Y-112599499D01*
X156470184Y-112532461D01*
X156522987Y-112486706D01*
X156574499Y-112475500D01*
X156854548Y-112475500D01*
X156921587Y-112495185D01*
G37*
%TD.AperFunction*%
%TA.AperFunction,Conductor*%
G36*
X158567539Y-109576185D02*
G01*
X158613294Y-109628989D01*
X158624500Y-109680500D01*
X158624500Y-111965638D01*
X158617260Y-111990293D01*
X158613913Y-112015772D01*
X158606679Y-112026326D01*
X158604815Y-112032677D01*
X158595195Y-112045694D01*
X158591848Y-112049652D01*
X158550536Y-112090965D01*
X158526456Y-112127002D01*
X158521938Y-112132347D01*
X158498381Y-112147893D01*
X158476732Y-112165987D01*
X158469613Y-112166881D01*
X158463624Y-112170834D01*
X158435403Y-112171177D01*
X158407407Y-112174694D01*
X158400935Y-112171597D01*
X158393760Y-112171685D01*
X158369834Y-112156717D01*
X158344380Y-112144539D01*
X158339562Y-112139972D01*
X157655198Y-111455608D01*
X157655178Y-111455586D01*
X157563733Y-111364141D01*
X157518325Y-111333801D01*
X157518324Y-111333800D01*
X157512509Y-111329915D01*
X157461286Y-111295688D01*
X157380792Y-111262347D01*
X157365457Y-111255995D01*
X157347453Y-111248537D01*
X157337427Y-111246543D01*
X157287029Y-111236518D01*
X157226610Y-111224500D01*
X157226607Y-111224500D01*
X157226606Y-111224500D01*
X156574500Y-111224500D01*
X156507461Y-111204815D01*
X156461706Y-111152011D01*
X156450500Y-111100500D01*
X156450499Y-109802129D01*
X156450498Y-109802123D01*
X156450323Y-109800499D01*
X156444091Y-109742517D01*
X156437122Y-109723831D01*
X156432139Y-109654139D01*
X156465626Y-109592817D01*
X156526949Y-109559333D01*
X156553305Y-109556500D01*
X158500500Y-109556500D01*
X158567539Y-109576185D01*
G37*
%TD.AperFunction*%
%TD*%
M02*
