%TF.GenerationSoftware,KiCad,Pcbnew,9.0.7*%
%TF.CreationDate,2026-03-30T09:29:02+01:00*%
%TF.ProjectId,hexpansion-L80,68657870-616e-4736-996f-6e2d4c38302e,rev?*%
%TF.SameCoordinates,Original*%
%TF.FileFunction,Soldermask,Top*%
%TF.FilePolarity,Negative*%
%FSLAX46Y46*%
G04 Gerber Fmt 4.6, Leading zero omitted, Abs format (unit mm)*
G04 Created by KiCad (PCBNEW 9.0.7) date 2026-03-30 09:29:02*
%MOMM*%
%LPD*%
G01*
G04 APERTURE LIST*
G04 Aperture macros list*
%AMRoundRect*
0 Rectangle with rounded corners*
0 $1 Rounding radius*
0 $2 $3 $4 $5 $6 $7 $8 $9 X,Y pos of 4 corners*
0 Add a 4 corners polygon primitive as box body*
4,1,4,$2,$3,$4,$5,$6,$7,$8,$9,$2,$3,0*
0 Add four circle primitives for the rounded corners*
1,1,$1+$1,$2,$3*
1,1,$1+$1,$4,$5*
1,1,$1+$1,$6,$7*
1,1,$1+$1,$8,$9*
0 Add four rect primitives between the rounded corners*
20,1,$1+$1,$2,$3,$4,$5,0*
20,1,$1+$1,$4,$5,$6,$7,0*
20,1,$1+$1,$6,$7,$8,$9,0*
20,1,$1+$1,$8,$9,$2,$3,0*%
G04 Aperture macros list end*
%ADD10RoundRect,0.218750X-0.218750X-0.256250X0.218750X-0.256250X0.218750X0.256250X-0.218750X0.256250X0*%
%ADD11RoundRect,0.135000X0.135000X0.185000X-0.135000X0.185000X-0.135000X-0.185000X0.135000X-0.185000X0*%
%ADD12RoundRect,0.135000X-0.135000X-0.185000X0.135000X-0.185000X0.135000X0.185000X-0.135000X0.185000X0*%
%ADD13RoundRect,0.140000X-0.170000X0.140000X-0.170000X-0.140000X0.170000X-0.140000X0.170000X0.140000X0*%
%ADD14RoundRect,0.102000X0.775000X0.300000X-0.775000X0.300000X-0.775000X-0.300000X0.775000X-0.300000X0*%
%ADD15RoundRect,0.102000X0.800000X0.300000X-0.800000X0.300000X-0.800000X-0.300000X0.800000X-0.300000X0*%
%ADD16O,1.204000X2.704000*%
%ADD17RoundRect,0.150000X-0.150000X0.587500X-0.150000X-0.587500X0.150000X-0.587500X0.150000X0.587500X0*%
%ADD18RoundRect,0.250000X0.250000X-0.275000X0.250000X0.275000X-0.250000X0.275000X-0.250000X-0.275000X0*%
%ADD19RoundRect,0.250000X0.275000X-0.850000X0.275000X0.850000X-0.275000X0.850000X-0.275000X-0.850000X0*%
%ADD20RoundRect,0.150000X1.600000X0.150000X-1.600000X0.150000X-1.600000X-0.150000X1.600000X-0.150000X0*%
%ADD21RoundRect,0.150000X1.200000X0.150000X-1.200000X0.150000X-1.200000X-0.150000X1.200000X-0.150000X0*%
%ADD22C,0.700000*%
%ADD23C,4.400000*%
G04 APERTURE END LIST*
%TO.C,J2*%
G36*
X158510000Y-85595000D02*
G01*
X160390000Y-85595000D01*
X160390000Y-83505000D01*
X158510000Y-83505000D01*
X158510000Y-85595000D01*
G37*
%TD*%
D10*
%TO.C,D1*%
X168862500Y-84900000D03*
X170437500Y-84900000D03*
%TD*%
%TO.C,D2*%
X168862500Y-83300000D03*
X170437500Y-83300000D03*
%TD*%
D11*
%TO.C,R3*%
X172610000Y-84900000D03*
X171590000Y-84900000D03*
%TD*%
D12*
%TO.C,R6*%
X152150000Y-111400000D03*
X153170000Y-111400000D03*
%TD*%
%TO.C,R5*%
X152140000Y-112650000D03*
X153160000Y-112650000D03*
%TD*%
D11*
%TO.C,R4*%
X172610000Y-83300000D03*
X171590000Y-83300000D03*
%TD*%
D12*
%TO.C,R2*%
X163340000Y-82000000D03*
X164360000Y-82000000D03*
%TD*%
%TO.C,R1*%
X165210000Y-82000000D03*
X166230000Y-82000000D03*
%TD*%
D13*
%TO.C,C2*%
X165850000Y-110320000D03*
X165850000Y-111280000D03*
%TD*%
%TO.C,C1*%
X167050000Y-111230000D03*
X167050000Y-110270000D03*
%TD*%
%TO.C,C3*%
X164550000Y-110320000D03*
X164550000Y-111280000D03*
%TD*%
D14*
%TO.C,U2*%
X160600000Y-113935000D03*
X155200000Y-113935000D03*
D15*
X160600000Y-115205000D03*
D14*
X160600000Y-112665000D03*
X160600000Y-111395000D03*
X155200000Y-115205000D03*
X155200000Y-112665000D03*
X155200000Y-111395000D03*
%TD*%
D16*
%TO.C,U1*%
X161980000Y-106450000D03*
X161980000Y-90950000D03*
X164520000Y-106450000D03*
X159440000Y-106450000D03*
X156900000Y-106450000D03*
X167060000Y-106450000D03*
X169600000Y-106450000D03*
X159440000Y-90950000D03*
X156900000Y-90950000D03*
X164520000Y-90950000D03*
X167060000Y-90950000D03*
X169600000Y-90950000D03*
%TD*%
D17*
%TO.C,Q1*%
X165500000Y-83925000D03*
X163600000Y-83925000D03*
X164550000Y-85800000D03*
%TD*%
D18*
%TO.C,J2*%
X159450000Y-86130000D03*
D19*
X157975000Y-84605000D03*
X160925000Y-84605000D03*
%TD*%
D20*
%TO.C,J1*%
X134122500Y-95140000D03*
D21*
X134522500Y-95940000D03*
X134522500Y-96740000D03*
D20*
X134122500Y-97540000D03*
D21*
X134522500Y-98340000D03*
X134522500Y-99140000D03*
D20*
X134122500Y-99940000D03*
D21*
X134522500Y-100740000D03*
X134522500Y-101540000D03*
D20*
X134122500Y-102340000D03*
%TD*%
D22*
%TO.C,H2*%
X144472500Y-86040000D03*
X144955774Y-84873274D03*
X144955774Y-87206726D03*
X146122500Y-84390000D03*
D23*
X146122500Y-86040000D03*
D22*
X146122500Y-87690000D03*
X147289226Y-84873274D03*
X147289226Y-87206726D03*
X147772500Y-86040000D03*
%TD*%
%TO.C,H1*%
X144472500Y-111040000D03*
X144955774Y-109873274D03*
X144955774Y-112206726D03*
X146122500Y-109390000D03*
D23*
X146122500Y-111040000D03*
D22*
X146122500Y-112690000D03*
X147289226Y-109873274D03*
X147289226Y-112206726D03*
X147772500Y-111040000D03*
%TD*%
M02*
