%TF.GenerationSoftware,KiCad,Pcbnew,9.0.7*%
%TF.CreationDate,2026-03-30T09:29:02+01:00*%
%TF.ProjectId,hexpansion-L80,68657870-616e-4736-996f-6e2d4c38302e,rev?*%
%TF.SameCoordinates,Original*%
%TF.FileFunction,Copper,L1,Top*%
%TF.FilePolarity,Positive*%
%FSLAX46Y46*%
G04 Gerber Fmt 4.6, Leading zero omitted, Abs format (unit mm)*
G04 Created by KiCad (PCBNEW 9.0.7) date 2026-03-30 09:29:02*
%MOMM*%
%LPD*%
G01*
G04 APERTURE LIST*
G04 Aperture macros list*
%AMRoundRect*
0 Rectangle with rounded corners*
0 $1 Rounding radius*
0 $2 $3 $4 $5 $6 $7 $8 $9 X,Y pos of 4 corners*
0 Add a 4 corners polygon primitive as box body*
4,1,4,$2,$3,$4,$5,$6,$7,$8,$9,$2,$3,0*
0 Add four circle primitives for the rounded corners*
1,1,$1+$1,$2,$3*
1,1,$1+$1,$4,$5*
1,1,$1+$1,$6,$7*
1,1,$1+$1,$8,$9*
0 Add four rect primitives between the rounded corners*
20,1,$1+$1,$2,$3,$4,$5,0*
20,1,$1+$1,$4,$5,$6,$7,0*
20,1,$1+$1,$6,$7,$8,$9,0*
20,1,$1+$1,$8,$9,$2,$3,0*%
G04 Aperture macros list end*
%TA.AperFunction,SMDPad,CuDef*%
%ADD10RoundRect,0.218750X-0.218750X-0.256250X0.218750X-0.256250X0.218750X0.256250X-0.218750X0.256250X0*%
%TD*%
%TA.AperFunction,SMDPad,CuDef*%
%ADD11RoundRect,0.135000X0.135000X0.185000X-0.135000X0.185000X-0.135000X-0.185000X0.135000X-0.185000X0*%
%TD*%
%TA.AperFunction,SMDPad,CuDef*%
%ADD12RoundRect,0.135000X-0.135000X-0.185000X0.135000X-0.185000X0.135000X0.185000X-0.135000X0.185000X0*%
%TD*%
%TA.AperFunction,SMDPad,CuDef*%
%ADD13RoundRect,0.140000X-0.170000X0.140000X-0.170000X-0.140000X0.170000X-0.140000X0.170000X0.140000X0*%
%TD*%
%TA.AperFunction,SMDPad,CuDef*%
%ADD14R,1.550000X0.600000*%
%TD*%
%TA.AperFunction,SMDPad,CuDef*%
%ADD15R,1.600000X0.600000*%
%TD*%
%TA.AperFunction,SMDPad,CuDef*%
%ADD16O,1.000000X2.500000*%
%TD*%
%TA.AperFunction,SMDPad,CuDef*%
%ADD17RoundRect,0.150000X-0.150000X0.587500X-0.150000X-0.587500X0.150000X-0.587500X0.150000X0.587500X0*%
%TD*%
%TA.AperFunction,SMDPad,CuDef*%
%ADD18RoundRect,0.250000X0.250000X-0.275000X0.250000X0.275000X-0.250000X0.275000X-0.250000X-0.275000X0*%
%TD*%
%TA.AperFunction,SMDPad,CuDef*%
%ADD19RoundRect,0.250000X0.275000X-0.850000X0.275000X0.850000X-0.275000X0.850000X-0.275000X-0.850000X0*%
%TD*%
%TA.AperFunction,SMDPad,CuDef*%
%ADD20RoundRect,0.150000X1.600000X0.150000X-1.600000X0.150000X-1.600000X-0.150000X1.600000X-0.150000X0*%
%TD*%
%TA.AperFunction,SMDPad,CuDef*%
%ADD21RoundRect,0.150000X1.200000X0.150000X-1.200000X0.150000X-1.200000X-0.150000X1.200000X-0.150000X0*%
%TD*%
%TA.AperFunction,ComponentPad*%
%ADD22C,0.700000*%
%TD*%
%TA.AperFunction,ComponentPad*%
%ADD23C,4.400000*%
%TD*%
%TA.AperFunction,ViaPad*%
%ADD24C,0.800000*%
%TD*%
%TA.AperFunction,Conductor*%
%ADD25C,0.250000*%
%TD*%
%TA.AperFunction,Conductor*%
%ADD26C,0.500000*%
%TD*%
G04 APERTURE END LIST*
D10*
%TO.P,D1,1,K*%
%TO.N,/LS_C*%
X168862500Y-84900000D03*
%TO.P,D1,2,A*%
%TO.N,Net-(D1-A)*%
X170437500Y-84900000D03*
%TD*%
%TO.P,D2,1,K*%
%TO.N,/LS_D*%
X168862500Y-83300000D03*
%TO.P,D2,2,A*%
%TO.N,Net-(D2-A)*%
X170437500Y-83300000D03*
%TD*%
D11*
%TO.P,R3,1*%
%TO.N,/GND*%
X172610000Y-84900000D03*
%TO.P,R3,2*%
%TO.N,Net-(D1-A)*%
X171590000Y-84900000D03*
%TD*%
D12*
%TO.P,R6,1*%
%TO.N,/3V3*%
X152150000Y-111400000D03*
%TO.P,R6,2*%
%TO.N,/SDA*%
X153170000Y-111400000D03*
%TD*%
%TO.P,R5,1*%
%TO.N,/3V3*%
X152140000Y-112650000D03*
%TO.P,R5,2*%
%TO.N,/SCL*%
X153160000Y-112650000D03*
%TD*%
D11*
%TO.P,R4,1*%
%TO.N,/GND*%
X172610000Y-83300000D03*
%TO.P,R4,2*%
%TO.N,Net-(D2-A)*%
X171590000Y-83300000D03*
%TD*%
D12*
%TO.P,R2,1*%
%TO.N,/HS_H*%
X163340000Y-82000000D03*
%TO.P,R2,2*%
%TO.N,Net-(Q1-B)*%
X164360000Y-82000000D03*
%TD*%
%TO.P,R1,1*%
%TO.N,Net-(Q1-B)*%
X165210000Y-82000000D03*
%TO.P,R1,2*%
%TO.N,/GND*%
X166230000Y-82000000D03*
%TD*%
D13*
%TO.P,C2,1*%
%TO.N,/3V3*%
X165850000Y-110320000D03*
%TO.P,C2,2*%
%TO.N,/GND*%
X165850000Y-111280000D03*
%TD*%
%TO.P,C1,2*%
%TO.N,/GND*%
X167050000Y-111230000D03*
%TO.P,C1,1*%
%TO.N,/3V3*%
X167050000Y-110270000D03*
%TD*%
%TO.P,C3,1*%
%TO.N,/3V3*%
X164550000Y-110320000D03*
%TO.P,C3,2*%
%TO.N,/GND*%
X164550000Y-111280000D03*
%TD*%
D14*
%TO.P,U2,2,E1*%
%TO.N,Net-(JP3-C)*%
X160600000Y-113935000D03*
%TO.P,U2,7,~{WC}*%
%TO.N,/GND*%
X155200000Y-113935000D03*
D15*
%TO.P,U2,1,E0*%
%TO.N,Net-(JP2-C)*%
X160600000Y-115205000D03*
D14*
%TO.P,U2,3,E2*%
%TO.N,Net-(JP4-C)*%
X160600000Y-112665000D03*
%TO.P,U2,4,VSS*%
%TO.N,/GND*%
X160600000Y-111395000D03*
%TO.P,U2,8,VCC*%
%TO.N,/3V3*%
X155200000Y-115205000D03*
%TO.P,U2,6,SCL*%
%TO.N,/SCL*%
X155200000Y-112665000D03*
%TO.P,U2,5,SDA*%
%TO.N,/SDA*%
X155200000Y-111395000D03*
%TD*%
D16*
%TO.P,U1,3,GND*%
%TO.N,/GND*%
X161980000Y-106450000D03*
%TO.P,U1,10,RESET*%
%TO.N,Net-(Q1-C)*%
X161980000Y-90950000D03*
%TO.P,U1,4,VCC*%
%TO.N,/3V3*%
X164520000Y-106450000D03*
%TO.P,U1,2,TXD1*%
%TO.N,/HS_G*%
X159440000Y-106450000D03*
%TO.P,U1,1,RXD1*%
%TO.N,/HS_F*%
X156900000Y-106450000D03*
%TO.P,U1,5,V_BCKP*%
%TO.N,/3V3*%
X167060000Y-106450000D03*
%TO.P,U1,6,1PPS*%
%TO.N,/HS_I*%
X169600000Y-106450000D03*
%TO.P,U1,11,EX_ANT*%
%TO.N,Net-(J2-In)*%
X159440000Y-90950000D03*
%TO.P,U1,12,GND__1*%
%TO.N,/GND*%
X156900000Y-90950000D03*
%TO.P,U1,9,NC*%
%TO.N,unconnected-(U1-NC-Pad9)*%
X164520000Y-90950000D03*
%TO.P,U1,8,AADET_N*%
%TO.N,unconnected-(U1-AADET_N-Pad8)*%
X167060000Y-90950000D03*
%TO.P,U1,7,TIMER*%
%TO.N,unconnected-(U1-TIMER-Pad7)*%
X169600000Y-90950000D03*
%TD*%
D17*
%TO.P,Q1,1,B*%
%TO.N,Net-(Q1-B)*%
X165500000Y-83925000D03*
%TO.P,Q1,2,E*%
%TO.N,/GND*%
X163600000Y-83925000D03*
%TO.P,Q1,3,C*%
%TO.N,Net-(Q1-C)*%
X164550000Y-85800000D03*
%TD*%
D18*
%TO.P,J2,1,In*%
%TO.N,Net-(J2-In)*%
X159450000Y-86130000D03*
D19*
%TO.P,J2,2,Ext*%
%TO.N,/GND*%
X157975000Y-84605000D03*
X160925000Y-84605000D03*
%TD*%
D20*
%TO.P,J1,11,GND*%
%TO.N,/GND*%
X134122500Y-95140000D03*
D21*
%TO.P,J1,12,HS_F*%
%TO.N,/HS_F*%
X134522500Y-95940000D03*
%TO.P,J1,13,HS_G*%
%TO.N,/HS_G*%
X134522500Y-96740000D03*
D20*
%TO.P,J1,14,GND*%
%TO.N,/GND*%
X134122500Y-97540000D03*
D21*
%TO.P,J1,15,3V3*%
%TO.N,/3V3*%
X134522500Y-98340000D03*
%TO.P,J1,16,3V3*%
X134522500Y-99140000D03*
D20*
%TO.P,J1,17,GND*%
%TO.N,/GND*%
X134122500Y-99940000D03*
D21*
%TO.P,J1,18,HS_H*%
%TO.N,/HS_H*%
X134522500Y-100740000D03*
%TO.P,J1,19,HS_I*%
%TO.N,/HS_I*%
X134522500Y-101540000D03*
D20*
%TO.P,J1,20,GND*%
%TO.N,/GND*%
X134122500Y-102340000D03*
%TD*%
D22*
%TO.P,H2,1,1*%
%TO.N,/GND*%
X144472500Y-86040000D03*
X144955774Y-84873274D03*
X144955774Y-87206726D03*
X146122500Y-84390000D03*
D23*
X146122500Y-86040000D03*
D22*
X146122500Y-87690000D03*
X147289226Y-84873274D03*
X147289226Y-87206726D03*
X147772500Y-86040000D03*
%TD*%
%TO.P,H1,1,1*%
%TO.N,/GND*%
X144472500Y-111040000D03*
X144955774Y-109873274D03*
X144955774Y-112206726D03*
X146122500Y-109390000D03*
D23*
X146122500Y-111040000D03*
D22*
X146122500Y-112690000D03*
X147289226Y-109873274D03*
X147289226Y-112206726D03*
X147772500Y-111040000D03*
%TD*%
D24*
%TO.N,/GND*%
X150350000Y-106250000D03*
X140150000Y-100600000D03*
X140450000Y-97500000D03*
X152700000Y-81750000D03*
X169150000Y-81750000D03*
X172300000Y-87250000D03*
X167000000Y-87050000D03*
X148850000Y-94800000D03*
X151150000Y-114000000D03*
X162850000Y-112000000D03*
X165800000Y-108800000D03*
X152650000Y-88200000D03*
X153500000Y-94950000D03*
X161900000Y-102300000D03*
X163100000Y-108350000D03*
X163100000Y-104450000D03*
%TO.N,/3V3*%
X153800000Y-115200000D03*
%TO.N,/GND*%
X158100000Y-114050000D03*
X158100000Y-110600000D03*
X158450000Y-88050000D03*
X160450000Y-88050000D03*
X160450000Y-88750000D03*
X160450000Y-87400000D03*
X158450000Y-88800000D03*
X158450000Y-87400000D03*
X151900000Y-99200000D03*
%TO.N,/3V3*%
X154100000Y-105600000D03*
%TO.N,/LS_D*%
X169150000Y-86650000D03*
%TO.N,/LS_C*%
X170250000Y-86650000D03*
%TO.N,/HS_I*%
X148750000Y-105100000D03*
X169600000Y-108900000D03*
%TO.N,/SCL*%
X151450000Y-104200000D03*
%TO.N,/SDA*%
X152850000Y-110474000D03*
%TO.N,/HS_H*%
X151000000Y-94950000D03*
X148812653Y-101587347D03*
%TO.N,Net-(JP2-C)*%
X159250000Y-115205000D03*
%TO.N,Net-(JP3-C)*%
X159250000Y-113935000D03*
%TO.N,Net-(JP4-C)*%
X159250000Y-112665000D03*
%TO.N,/GND*%
X139872500Y-104040000D03*
X139872500Y-92790000D03*
%TD*%
D25*
%TO.N,Net-(D1-A)*%
X170437500Y-84900000D02*
X171590000Y-84900000D01*
%TO.N,/3V3*%
X152140000Y-112650000D02*
X152150000Y-112640000D01*
X152150000Y-112640000D02*
X152150000Y-111400000D01*
X152150000Y-111400000D02*
X152150000Y-111210000D01*
X151950000Y-111010000D02*
X151950000Y-110040000D01*
X152150000Y-111210000D02*
X151950000Y-111010000D01*
X151950000Y-110040000D02*
X152340000Y-109650000D01*
%TO.N,/SCL*%
X151450000Y-104200000D02*
X151450000Y-113274000D01*
X153160000Y-113040000D02*
X153160000Y-112650000D01*
X151450000Y-113274000D02*
X151450720Y-113274000D01*
X151450720Y-113274000D02*
X151576720Y-113400000D01*
X151576720Y-113400000D02*
X152800000Y-113400000D01*
X152800000Y-113400000D02*
X153160000Y-113040000D01*
X153160000Y-112650000D02*
X155185000Y-112650000D01*
X155185000Y-112650000D02*
X155200000Y-112665000D01*
%TO.N,/LS_C*%
X170250000Y-86650000D02*
X170277500Y-86622500D01*
X170277500Y-86622500D02*
X170277500Y-86027500D01*
X169150000Y-85300000D02*
X169132500Y-85282500D01*
X170277500Y-86027500D02*
X169850000Y-85600000D01*
X169850000Y-85600000D02*
X169400000Y-85600000D01*
X169400000Y-85600000D02*
X169150000Y-85350000D01*
X169132500Y-85282500D02*
X169132500Y-85070000D01*
X169132500Y-85070000D02*
X168862500Y-84800000D01*
X169150000Y-85350000D02*
X169150000Y-85300000D01*
%TO.N,Net-(D2-A)*%
X170437500Y-83300000D02*
X171590000Y-83300000D01*
%TO.N,/LS_D*%
X169115000Y-83300000D02*
X168300000Y-83300000D01*
X167850000Y-83750000D02*
X167850000Y-85350000D01*
X167850000Y-85350000D02*
X169150000Y-86650000D01*
X168300000Y-83300000D02*
X167850000Y-83750000D01*
%TO.N,Net-(Q1-B)*%
X165500000Y-83925000D02*
X165500000Y-82750000D01*
X165500000Y-82750000D02*
X165200000Y-82450000D01*
X165200000Y-82450000D02*
X165200000Y-82010000D01*
X165200000Y-82010000D02*
X165210000Y-82000000D01*
%TO.N,Net-(Q1-C)*%
X161980000Y-90950000D02*
X161980000Y-89120000D01*
X161980000Y-89120000D02*
X162800000Y-88300000D01*
X162800000Y-88300000D02*
X163850000Y-88300000D01*
X164550000Y-87600000D02*
X164550000Y-85800000D01*
X163850000Y-88300000D02*
X164550000Y-87600000D01*
%TO.N,Net-(Q1-B)*%
X165210000Y-82000000D02*
X164550000Y-82000000D01*
%TO.N,/HS_H*%
X151000000Y-94950000D02*
X151000000Y-87350000D01*
X156350000Y-82000000D02*
X163340000Y-82000000D01*
X151000000Y-87350000D02*
X156350000Y-82000000D01*
%TO.N,/GND*%
X134122500Y-99940000D02*
X139490000Y-99940000D01*
X139490000Y-99940000D02*
X140150000Y-100600000D01*
%TO.N,/HS_I*%
X148750000Y-105100000D02*
X148700000Y-105100000D01*
X148700000Y-105100000D02*
X145650000Y-102050000D01*
X139400000Y-102050000D02*
X138890000Y-101540000D01*
X145650000Y-102050000D02*
X139400000Y-102050000D01*
X138890000Y-101540000D02*
X134522500Y-101540000D01*
%TO.N,/HS_H*%
X148812653Y-101587347D02*
X147312653Y-101587347D01*
X139586810Y-101599000D02*
X138737810Y-100750000D01*
X147312653Y-101587347D02*
X147301000Y-101599000D01*
X147301000Y-101599000D02*
X139586810Y-101599000D01*
X134532500Y-100750000D02*
X134522500Y-100740000D01*
X138737810Y-100750000D02*
X134532500Y-100750000D01*
%TO.N,/HS_G*%
X159440000Y-106450000D02*
X159440000Y-104840000D01*
X159440000Y-104840000D02*
X151340000Y-96740000D01*
X151340000Y-96740000D02*
X134522500Y-96740000D01*
%TO.N,/HS_F*%
X156900000Y-106450000D02*
X156900000Y-107900000D01*
X160250000Y-108350000D02*
X160700000Y-107900000D01*
X157350000Y-108350000D02*
X160250000Y-108350000D01*
X156900000Y-107900000D02*
X157350000Y-108350000D01*
X151550000Y-95950000D02*
X135759822Y-95950000D01*
X160700000Y-107900000D02*
X160700000Y-105100000D01*
X160700000Y-105100000D02*
X151550000Y-95950000D01*
X135749822Y-95940000D02*
X134522500Y-95940000D01*
X135759822Y-95950000D02*
X135749822Y-95940000D01*
%TO.N,/GND*%
X134122500Y-97540000D02*
X140410000Y-97540000D01*
X140410000Y-97540000D02*
X140450000Y-97500000D01*
%TO.N,/SDA*%
X152980000Y-110720000D02*
X152980000Y-111400000D01*
X152850000Y-110590000D02*
X152980000Y-110720000D01*
X152850000Y-110474000D02*
X152850000Y-110590000D01*
%TO.N,/3V3*%
X153805000Y-115205000D02*
X153800000Y-115200000D01*
D26*
X155200000Y-115205000D02*
X153805000Y-115205000D01*
X154100000Y-105600000D02*
X154100000Y-109624000D01*
X164550000Y-109624000D02*
X154100000Y-109624000D01*
D25*
%TO.N,Net-(JP2-C)*%
X159250000Y-115205000D02*
X160600000Y-115205000D01*
%TO.N,Net-(JP3-C)*%
X159250000Y-113935000D02*
X160600000Y-113935000D01*
%TO.N,Net-(JP4-C)*%
X159250000Y-112665000D02*
X160600000Y-112665000D01*
%TO.N,/3V3*%
X164550000Y-110320000D02*
X164550000Y-109624000D01*
D26*
X154100000Y-109624000D02*
X152366000Y-109624000D01*
D25*
X152366000Y-109624000D02*
X152340000Y-109650000D01*
%TO.N,/GND*%
X134122500Y-102340000D02*
X138190000Y-102340000D01*
X138190000Y-102340000D02*
X138200000Y-102350000D01*
X138290000Y-95140000D02*
X138300000Y-95150000D01*
X134122500Y-95140000D02*
X138290000Y-95140000D01*
X134132500Y-95150000D02*
X134122500Y-95140000D01*
%TO.N,/HS_I*%
X169600000Y-106450000D02*
X169600000Y-108900000D01*
D26*
%TO.N,/3V3*%
X152340000Y-109650000D02*
X152340000Y-102040000D01*
X152340000Y-102040000D02*
X149440000Y-99140000D01*
X149440000Y-99140000D02*
X134522500Y-99140000D01*
D25*
%TO.N,/SDA*%
X152980000Y-111400000D02*
X155195000Y-111400000D01*
X155195000Y-111400000D02*
X155200000Y-111395000D01*
D26*
%TO.N,/3V3*%
X164550000Y-110320000D02*
X165850000Y-110320000D01*
X164550000Y-110320000D02*
X164550000Y-106480000D01*
D25*
X164550000Y-106480000D02*
X164520000Y-106450000D01*
D26*
X165850000Y-110320000D02*
X167000000Y-110320000D01*
D25*
X167000000Y-110320000D02*
X167050000Y-110270000D01*
D26*
X167050000Y-110270000D02*
X167050000Y-106460000D01*
D25*
X167050000Y-106460000D02*
X167060000Y-106450000D01*
D26*
%TO.N,Net-(J2-In)*%
X159450000Y-86130000D02*
X159450000Y-90940000D01*
D25*
X159450000Y-90940000D02*
X159440000Y-90950000D01*
%TO.N,/3V3*%
X134522500Y-98340000D02*
X134522500Y-99140000D01*
%TD*%
%TA.AperFunction,Conductor*%
%TO.N,/GND*%
G36*
X172705385Y-80350971D02*
G01*
X172851567Y-80363760D01*
X172864907Y-80365665D01*
X172894247Y-80371501D01*
X172902109Y-80373334D01*
X173026922Y-80406777D01*
X173042275Y-80411989D01*
X173059224Y-80419009D01*
X173064134Y-80421169D01*
X173189918Y-80479823D01*
X173208633Y-80490629D01*
X173333582Y-80578119D01*
X173350140Y-80592013D01*
X173457986Y-80699859D01*
X173471880Y-80716417D01*
X173559370Y-80841366D01*
X173570177Y-80860084D01*
X173628809Y-80985819D01*
X173630989Y-80990774D01*
X173638009Y-81007723D01*
X173643222Y-81023080D01*
X173676659Y-81147869D01*
X173678501Y-81155769D01*
X173684330Y-81185071D01*
X173686241Y-81198456D01*
X173699028Y-81344605D01*
X173699500Y-81355413D01*
X173699500Y-115744586D01*
X173699028Y-115755394D01*
X173686241Y-115901542D01*
X173684330Y-115914927D01*
X173678501Y-115944229D01*
X173676659Y-115952129D01*
X173643222Y-116076918D01*
X173638009Y-116092275D01*
X173630989Y-116109224D01*
X173628809Y-116114179D01*
X173570177Y-116239915D01*
X173559370Y-116258633D01*
X173471880Y-116383582D01*
X173457986Y-116400140D01*
X173350140Y-116507986D01*
X173333582Y-116521880D01*
X173208633Y-116609370D01*
X173189915Y-116620177D01*
X173064179Y-116678809D01*
X173059224Y-116680989D01*
X173042275Y-116688009D01*
X173026919Y-116693222D01*
X172902123Y-116726661D01*
X172894217Y-116728504D01*
X172864929Y-116734329D01*
X172851549Y-116736239D01*
X172705461Y-116749021D01*
X172694524Y-116749493D01*
X150153956Y-116726054D01*
X150095060Y-116711104D01*
X147329626Y-115214268D01*
X147329625Y-115214268D01*
X147139397Y-115111304D01*
X152899500Y-115111304D01*
X152899500Y-115288695D01*
X152934103Y-115462658D01*
X152934106Y-115462667D01*
X153001983Y-115626540D01*
X153001990Y-115626553D01*
X153100535Y-115774034D01*
X153100538Y-115774038D01*
X153225961Y-115899461D01*
X153225965Y-115899464D01*
X153373446Y-115998009D01*
X153373459Y-115998016D01*
X153496363Y-116048923D01*
X153537334Y-116065894D01*
X153537336Y-116065894D01*
X153537341Y-116065896D01*
X153711304Y-116100499D01*
X153711307Y-116100500D01*
X153711309Y-116100500D01*
X153888693Y-116100500D01*
X153888694Y-116100499D01*
X153946682Y-116088964D01*
X154062658Y-116065896D01*
X154062661Y-116065894D01*
X154062666Y-116065894D01*
X154223208Y-115999395D01*
X154292676Y-115991927D01*
X154313987Y-115997774D01*
X154317517Y-115999091D01*
X154377127Y-116005500D01*
X156022872Y-116005499D01*
X156082483Y-115999091D01*
X156217331Y-115948796D01*
X156332546Y-115862546D01*
X156418796Y-115747331D01*
X156469091Y-115612483D01*
X156475500Y-115552873D01*
X156475499Y-114857128D01*
X156469091Y-114797517D01*
X156460116Y-114773453D01*
X156418797Y-114662670D01*
X156418796Y-114662669D01*
X156404741Y-114643894D01*
X156380323Y-114578432D01*
X156395173Y-114510159D01*
X156404742Y-114495270D01*
X156418351Y-114477091D01*
X156468597Y-114342376D01*
X156468598Y-114342372D01*
X156474999Y-114282844D01*
X156475000Y-114282827D01*
X156475000Y-114185000D01*
X153925000Y-114185000D01*
X153921050Y-114188949D01*
X153905315Y-114242539D01*
X153852511Y-114288294D01*
X153801000Y-114299500D01*
X153711306Y-114299500D01*
X153537341Y-114334103D01*
X153537332Y-114334106D01*
X153373459Y-114401983D01*
X153373446Y-114401990D01*
X153225965Y-114500535D01*
X153225961Y-114500538D01*
X153100538Y-114625961D01*
X153100535Y-114625965D01*
X153001990Y-114773446D01*
X153001983Y-114773459D01*
X152934106Y-114937332D01*
X152934103Y-114937341D01*
X152899500Y-115111304D01*
X147139397Y-115111304D01*
X143456961Y-113118127D01*
X139532486Y-110993942D01*
X139337432Y-110888366D01*
X143422500Y-110888366D01*
X143422500Y-111191633D01*
X143456452Y-111492966D01*
X143456454Y-111492982D01*
X143523934Y-111788633D01*
X143523938Y-111788645D01*
X143624092Y-112074866D01*
X143624098Y-112074880D01*
X143755672Y-112348096D01*
X143917015Y-112604872D01*
X144044371Y-112764573D01*
X144641999Y-112166944D01*
X144755774Y-112166944D01*
X144755774Y-112246508D01*
X144786222Y-112320017D01*
X144842483Y-112376278D01*
X144915992Y-112406726D01*
X144995556Y-112406726D01*
X145069065Y-112376278D01*
X145125326Y-112320017D01*
X145155774Y-112246508D01*
X145155774Y-112166944D01*
X145125326Y-112093435D01*
X145069065Y-112037174D01*
X144995556Y-112006726D01*
X144915992Y-112006726D01*
X144842483Y-112037174D01*
X144786222Y-112093435D01*
X144755774Y-112166944D01*
X144641999Y-112166944D01*
X145186208Y-111622735D01*
X145283467Y-111756602D01*
X145405898Y-111879033D01*
X145539762Y-111976290D01*
X144397925Y-113118127D01*
X144557627Y-113245484D01*
X144814403Y-113406827D01*
X145087619Y-113538401D01*
X145087633Y-113538407D01*
X145373854Y-113638561D01*
X145373866Y-113638565D01*
X145669517Y-113706045D01*
X145669533Y-113706047D01*
X145970866Y-113739999D01*
X145970868Y-113740000D01*
X146274132Y-113740000D01*
X146274133Y-113739999D01*
X146575466Y-113706047D01*
X146575482Y-113706045D01*
X146871133Y-113638565D01*
X146871145Y-113638561D01*
X147157366Y-113538407D01*
X147157380Y-113538401D01*
X147430596Y-113406827D01*
X147687372Y-113245484D01*
X147847073Y-113118126D01*
X146895891Y-112166944D01*
X147089226Y-112166944D01*
X147089226Y-112246508D01*
X147119674Y-112320017D01*
X147175935Y-112376278D01*
X147249444Y-112406726D01*
X147329008Y-112406726D01*
X147402517Y-112376278D01*
X147458778Y-112320017D01*
X147489226Y-112246508D01*
X147489226Y-112166944D01*
X147458778Y-112093435D01*
X147402517Y-112037174D01*
X147329008Y-112006726D01*
X147249444Y-112006726D01*
X147175935Y-112037174D01*
X147119674Y-112093435D01*
X147089226Y-112166944D01*
X146895891Y-112166944D01*
X146705237Y-111976290D01*
X146839102Y-111879033D01*
X146961533Y-111756602D01*
X147058790Y-111622737D01*
X148200626Y-112764573D01*
X148327984Y-112604872D01*
X148489327Y-112348096D01*
X148620901Y-112074880D01*
X148620907Y-112074866D01*
X148721061Y-111788645D01*
X148721065Y-111788633D01*
X148788545Y-111492982D01*
X148788547Y-111492966D01*
X148822499Y-111191633D01*
X148822500Y-111191631D01*
X148822500Y-110888368D01*
X148822499Y-110888366D01*
X148788547Y-110587033D01*
X148788545Y-110587017D01*
X148721065Y-110291366D01*
X148721061Y-110291354D01*
X148620907Y-110005133D01*
X148620901Y-110005119D01*
X148489327Y-109731903D01*
X148327984Y-109475127D01*
X148200627Y-109315425D01*
X147058790Y-110457262D01*
X146961533Y-110323398D01*
X146839102Y-110200967D01*
X146705236Y-110103709D01*
X146975453Y-109833492D01*
X147089226Y-109833492D01*
X147089226Y-109913056D01*
X147119674Y-109986565D01*
X147175935Y-110042826D01*
X147249444Y-110073274D01*
X147329008Y-110073274D01*
X147402517Y-110042826D01*
X147458778Y-109986565D01*
X147489226Y-109913056D01*
X147489226Y-109833492D01*
X147458778Y-109759983D01*
X147402517Y-109703722D01*
X147329008Y-109673274D01*
X147249444Y-109673274D01*
X147175935Y-109703722D01*
X147119674Y-109759983D01*
X147089226Y-109833492D01*
X146975453Y-109833492D01*
X147847073Y-108961871D01*
X147687372Y-108834515D01*
X147430596Y-108673172D01*
X147157380Y-108541598D01*
X147157366Y-108541592D01*
X146871145Y-108441438D01*
X146871133Y-108441434D01*
X146575482Y-108373954D01*
X146575466Y-108373952D01*
X146274133Y-108340000D01*
X145970866Y-108340000D01*
X145669533Y-108373952D01*
X145669517Y-108373954D01*
X145373866Y-108441434D01*
X145373854Y-108441438D01*
X145087633Y-108541592D01*
X145087619Y-108541598D01*
X144814403Y-108673172D01*
X144557627Y-108834515D01*
X144397925Y-108961871D01*
X145539763Y-110103709D01*
X145405898Y-110200967D01*
X145283467Y-110323398D01*
X145186209Y-110457263D01*
X144562438Y-109833492D01*
X144755774Y-109833492D01*
X144755774Y-109913056D01*
X144786222Y-109986565D01*
X144842483Y-110042826D01*
X144915992Y-110073274D01*
X144995556Y-110073274D01*
X145069065Y-110042826D01*
X145125326Y-109986565D01*
X145155774Y-109913056D01*
X145155774Y-109833492D01*
X145125326Y-109759983D01*
X145069065Y-109703722D01*
X144995556Y-109673274D01*
X144915992Y-109673274D01*
X144842483Y-109703722D01*
X144786222Y-109759983D01*
X144755774Y-109833492D01*
X144562438Y-109833492D01*
X144044371Y-109315425D01*
X143917015Y-109475127D01*
X143755672Y-109731903D01*
X143624098Y-110005119D01*
X143624092Y-110005133D01*
X143523938Y-110291354D01*
X143523934Y-110291366D01*
X143456454Y-110587017D01*
X143456452Y-110587033D01*
X143422500Y-110888366D01*
X139337432Y-110888366D01*
X136069175Y-109119369D01*
X136069174Y-109119369D01*
X134128996Y-108069216D01*
X134116918Y-108061753D01*
X133995914Y-107977034D01*
X133984072Y-107967616D01*
X133962993Y-107948637D01*
X133958296Y-107944181D01*
X133864496Y-107850386D01*
X133850601Y-107833827D01*
X133849848Y-107832751D01*
X133763112Y-107708882D01*
X133752313Y-107690178D01*
X133687845Y-107551923D01*
X133680455Y-107531615D01*
X133669759Y-107491693D01*
X133646129Y-107403490D01*
X133644614Y-107397181D01*
X133638722Y-107369456D01*
X133636488Y-107354503D01*
X133623471Y-107205640D01*
X133623000Y-107194839D01*
X133623000Y-104799760D01*
X133624526Y-104780364D01*
X133625528Y-104774038D01*
X133632139Y-104732293D01*
X133644124Y-104695406D01*
X133661737Y-104660839D01*
X133684533Y-104629464D01*
X133711964Y-104602033D01*
X133743339Y-104579237D01*
X133777906Y-104561624D01*
X133814793Y-104549639D01*
X133862865Y-104542025D01*
X133882260Y-104540500D01*
X138191495Y-104540500D01*
X138282541Y-104522389D01*
X138326828Y-104513580D01*
X138350876Y-104503618D01*
X138354427Y-104502809D01*
X138364226Y-104498089D01*
X138454311Y-104460775D01*
X138486831Y-104439045D01*
X138496101Y-104434582D01*
X138509478Y-104423913D01*
X138569042Y-104384114D01*
X138607070Y-104346085D01*
X138619041Y-104336541D01*
X138628588Y-104324567D01*
X138666614Y-104286542D01*
X138706413Y-104226978D01*
X138717082Y-104213601D01*
X138721545Y-104204331D01*
X138743275Y-104171811D01*
X138780589Y-104081726D01*
X138785309Y-104071927D01*
X138786118Y-104068376D01*
X138796080Y-104044328D01*
X138823000Y-103908993D01*
X138823000Y-103840000D01*
X138823000Y-103839500D01*
X138823000Y-103771007D01*
X138823000Y-103771004D01*
X138796081Y-103635678D01*
X138796080Y-103635674D01*
X138796080Y-103635672D01*
X138786119Y-103611624D01*
X138785309Y-103608073D01*
X138780584Y-103598263D01*
X138743275Y-103508189D01*
X138743275Y-103508188D01*
X138726387Y-103482915D01*
X138726387Y-103482914D01*
X138721546Y-103475670D01*
X138717082Y-103466399D01*
X138706408Y-103453014D01*
X138666614Y-103393458D01*
X138666612Y-103393455D01*
X138666610Y-103393453D01*
X138633521Y-103360365D01*
X138628593Y-103355437D01*
X138619041Y-103343459D01*
X138607062Y-103333906D01*
X138602134Y-103328978D01*
X138569045Y-103295888D01*
X138569044Y-103295887D01*
X138548834Y-103282383D01*
X138509482Y-103256089D01*
X138496101Y-103245418D01*
X138486832Y-103240954D01*
X138479593Y-103236117D01*
X138479587Y-103236114D01*
X138454314Y-103219227D01*
X138454313Y-103219226D01*
X138454311Y-103219225D01*
X138454308Y-103219223D01*
X138454303Y-103219221D01*
X138367457Y-103183249D01*
X138367452Y-103183247D01*
X138364233Y-103181913D01*
X138354427Y-103177191D01*
X138350880Y-103176381D01*
X138341236Y-103172386D01*
X138341227Y-103172384D01*
X138337373Y-103170788D01*
X138326828Y-103166420D01*
X138326824Y-103166419D01*
X138191495Y-103139500D01*
X138191493Y-103139500D01*
X138122707Y-103139500D01*
X138012301Y-103139500D01*
X137945262Y-103119815D01*
X137899507Y-103067011D01*
X137888304Y-103016362D01*
X137883257Y-102290362D01*
X137902475Y-102223187D01*
X137954960Y-102177066D01*
X138007254Y-102165500D01*
X138579548Y-102165500D01*
X138646587Y-102185185D01*
X138667229Y-102201819D01*
X138914139Y-102448729D01*
X138914142Y-102448733D01*
X139001267Y-102535858D01*
X139078190Y-102587256D01*
X139083990Y-102591132D01*
X139083993Y-102591134D01*
X139103710Y-102604309D01*
X139103712Y-102604310D01*
X139103715Y-102604312D01*
X139170396Y-102631931D01*
X139170398Y-102631933D01*
X139210640Y-102648601D01*
X139217548Y-102651463D01*
X139277971Y-102663481D01*
X139338393Y-102675500D01*
X139338394Y-102675500D01*
X145339548Y-102675500D01*
X145406587Y-102695185D01*
X145427229Y-102711819D01*
X147813181Y-105097771D01*
X147846666Y-105159094D01*
X147849500Y-105185452D01*
X147849500Y-105188695D01*
X147884103Y-105362658D01*
X147884106Y-105362667D01*
X147951983Y-105526540D01*
X147951990Y-105526553D01*
X148050535Y-105674034D01*
X148050538Y-105674038D01*
X148175961Y-105799461D01*
X148175965Y-105799464D01*
X148323446Y-105898009D01*
X148323459Y-105898016D01*
X148446363Y-105948923D01*
X148487334Y-105965894D01*
X148487336Y-105965894D01*
X148487341Y-105965896D01*
X148661304Y-106000499D01*
X148661307Y-106000500D01*
X148661309Y-106000500D01*
X148838693Y-106000500D01*
X148838694Y-106000499D01*
X148896682Y-105988964D01*
X149012658Y-105965896D01*
X149012661Y-105965894D01*
X149012666Y-105965894D01*
X149176547Y-105898013D01*
X149324035Y-105799464D01*
X149449464Y-105674035D01*
X149548013Y-105526547D01*
X149615894Y-105362666D01*
X149620932Y-105337341D01*
X149643063Y-105226079D01*
X149650500Y-105188691D01*
X149650500Y-105011309D01*
X149650500Y-105011306D01*
X149650499Y-105011304D01*
X149615896Y-104837341D01*
X149615893Y-104837332D01*
X149600330Y-104799760D01*
X149573135Y-104734103D01*
X149548016Y-104673459D01*
X149548009Y-104673446D01*
X149449464Y-104525965D01*
X149449461Y-104525961D01*
X149324038Y-104400538D01*
X149324034Y-104400535D01*
X149176553Y-104301990D01*
X149176540Y-104301983D01*
X149012667Y-104234106D01*
X149012658Y-104234103D01*
X148838694Y-104199500D01*
X148838691Y-104199500D01*
X148735453Y-104199500D01*
X148668414Y-104179815D01*
X148647772Y-104163181D01*
X147794197Y-103309606D01*
X146920770Y-102436180D01*
X146887286Y-102374858D01*
X146892270Y-102305166D01*
X146934142Y-102249233D01*
X146999606Y-102224816D01*
X147008452Y-102224500D01*
X147362608Y-102224500D01*
X147362608Y-102224499D01*
X147409211Y-102215229D01*
X147433402Y-102212847D01*
X148113292Y-102212847D01*
X148180331Y-102232532D01*
X148200974Y-102249167D01*
X148238614Y-102286808D01*
X148238618Y-102286811D01*
X148386099Y-102385356D01*
X148386112Y-102385363D01*
X148508800Y-102436181D01*
X148549987Y-102453241D01*
X148549989Y-102453241D01*
X148549994Y-102453243D01*
X148723957Y-102487846D01*
X148723960Y-102487847D01*
X148723962Y-102487847D01*
X148901346Y-102487847D01*
X148901347Y-102487846D01*
X148959335Y-102476311D01*
X149075311Y-102453243D01*
X149075314Y-102453241D01*
X149075319Y-102453241D01*
X149239200Y-102385360D01*
X149386688Y-102286811D01*
X149512117Y-102161382D01*
X149610666Y-102013894D01*
X149678547Y-101850013D01*
X149713153Y-101676038D01*
X149713153Y-101498656D01*
X149713153Y-101498653D01*
X149713152Y-101498651D01*
X149678549Y-101324688D01*
X149678546Y-101324679D01*
X149610669Y-101160806D01*
X149610662Y-101160793D01*
X149512117Y-101013312D01*
X149512114Y-101013308D01*
X149386691Y-100887885D01*
X149386687Y-100887882D01*
X149239206Y-100789337D01*
X149239193Y-100789330D01*
X149075320Y-100721453D01*
X149075311Y-100721450D01*
X148901347Y-100686847D01*
X148901344Y-100686847D01*
X148723962Y-100686847D01*
X148723959Y-100686847D01*
X148549994Y-100721450D01*
X148549985Y-100721453D01*
X148386112Y-100789330D01*
X148386099Y-100789337D01*
X148238618Y-100887882D01*
X148238614Y-100887885D01*
X148200974Y-100925527D01*
X148139652Y-100959013D01*
X148113292Y-100961847D01*
X147251045Y-100961847D01*
X147224649Y-100967097D01*
X147204441Y-100971117D01*
X147180251Y-100973500D01*
X139897262Y-100973500D01*
X139830223Y-100953815D01*
X139809581Y-100937181D01*
X139230960Y-100358560D01*
X139223670Y-100351270D01*
X139223668Y-100351267D01*
X139136543Y-100264142D01*
X139085319Y-100229915D01*
X139034096Y-100195688D01*
X139034093Y-100195686D01*
X139034090Y-100195685D01*
X138960413Y-100165168D01*
X138960411Y-100165167D01*
X138953602Y-100162347D01*
X138920262Y-100148537D01*
X138859839Y-100136518D01*
X138855115Y-100135578D01*
X138850484Y-100134277D01*
X138831124Y-100122151D01*
X138795912Y-100103733D01*
X138792694Y-100098081D01*
X138791270Y-100097190D01*
X138786894Y-100087896D01*
X138761338Y-100043017D01*
X138761790Y-100034580D01*
X138761506Y-100033977D01*
X138762039Y-100029936D01*
X138765077Y-99973247D01*
X138770510Y-99965712D01*
X138770643Y-99964707D01*
X138774645Y-99959977D01*
X138805943Y-99916575D01*
X138814090Y-99913369D01*
X138815779Y-99911374D01*
X138831059Y-99906693D01*
X138870961Y-99890994D01*
X138882014Y-99890500D01*
X149077770Y-99890500D01*
X149144809Y-99910185D01*
X149165451Y-99926819D01*
X151553181Y-102314548D01*
X151586666Y-102375871D01*
X151589500Y-102402229D01*
X151589500Y-103175500D01*
X151569815Y-103242539D01*
X151517011Y-103288294D01*
X151465500Y-103299500D01*
X151361306Y-103299500D01*
X151187341Y-103334103D01*
X151187332Y-103334106D01*
X151023459Y-103401983D01*
X151023446Y-103401990D01*
X150875965Y-103500535D01*
X150875961Y-103500538D01*
X150750538Y-103625961D01*
X150750535Y-103625965D01*
X150651990Y-103773446D01*
X150651983Y-103773459D01*
X150584106Y-103937332D01*
X150584103Y-103937341D01*
X150549500Y-104111304D01*
X150549500Y-104288695D01*
X150584103Y-104462658D01*
X150584106Y-104462667D01*
X150651983Y-104626540D01*
X150651990Y-104626553D01*
X150750535Y-104774034D01*
X150750538Y-104774038D01*
X150788180Y-104811679D01*
X150821666Y-104873001D01*
X150824500Y-104899361D01*
X150824500Y-113335610D01*
X150845828Y-113442833D01*
X150848537Y-113456452D01*
X150852285Y-113465500D01*
X150895687Y-113570283D01*
X150895692Y-113570292D01*
X150964141Y-113672732D01*
X150964144Y-113672736D01*
X151051896Y-113760488D01*
X151059599Y-113767469D01*
X151087736Y-113795606D01*
X151087765Y-113795637D01*
X151177984Y-113885856D01*
X151177987Y-113885858D01*
X151254910Y-113937256D01*
X151280435Y-113954312D01*
X151347117Y-113981932D01*
X151350905Y-113983501D01*
X151350913Y-113983505D01*
X151388147Y-113998927D01*
X151394268Y-114001463D01*
X151402930Y-114003186D01*
X151406961Y-114003988D01*
X151406974Y-114003990D01*
X151406988Y-114003993D01*
X151515111Y-114025499D01*
X151515112Y-114025500D01*
X151515113Y-114025500D01*
X152861608Y-114025500D01*
X152861608Y-114025499D01*
X152969732Y-114003993D01*
X152982452Y-114001463D01*
X153015792Y-113987652D01*
X153096286Y-113954312D01*
X153147509Y-113920084D01*
X153198733Y-113885858D01*
X153285858Y-113798733D01*
X153285859Y-113798731D01*
X153292925Y-113791665D01*
X153292928Y-113791661D01*
X153558729Y-113525860D01*
X153558733Y-113525858D01*
X153645858Y-113438733D01*
X153712778Y-113338580D01*
X153714312Y-113336285D01*
X153714360Y-113336167D01*
X153717549Y-113331324D01*
X153740056Y-113312247D01*
X153760729Y-113291203D01*
X153766726Y-113289643D01*
X153770850Y-113286149D01*
X153789870Y-113283626D01*
X153821125Y-113275500D01*
X153846845Y-113275500D01*
X153913884Y-113295185D01*
X153959639Y-113347989D01*
X153969583Y-113417147D01*
X153963027Y-113442833D01*
X153931403Y-113527620D01*
X153931401Y-113527627D01*
X153925000Y-113587155D01*
X153925000Y-113685000D01*
X156475000Y-113685000D01*
X156475000Y-113587172D01*
X156474999Y-113587155D01*
X156468598Y-113527627D01*
X156468597Y-113527623D01*
X156418351Y-113392908D01*
X156404741Y-113374728D01*
X156380323Y-113309264D01*
X156395174Y-113240991D01*
X156404732Y-113226117D01*
X156418796Y-113207331D01*
X156469091Y-113072483D01*
X156475500Y-113012873D01*
X156475499Y-112576304D01*
X158349500Y-112576304D01*
X158349500Y-112753695D01*
X158384103Y-112927658D01*
X158384106Y-112927667D01*
X158451983Y-113091540D01*
X158451990Y-113091553D01*
X158545239Y-113231109D01*
X158566117Y-113297787D01*
X158547633Y-113365167D01*
X158545239Y-113368891D01*
X158451990Y-113508446D01*
X158451983Y-113508459D01*
X158384106Y-113672332D01*
X158384103Y-113672341D01*
X158349500Y-113846304D01*
X158349500Y-114023695D01*
X158384103Y-114197658D01*
X158384106Y-114197667D01*
X158451983Y-114361540D01*
X158451990Y-114361553D01*
X158545239Y-114501109D01*
X158566117Y-114567787D01*
X158547633Y-114635167D01*
X158545239Y-114638891D01*
X158451990Y-114778446D01*
X158451983Y-114778459D01*
X158384106Y-114942332D01*
X158384103Y-114942341D01*
X158349500Y-115116304D01*
X158349500Y-115293695D01*
X158384103Y-115467658D01*
X158384106Y-115467667D01*
X158451983Y-115631540D01*
X158451990Y-115631553D01*
X158550535Y-115779034D01*
X158550538Y-115779038D01*
X158675961Y-115904461D01*
X158675965Y-115904464D01*
X158823446Y-116003009D01*
X158823459Y-116003016D01*
X158946363Y-116053923D01*
X158987334Y-116070894D01*
X158987336Y-116070894D01*
X158987341Y-116070896D01*
X159161304Y-116105499D01*
X159161307Y-116105500D01*
X159161309Y-116105500D01*
X159338693Y-116105500D01*
X159338694Y-116105499D01*
X159407319Y-116091849D01*
X159512658Y-116070896D01*
X159512661Y-116070894D01*
X159512666Y-116070894D01*
X159658117Y-116010646D01*
X159718822Y-116001919D01*
X159752127Y-116005500D01*
X161447872Y-116005499D01*
X161507483Y-115999091D01*
X161642331Y-115948796D01*
X161757546Y-115862546D01*
X161843796Y-115747331D01*
X161894091Y-115612483D01*
X161900500Y-115552873D01*
X161900499Y-114857128D01*
X161894091Y-114797517D01*
X161843796Y-114662669D01*
X161817551Y-114627610D01*
X161793135Y-114562149D01*
X161807986Y-114493876D01*
X161817554Y-114478989D01*
X161818796Y-114477331D01*
X161869091Y-114342483D01*
X161875500Y-114282873D01*
X161875499Y-113587128D01*
X161869103Y-113527627D01*
X161869091Y-113527516D01*
X161818797Y-113392670D01*
X161818796Y-113392669D01*
X161805365Y-113374728D01*
X161805053Y-113374311D01*
X161780635Y-113308850D01*
X161795485Y-113240576D01*
X161805050Y-113225691D01*
X161818796Y-113207331D01*
X161869091Y-113072483D01*
X161875500Y-113012873D01*
X161875499Y-112317128D01*
X161869091Y-112257517D01*
X161861978Y-112238446D01*
X161818797Y-112122670D01*
X161818796Y-112122669D01*
X161811493Y-112112914D01*
X161804741Y-112103894D01*
X161780323Y-112038432D01*
X161795173Y-111970159D01*
X161804742Y-111955270D01*
X161818351Y-111937091D01*
X161868597Y-111802376D01*
X161868598Y-111802372D01*
X161874999Y-111742844D01*
X161875000Y-111742827D01*
X161875000Y-111645000D01*
X159325000Y-111645000D01*
X159323129Y-111646870D01*
X159305315Y-111707539D01*
X159252511Y-111753294D01*
X159201000Y-111764500D01*
X159161306Y-111764500D01*
X158987341Y-111799103D01*
X158987332Y-111799106D01*
X158823459Y-111866983D01*
X158823446Y-111866990D01*
X158675965Y-111965535D01*
X158675961Y-111965538D01*
X158550538Y-112090961D01*
X158550535Y-112090965D01*
X158451990Y-112238446D01*
X158451983Y-112238459D01*
X158384106Y-112402332D01*
X158384103Y-112402341D01*
X158349500Y-112576304D01*
X156475499Y-112576304D01*
X156475499Y-112317128D01*
X156469091Y-112257517D01*
X156461978Y-112238446D01*
X156418797Y-112122670D01*
X156418796Y-112122669D01*
X156411493Y-112112914D01*
X156405053Y-112104311D01*
X156380635Y-112038850D01*
X156395485Y-111970576D01*
X156405050Y-111955691D01*
X156418796Y-111937331D01*
X156421635Y-111929721D01*
X156440283Y-111879721D01*
X156469091Y-111802483D01*
X156475500Y-111742873D01*
X156475499Y-111530000D01*
X163745496Y-111530000D01*
X163787968Y-111676195D01*
X163870278Y-111815374D01*
X163870285Y-111815383D01*
X163984616Y-111929714D01*
X163984625Y-111929721D01*
X164123804Y-112012031D01*
X164279089Y-112057145D01*
X164300000Y-112058789D01*
X164800000Y-112058789D01*
X164820910Y-112057145D01*
X164976195Y-112012031D01*
X165115374Y-111929721D01*
X165121544Y-111924936D01*
X165123075Y-111926909D01*
X165173617Y-111899298D01*
X165243310Y-111904268D01*
X165277462Y-111926217D01*
X165278456Y-111924936D01*
X165284625Y-111929721D01*
X165423804Y-112012031D01*
X165579089Y-112057145D01*
X165600000Y-112058789D01*
X166100000Y-112058789D01*
X166120910Y-112057145D01*
X166276195Y-112012031D01*
X166422093Y-111925748D01*
X166422744Y-111926850D01*
X166480345Y-111904229D01*
X166548864Y-111917902D01*
X166554443Y-111921010D01*
X166623806Y-111962032D01*
X166779089Y-112007145D01*
X166800000Y-112008789D01*
X167300000Y-112008789D01*
X167320910Y-112007145D01*
X167476195Y-111962031D01*
X167615374Y-111879721D01*
X167615383Y-111879714D01*
X167729714Y-111765383D01*
X167729721Y-111765374D01*
X167812031Y-111626195D01*
X167854504Y-111480000D01*
X167300000Y-111480000D01*
X167300000Y-112008789D01*
X166800000Y-112008789D01*
X166800000Y-111541283D01*
X166682692Y-111530000D01*
X166100000Y-111530000D01*
X166100000Y-112058789D01*
X165600000Y-112058789D01*
X165600000Y-111530000D01*
X164800000Y-111530000D01*
X164800000Y-112058789D01*
X164300000Y-112058789D01*
X164300000Y-111530000D01*
X163745496Y-111530000D01*
X156475499Y-111530000D01*
X156475499Y-111393554D01*
X156475499Y-111047129D01*
X156475498Y-111047123D01*
X156474732Y-111040001D01*
X156469091Y-110987517D01*
X156466287Y-110980000D01*
X156418797Y-110852671D01*
X156418793Y-110852664D01*
X156332547Y-110737455D01*
X156332544Y-110737452D01*
X156217335Y-110651206D01*
X156217328Y-110651202D01*
X156119411Y-110614682D01*
X156063477Y-110572811D01*
X156039060Y-110507347D01*
X156053911Y-110439074D01*
X156103316Y-110389668D01*
X156162744Y-110374500D01*
X159638685Y-110374500D01*
X159705724Y-110394185D01*
X159751479Y-110446989D01*
X159761423Y-110516147D01*
X159732398Y-110579703D01*
X159682018Y-110614682D01*
X159582913Y-110651645D01*
X159582906Y-110651649D01*
X159467812Y-110737809D01*
X159467809Y-110737812D01*
X159381649Y-110852906D01*
X159381645Y-110852913D01*
X159331403Y-110987620D01*
X159331401Y-110987627D01*
X159325000Y-111047155D01*
X159325000Y-111145000D01*
X161875000Y-111145000D01*
X161875000Y-111047172D01*
X161874999Y-111047155D01*
X161868598Y-110987627D01*
X161868596Y-110987620D01*
X161818354Y-110852913D01*
X161818350Y-110852906D01*
X161732190Y-110737812D01*
X161732187Y-110737809D01*
X161617093Y-110651649D01*
X161617086Y-110651645D01*
X161517982Y-110614682D01*
X161462048Y-110572811D01*
X161437631Y-110507347D01*
X161452483Y-110439074D01*
X161501888Y-110389668D01*
X161561315Y-110374500D01*
X163615500Y-110374500D01*
X163682539Y-110394185D01*
X163728294Y-110446989D01*
X163739500Y-110498500D01*
X163739500Y-110524697D01*
X163742356Y-110560991D01*
X163742357Y-110560997D01*
X163787504Y-110716390D01*
X163787507Y-110716397D01*
X163799910Y-110737370D01*
X163817093Y-110805094D01*
X163799912Y-110863608D01*
X163787968Y-110883804D01*
X163745496Y-111030000D01*
X164051648Y-111030000D01*
X164114766Y-111047267D01*
X164123605Y-111052494D01*
X164123608Y-111052494D01*
X164123610Y-111052496D01*
X164279002Y-111097642D01*
X164279005Y-111097642D01*
X164279007Y-111097643D01*
X164315310Y-111100500D01*
X164315318Y-111100500D01*
X164784682Y-111100500D01*
X164784690Y-111100500D01*
X164820993Y-111097643D01*
X164897471Y-111075423D01*
X164932066Y-111070500D01*
X165467934Y-111070500D01*
X165502528Y-111075423D01*
X165579007Y-111097643D01*
X165615310Y-111100500D01*
X165615318Y-111100500D01*
X166084682Y-111100500D01*
X166084690Y-111100500D01*
X166120993Y-111097643D01*
X166197471Y-111075423D01*
X166232066Y-111070500D01*
X167073919Y-111070500D01*
X167162482Y-111052883D01*
X167186674Y-111050500D01*
X167284682Y-111050500D01*
X167284690Y-111050500D01*
X167320993Y-111047643D01*
X167320995Y-111047642D01*
X167320997Y-111047642D01*
X167476389Y-111002496D01*
X167476389Y-111002495D01*
X167476395Y-111002494D01*
X167485233Y-110997267D01*
X167548352Y-110980000D01*
X167854504Y-110980000D01*
X167812031Y-110833803D01*
X167800090Y-110813613D01*
X167782906Y-110745889D01*
X167800089Y-110687369D01*
X167812494Y-110666395D01*
X167857643Y-110510993D01*
X167860500Y-110474690D01*
X167860500Y-110065310D01*
X167857643Y-110029007D01*
X167845312Y-109986565D01*
X167812495Y-109873609D01*
X167812494Y-109873605D01*
X167812491Y-109873600D01*
X167810699Y-109869457D01*
X167800500Y-109820209D01*
X167800500Y-107925783D01*
X167820185Y-107858744D01*
X167833278Y-107842496D01*
X167833274Y-107842492D01*
X167833725Y-107841941D01*
X167836823Y-107838097D01*
X167837139Y-107837782D01*
X167946632Y-107673914D01*
X168022051Y-107491835D01*
X168040879Y-107397181D01*
X168060500Y-107298543D01*
X168599499Y-107298543D01*
X168637947Y-107491829D01*
X168637950Y-107491839D01*
X168713364Y-107673907D01*
X168713371Y-107673920D01*
X168822859Y-107837780D01*
X168822860Y-107837781D01*
X168822861Y-107837782D01*
X168938182Y-107953103D01*
X168952888Y-107980034D01*
X168969477Y-108005848D01*
X168970368Y-108012047D01*
X168971666Y-108014424D01*
X168974500Y-108040783D01*
X168974500Y-108200638D01*
X168954815Y-108267677D01*
X168938181Y-108288319D01*
X168900538Y-108325961D01*
X168900535Y-108325965D01*
X168801990Y-108473446D01*
X168801983Y-108473459D01*
X168734106Y-108637332D01*
X168734103Y-108637341D01*
X168699500Y-108811304D01*
X168699500Y-108988695D01*
X168734103Y-109162658D01*
X168734106Y-109162667D01*
X168801983Y-109326540D01*
X168801990Y-109326553D01*
X168900535Y-109474034D01*
X168900538Y-109474038D01*
X169025961Y-109599461D01*
X169025965Y-109599464D01*
X169173446Y-109698009D01*
X169173459Y-109698016D01*
X169296363Y-109748923D01*
X169337334Y-109765894D01*
X169337336Y-109765894D01*
X169337341Y-109765896D01*
X169511304Y-109800499D01*
X169511307Y-109800500D01*
X169511309Y-109800500D01*
X169688693Y-109800500D01*
X169688694Y-109800499D01*
X169746682Y-109788964D01*
X169862658Y-109765896D01*
X169862661Y-109765894D01*
X169862666Y-109765894D01*
X170026547Y-109698013D01*
X170174035Y-109599464D01*
X170299464Y-109474035D01*
X170398013Y-109326547D01*
X170465894Y-109162666D01*
X170474507Y-109119369D01*
X170500499Y-108988695D01*
X170500500Y-108988693D01*
X170500500Y-108811306D01*
X170500499Y-108811304D01*
X170465896Y-108637341D01*
X170465893Y-108637332D01*
X170398016Y-108473459D01*
X170398009Y-108473446D01*
X170299464Y-108325965D01*
X170299461Y-108325961D01*
X170261819Y-108288319D01*
X170247115Y-108261391D01*
X170230523Y-108235573D01*
X170229631Y-108229372D01*
X170228334Y-108226996D01*
X170225500Y-108200638D01*
X170225500Y-108040783D01*
X170245185Y-107973744D01*
X170261814Y-107953106D01*
X170377139Y-107837782D01*
X170486632Y-107673914D01*
X170562051Y-107491835D01*
X170580879Y-107397181D01*
X170600500Y-107298543D01*
X170600500Y-105601456D01*
X170562052Y-105408170D01*
X170562051Y-105408169D01*
X170562051Y-105408165D01*
X170532711Y-105337332D01*
X170486635Y-105226092D01*
X170486628Y-105226079D01*
X170377139Y-105062218D01*
X170377136Y-105062214D01*
X170237785Y-104922863D01*
X170237781Y-104922860D01*
X170073920Y-104813371D01*
X170073907Y-104813364D01*
X169891839Y-104737950D01*
X169891829Y-104737947D01*
X169698543Y-104699500D01*
X169698541Y-104699500D01*
X169501459Y-104699500D01*
X169501457Y-104699500D01*
X169308170Y-104737947D01*
X169308160Y-104737950D01*
X169126092Y-104813364D01*
X169126079Y-104813371D01*
X168962218Y-104922860D01*
X168962214Y-104922863D01*
X168822863Y-105062214D01*
X168822860Y-105062218D01*
X168713371Y-105226079D01*
X168713364Y-105226092D01*
X168637950Y-105408160D01*
X168637947Y-105408170D01*
X168599500Y-105601456D01*
X168599500Y-105601459D01*
X168599500Y-107298541D01*
X168599500Y-107298543D01*
X168599499Y-107298543D01*
X168060500Y-107298543D01*
X168060500Y-105601456D01*
X168022052Y-105408170D01*
X168022051Y-105408169D01*
X168022051Y-105408165D01*
X167992711Y-105337332D01*
X167946635Y-105226092D01*
X167946628Y-105226079D01*
X167837139Y-105062218D01*
X167837136Y-105062214D01*
X167697785Y-104922863D01*
X167697781Y-104922860D01*
X167533920Y-104813371D01*
X167533907Y-104813364D01*
X167351839Y-104737950D01*
X167351829Y-104737947D01*
X167158543Y-104699500D01*
X167158541Y-104699500D01*
X166961459Y-104699500D01*
X166961457Y-104699500D01*
X166768170Y-104737947D01*
X166768160Y-104737950D01*
X166586092Y-104813364D01*
X166586079Y-104813371D01*
X166422218Y-104922860D01*
X166422214Y-104922863D01*
X166282863Y-105062214D01*
X166282860Y-105062218D01*
X166173371Y-105226079D01*
X166173364Y-105226092D01*
X166097950Y-105408160D01*
X166097947Y-105408170D01*
X166059500Y-105601456D01*
X166059500Y-105601459D01*
X166059500Y-107298541D01*
X166059500Y-107298543D01*
X166059499Y-107298543D01*
X166097947Y-107491829D01*
X166097950Y-107491839D01*
X166173364Y-107673907D01*
X166173371Y-107673920D01*
X166278602Y-107831408D01*
X166299480Y-107898085D01*
X166299500Y-107900299D01*
X166299500Y-109429065D01*
X166279815Y-109496104D01*
X166227011Y-109541859D01*
X166157853Y-109551803D01*
X166140907Y-109548142D01*
X166120994Y-109542357D01*
X166120991Y-109542356D01*
X166084697Y-109539500D01*
X166084690Y-109539500D01*
X165615310Y-109539500D01*
X165615302Y-109539500D01*
X165579008Y-109542356D01*
X165579005Y-109542357D01*
X165520835Y-109559257D01*
X165502528Y-109564576D01*
X165467934Y-109569500D01*
X165424500Y-109569500D01*
X165357461Y-109549815D01*
X165311706Y-109497011D01*
X165300500Y-109445500D01*
X165300500Y-107870366D01*
X165320185Y-107803327D01*
X165321398Y-107801475D01*
X165375405Y-107720648D01*
X165406632Y-107673914D01*
X165482051Y-107491835D01*
X165500879Y-107397181D01*
X165520500Y-107298543D01*
X165520500Y-105601456D01*
X165482052Y-105408170D01*
X165482051Y-105408169D01*
X165482051Y-105408165D01*
X165452711Y-105337332D01*
X165406635Y-105226092D01*
X165406628Y-105226079D01*
X165297139Y-105062218D01*
X165297136Y-105062214D01*
X165157785Y-104922863D01*
X165157781Y-104922860D01*
X164993920Y-104813371D01*
X164993907Y-104813364D01*
X164811839Y-104737950D01*
X164811829Y-104737947D01*
X164618543Y-104699500D01*
X164618541Y-104699500D01*
X164421459Y-104699500D01*
X164421457Y-104699500D01*
X164228170Y-104737947D01*
X164228160Y-104737950D01*
X164046092Y-104813364D01*
X164046079Y-104813371D01*
X163882218Y-104922860D01*
X163882214Y-104922863D01*
X163742863Y-105062214D01*
X163742860Y-105062218D01*
X163633371Y-105226079D01*
X163633364Y-105226092D01*
X163557950Y-105408160D01*
X163557947Y-105408170D01*
X163519500Y-105601456D01*
X163519500Y-105601459D01*
X163519500Y-107298541D01*
X163519500Y-107298543D01*
X163519499Y-107298543D01*
X163557947Y-107491829D01*
X163557950Y-107491839D01*
X163633364Y-107673907D01*
X163633371Y-107673920D01*
X163742860Y-107837781D01*
X163742862Y-107837784D01*
X163763179Y-107858100D01*
X163796666Y-107919422D01*
X163799500Y-107945783D01*
X163799500Y-108749500D01*
X163779815Y-108816539D01*
X163727011Y-108862294D01*
X163675500Y-108873500D01*
X160910451Y-108873500D01*
X160843412Y-108853815D01*
X160797657Y-108801011D01*
X160787713Y-108731853D01*
X160816738Y-108668297D01*
X160822770Y-108661819D01*
X160847257Y-108637332D01*
X161098729Y-108385860D01*
X161098733Y-108385858D01*
X161185858Y-108298733D01*
X161234176Y-108226420D01*
X161254312Y-108196286D01*
X161286837Y-108117761D01*
X161330675Y-108063359D01*
X161396968Y-108041293D01*
X161464668Y-108058571D01*
X161470289Y-108062112D01*
X161506321Y-108086188D01*
X161506328Y-108086192D01*
X161688308Y-108161569D01*
X161730000Y-108169862D01*
X162230000Y-108169862D01*
X162271690Y-108161569D01*
X162271692Y-108161569D01*
X162453671Y-108086192D01*
X162453684Y-108086185D01*
X162617462Y-107976751D01*
X162617466Y-107976748D01*
X162756748Y-107837466D01*
X162756751Y-107837462D01*
X162866185Y-107673684D01*
X162866192Y-107673671D01*
X162941569Y-107491693D01*
X162941572Y-107491681D01*
X162979999Y-107298495D01*
X162980000Y-107298492D01*
X162980000Y-106700000D01*
X162230000Y-106700000D01*
X162230000Y-108169862D01*
X161730000Y-108169862D01*
X161730000Y-106200000D01*
X162230000Y-106200000D01*
X162980000Y-106200000D01*
X162980000Y-105601508D01*
X162979999Y-105601504D01*
X162941572Y-105408318D01*
X162941569Y-105408306D01*
X162866192Y-105226328D01*
X162866185Y-105226315D01*
X162756751Y-105062537D01*
X162756748Y-105062533D01*
X162617466Y-104923251D01*
X162617462Y-104923248D01*
X162453684Y-104813814D01*
X162453671Y-104813807D01*
X162271691Y-104738429D01*
X162271683Y-104738427D01*
X162230000Y-104730135D01*
X162230000Y-106200000D01*
X161730000Y-106200000D01*
X161730000Y-104730136D01*
X161729999Y-104730135D01*
X161688316Y-104738427D01*
X161688308Y-104738429D01*
X161506328Y-104813807D01*
X161506317Y-104813813D01*
X161437846Y-104859564D01*
X161371168Y-104880441D01*
X161303788Y-104861956D01*
X161264336Y-104823025D01*
X161258532Y-104813903D01*
X161254312Y-104803714D01*
X161207800Y-104734106D01*
X161205147Y-104730136D01*
X161185856Y-104701264D01*
X161095637Y-104611045D01*
X161095606Y-104611016D01*
X152043462Y-95558872D01*
X152035860Y-95551270D01*
X152035858Y-95551267D01*
X151948733Y-95464142D01*
X151897509Y-95429915D01*
X151880585Y-95418606D01*
X151874854Y-95413671D01*
X151859822Y-95390438D01*
X151842077Y-95369206D01*
X151841110Y-95361517D01*
X151836900Y-95355009D01*
X151836815Y-95327334D01*
X151833366Y-95299882D01*
X151836696Y-95288153D01*
X151836687Y-95285139D01*
X151838245Y-95282697D01*
X151841208Y-95272260D01*
X151865894Y-95212666D01*
X151900500Y-95038691D01*
X151900500Y-94861309D01*
X151900500Y-94861306D01*
X151900499Y-94861304D01*
X151865896Y-94687341D01*
X151865893Y-94687332D01*
X151798016Y-94523459D01*
X151798009Y-94523446D01*
X151699464Y-94375965D01*
X151699461Y-94375961D01*
X151661819Y-94338319D01*
X151628334Y-94276996D01*
X151625500Y-94250638D01*
X151625500Y-91798495D01*
X155900000Y-91798495D01*
X155938427Y-91991681D01*
X155938430Y-91991693D01*
X156013807Y-92173671D01*
X156013814Y-92173684D01*
X156123248Y-92337462D01*
X156123251Y-92337466D01*
X156262533Y-92476748D01*
X156262537Y-92476751D01*
X156426315Y-92586185D01*
X156426328Y-92586192D01*
X156608308Y-92661569D01*
X156650000Y-92669862D01*
X157150000Y-92669862D01*
X157191690Y-92661569D01*
X157191692Y-92661569D01*
X157373671Y-92586192D01*
X157373684Y-92586185D01*
X157537462Y-92476751D01*
X157537466Y-92476748D01*
X157676748Y-92337466D01*
X157676751Y-92337462D01*
X157786185Y-92173684D01*
X157786192Y-92173671D01*
X157861569Y-91991693D01*
X157861572Y-91991681D01*
X157899999Y-91798495D01*
X157900000Y-91798492D01*
X157900000Y-91200000D01*
X157150000Y-91200000D01*
X157150000Y-92669862D01*
X156650000Y-92669862D01*
X156650000Y-91200000D01*
X155900000Y-91200000D01*
X155900000Y-91798495D01*
X151625500Y-91798495D01*
X151625500Y-90101504D01*
X155900000Y-90101504D01*
X155900000Y-90700000D01*
X156650000Y-90700000D01*
X157150000Y-90700000D01*
X157900000Y-90700000D01*
X157900000Y-90101508D01*
X157899999Y-90101504D01*
X157861572Y-89908318D01*
X157861569Y-89908306D01*
X157786192Y-89726328D01*
X157786185Y-89726315D01*
X157676751Y-89562537D01*
X157676748Y-89562533D01*
X157537466Y-89423251D01*
X157537462Y-89423248D01*
X157373684Y-89313814D01*
X157373671Y-89313807D01*
X157191691Y-89238429D01*
X157191683Y-89238427D01*
X157150000Y-89230135D01*
X157150000Y-90700000D01*
X156650000Y-90700000D01*
X156650000Y-89230136D01*
X156649999Y-89230135D01*
X156608316Y-89238427D01*
X156608308Y-89238429D01*
X156426328Y-89313807D01*
X156426315Y-89313814D01*
X156262537Y-89423248D01*
X156262533Y-89423251D01*
X156123251Y-89562533D01*
X156123248Y-89562537D01*
X156013814Y-89726315D01*
X156013807Y-89726328D01*
X155938430Y-89908306D01*
X155938427Y-89908318D01*
X155900000Y-90101504D01*
X151625500Y-90101504D01*
X151625500Y-87660452D01*
X151645185Y-87593413D01*
X151661819Y-87572771D01*
X153729605Y-85504986D01*
X156950001Y-85504986D01*
X156960494Y-85607697D01*
X157015641Y-85774119D01*
X157015643Y-85774124D01*
X157107684Y-85923345D01*
X157231654Y-86047315D01*
X157380875Y-86139356D01*
X157380880Y-86139358D01*
X157547302Y-86194505D01*
X157547309Y-86194506D01*
X157650019Y-86204999D01*
X157724999Y-86204998D01*
X157725000Y-86204998D01*
X157725000Y-84855000D01*
X156950001Y-84855000D01*
X156950001Y-85504986D01*
X153729605Y-85504986D01*
X154518634Y-84715957D01*
X155529578Y-83705013D01*
X156950000Y-83705013D01*
X156950000Y-84355000D01*
X157725000Y-84355000D01*
X157725000Y-83005000D01*
X158225000Y-83005000D01*
X158225000Y-86204999D01*
X158299972Y-86204999D01*
X158299981Y-86204998D01*
X158312896Y-86203679D01*
X158381589Y-86216448D01*
X158432474Y-86264327D01*
X158449500Y-86327036D01*
X158449500Y-86455000D01*
X158449501Y-86455019D01*
X158460000Y-86557796D01*
X158460001Y-86557799D01*
X158515185Y-86724331D01*
X158515187Y-86724336D01*
X158524044Y-86738695D01*
X158601420Y-86864143D01*
X158607289Y-86873657D01*
X158663181Y-86929549D01*
X158696666Y-86990872D01*
X158699500Y-87017230D01*
X158699500Y-89474216D01*
X158679815Y-89541255D01*
X158666721Y-89557503D01*
X158666726Y-89557508D01*
X158666272Y-89558060D01*
X158663181Y-89561897D01*
X158662863Y-89562214D01*
X158662860Y-89562218D01*
X158553371Y-89726079D01*
X158553364Y-89726092D01*
X158477950Y-89908160D01*
X158477947Y-89908170D01*
X158439500Y-90101456D01*
X158439500Y-90101459D01*
X158439500Y-91798541D01*
X158439500Y-91798543D01*
X158439499Y-91798543D01*
X158477947Y-91991829D01*
X158477950Y-91991839D01*
X158553364Y-92173907D01*
X158553371Y-92173920D01*
X158662860Y-92337781D01*
X158662863Y-92337785D01*
X158802214Y-92477136D01*
X158802218Y-92477139D01*
X158966079Y-92586628D01*
X158966092Y-92586635D01*
X159140777Y-92658991D01*
X159148165Y-92662051D01*
X159148169Y-92662051D01*
X159148170Y-92662052D01*
X159341456Y-92700500D01*
X159341459Y-92700500D01*
X159538543Y-92700500D01*
X159692567Y-92669862D01*
X159731835Y-92662051D01*
X159913914Y-92586632D01*
X160077782Y-92477139D01*
X160217139Y-92337782D01*
X160326632Y-92173914D01*
X160402051Y-91991835D01*
X160440500Y-91798541D01*
X160440500Y-90101459D01*
X160440500Y-90101456D01*
X160402052Y-89908170D01*
X160402051Y-89908169D01*
X160402051Y-89908165D01*
X160390281Y-89879750D01*
X160326635Y-89726092D01*
X160326628Y-89726079D01*
X160221398Y-89568591D01*
X160200520Y-89501913D01*
X160200500Y-89499700D01*
X160200500Y-87017230D01*
X160220185Y-86950191D01*
X160236819Y-86929549D01*
X160253710Y-86912658D01*
X160292712Y-86873656D01*
X160384814Y-86724334D01*
X160439999Y-86557797D01*
X160450500Y-86455009D01*
X160450499Y-86327036D01*
X160470183Y-86259999D01*
X160522987Y-86214244D01*
X160587104Y-86203680D01*
X160600021Y-86204999D01*
X161175000Y-86204999D01*
X161249972Y-86204999D01*
X161249986Y-86204998D01*
X161352697Y-86194505D01*
X161519119Y-86139358D01*
X161519124Y-86139356D01*
X161668345Y-86047315D01*
X161792315Y-85923345D01*
X161884356Y-85774124D01*
X161884358Y-85774119D01*
X161939505Y-85607697D01*
X161939506Y-85607690D01*
X161949999Y-85504986D01*
X161950000Y-85504973D01*
X161950000Y-84855000D01*
X161175000Y-84855000D01*
X161175000Y-86204999D01*
X160600021Y-86204999D01*
X160674999Y-86204998D01*
X160675000Y-86204998D01*
X160675000Y-84578149D01*
X162800000Y-84578149D01*
X162802899Y-84614989D01*
X162802900Y-84614995D01*
X162848716Y-84772693D01*
X162848717Y-84772696D01*
X162932314Y-84914052D01*
X162932321Y-84914061D01*
X163048438Y-85030178D01*
X163048447Y-85030185D01*
X163189801Y-85113781D01*
X163347514Y-85159600D01*
X163347511Y-85159600D01*
X163349998Y-85159795D01*
X163350000Y-85159795D01*
X163350000Y-84175000D01*
X162800000Y-84175000D01*
X162800000Y-84578149D01*
X160675000Y-84578149D01*
X160675000Y-84355000D01*
X161175000Y-84355000D01*
X161949999Y-84355000D01*
X161949999Y-83705028D01*
X161949998Y-83705013D01*
X161939505Y-83602302D01*
X161884358Y-83435880D01*
X161884356Y-83435875D01*
X161792315Y-83286654D01*
X161668345Y-83162684D01*
X161519124Y-83070643D01*
X161519119Y-83070641D01*
X161352697Y-83015494D01*
X161352690Y-83015493D01*
X161249986Y-83005000D01*
X161175000Y-83005000D01*
X161175000Y-84355000D01*
X160675000Y-84355000D01*
X160675000Y-83005000D01*
X160674999Y-83004999D01*
X160600028Y-83005000D01*
X160600011Y-83005001D01*
X160497302Y-83015494D01*
X160330880Y-83070641D01*
X160330875Y-83070643D01*
X160181654Y-83162684D01*
X160057684Y-83286654D01*
X159961851Y-83442025D01*
X159960137Y-83440967D01*
X159920619Y-83485847D01*
X159854413Y-83505000D01*
X159045587Y-83505000D01*
X158978548Y-83485315D01*
X158939828Y-83440989D01*
X158938149Y-83442025D01*
X158842315Y-83286654D01*
X158718345Y-83162684D01*
X158569124Y-83070643D01*
X158569119Y-83070641D01*
X158402697Y-83015494D01*
X158402690Y-83015493D01*
X158299986Y-83005000D01*
X158225000Y-83005000D01*
X157725000Y-83005000D01*
X157724999Y-83004999D01*
X157650028Y-83005000D01*
X157650011Y-83005001D01*
X157547302Y-83015494D01*
X157380880Y-83070641D01*
X157380875Y-83070643D01*
X157231654Y-83162684D01*
X157107684Y-83286654D01*
X157015643Y-83435875D01*
X157015641Y-83435880D01*
X156960494Y-83602302D01*
X156960493Y-83602309D01*
X156950000Y-83705013D01*
X155529578Y-83705013D01*
X156572772Y-82661819D01*
X156634095Y-82628334D01*
X156660453Y-82625500D01*
X162695404Y-82625500D01*
X162762443Y-82645185D01*
X162766843Y-82648147D01*
X162775553Y-82654286D01*
X162812402Y-82691135D01*
X162908259Y-82747824D01*
X162912306Y-82750677D01*
X162931074Y-82774306D01*
X162951671Y-82796366D01*
X162952584Y-82801390D01*
X162955761Y-82805389D01*
X162958774Y-82835420D01*
X162964175Y-82865108D01*
X162962227Y-82869827D01*
X162962738Y-82874910D01*
X162949035Y-82901806D01*
X162937530Y-82929697D01*
X162934809Y-82932730D01*
X162932314Y-82935947D01*
X162848717Y-83077303D01*
X162848716Y-83077306D01*
X162802900Y-83235004D01*
X162802899Y-83235010D01*
X162800000Y-83271850D01*
X162800000Y-83675000D01*
X164400000Y-83675000D01*
X164400000Y-83271865D01*
X164399999Y-83271850D01*
X164397100Y-83235010D01*
X164397099Y-83235004D01*
X164351283Y-83077306D01*
X164351282Y-83077303D01*
X164310072Y-83007620D01*
X164308937Y-83003150D01*
X164305804Y-82999770D01*
X164300427Y-82969608D01*
X164292889Y-82939896D01*
X164294351Y-82935522D01*
X164293543Y-82930985D01*
X164305328Y-82902699D01*
X164315049Y-82873634D01*
X164318642Y-82870746D01*
X164320416Y-82866490D01*
X164345630Y-82849061D01*
X164369515Y-82829870D01*
X164375155Y-82828653D01*
X164377892Y-82826762D01*
X164401668Y-82822935D01*
X164412639Y-82820569D01*
X164414711Y-82820499D01*
X164559180Y-82820499D01*
X164595204Y-82817665D01*
X164607782Y-82814010D01*
X164623300Y-82813489D01*
X164642699Y-82818484D01*
X164662733Y-82818540D01*
X164677839Y-82827531D01*
X164690963Y-82830911D01*
X164700132Y-82840801D01*
X164715146Y-82849738D01*
X164752432Y-82887024D01*
X164785917Y-82948347D01*
X164780933Y-83018039D01*
X164771483Y-83037826D01*
X164748257Y-83077097D01*
X164748254Y-83077105D01*
X164702402Y-83234926D01*
X164702401Y-83234932D01*
X164699500Y-83271798D01*
X164699500Y-84438000D01*
X164696949Y-84446685D01*
X164698238Y-84455647D01*
X164687259Y-84479687D01*
X164679815Y-84505039D01*
X164672974Y-84510966D01*
X164669213Y-84519203D01*
X164646978Y-84533492D01*
X164627011Y-84550794D01*
X164616496Y-84553081D01*
X164610435Y-84556977D01*
X164575500Y-84562000D01*
X164524000Y-84562000D01*
X164456961Y-84542315D01*
X164411206Y-84489511D01*
X164400000Y-84438000D01*
X164400000Y-84175000D01*
X163850000Y-84175000D01*
X163850000Y-84830684D01*
X163832733Y-84893804D01*
X163798254Y-84952105D01*
X163798254Y-84952106D01*
X163752402Y-85109926D01*
X163752401Y-85109932D01*
X163749500Y-85146798D01*
X163749500Y-86453201D01*
X163752401Y-86490067D01*
X163752402Y-86490073D01*
X163798254Y-86647893D01*
X163798255Y-86647896D01*
X163798256Y-86647898D01*
X163881919Y-86789365D01*
X163888179Y-86795625D01*
X163921665Y-86856945D01*
X163924500Y-86883308D01*
X163924500Y-87289547D01*
X163904815Y-87356586D01*
X163888181Y-87377228D01*
X163627229Y-87638181D01*
X163565906Y-87671666D01*
X163539548Y-87674500D01*
X162738389Y-87674500D01*
X162677971Y-87686518D01*
X162640259Y-87694019D01*
X162617550Y-87698536D01*
X162617548Y-87698537D01*
X162584207Y-87712347D01*
X162503719Y-87745684D01*
X162503705Y-87745692D01*
X162401272Y-87814138D01*
X162401264Y-87814144D01*
X161494144Y-88721264D01*
X161494138Y-88721272D01*
X161425690Y-88823708D01*
X161425688Y-88823713D01*
X161393483Y-88901464D01*
X161383528Y-88925495D01*
X161383529Y-88925496D01*
X161378539Y-88937542D01*
X161378535Y-88937556D01*
X161363348Y-89013909D01*
X161354500Y-89058389D01*
X161354500Y-89359216D01*
X161334815Y-89426255D01*
X161318181Y-89446897D01*
X161202863Y-89562214D01*
X161202860Y-89562218D01*
X161093371Y-89726079D01*
X161093364Y-89726092D01*
X161017950Y-89908160D01*
X161017947Y-89908170D01*
X160979500Y-90101456D01*
X160979500Y-90101459D01*
X160979500Y-91798541D01*
X160979500Y-91798543D01*
X160979499Y-91798543D01*
X161017947Y-91991829D01*
X161017950Y-91991839D01*
X161093364Y-92173907D01*
X161093371Y-92173920D01*
X161202860Y-92337781D01*
X161202863Y-92337785D01*
X161342214Y-92477136D01*
X161342218Y-92477139D01*
X161506079Y-92586628D01*
X161506092Y-92586635D01*
X161680777Y-92658991D01*
X161688165Y-92662051D01*
X161688169Y-92662051D01*
X161688170Y-92662052D01*
X161881456Y-92700500D01*
X161881459Y-92700500D01*
X162078543Y-92700500D01*
X162232567Y-92669862D01*
X162271835Y-92662051D01*
X162453914Y-92586632D01*
X162617782Y-92477139D01*
X162757139Y-92337782D01*
X162866632Y-92173914D01*
X162942051Y-91991835D01*
X162980500Y-91798543D01*
X163519499Y-91798543D01*
X163557947Y-91991829D01*
X163557950Y-91991839D01*
X163633364Y-92173907D01*
X163633371Y-92173920D01*
X163742860Y-92337781D01*
X163742863Y-92337785D01*
X163882214Y-92477136D01*
X163882218Y-92477139D01*
X164046079Y-92586628D01*
X164046092Y-92586635D01*
X164220777Y-92658991D01*
X164228165Y-92662051D01*
X164228169Y-92662051D01*
X164228170Y-92662052D01*
X164421456Y-92700500D01*
X164421459Y-92700500D01*
X164618543Y-92700500D01*
X164772567Y-92669862D01*
X164811835Y-92662051D01*
X164993914Y-92586632D01*
X165157782Y-92477139D01*
X165297139Y-92337782D01*
X165406632Y-92173914D01*
X165482051Y-91991835D01*
X165520500Y-91798543D01*
X166059499Y-91798543D01*
X166097947Y-91991829D01*
X166097950Y-91991839D01*
X166173364Y-92173907D01*
X166173371Y-92173920D01*
X166282860Y-92337781D01*
X166282863Y-92337785D01*
X166422214Y-92477136D01*
X166422218Y-92477139D01*
X166586079Y-92586628D01*
X166586092Y-92586635D01*
X166760777Y-92658991D01*
X166768165Y-92662051D01*
X166768169Y-92662051D01*
X166768170Y-92662052D01*
X166961456Y-92700500D01*
X166961459Y-92700500D01*
X167158543Y-92700500D01*
X167312567Y-92669862D01*
X167351835Y-92662051D01*
X167533914Y-92586632D01*
X167697782Y-92477139D01*
X167837139Y-92337782D01*
X167946632Y-92173914D01*
X168022051Y-91991835D01*
X168060500Y-91798543D01*
X168599499Y-91798543D01*
X168637947Y-91991829D01*
X168637950Y-91991839D01*
X168713364Y-92173907D01*
X168713371Y-92173920D01*
X168822860Y-92337781D01*
X168822863Y-92337785D01*
X168962214Y-92477136D01*
X168962218Y-92477139D01*
X169126079Y-92586628D01*
X169126092Y-92586635D01*
X169300777Y-92658991D01*
X169308165Y-92662051D01*
X169308169Y-92662051D01*
X169308170Y-92662052D01*
X169501456Y-92700500D01*
X169501459Y-92700500D01*
X169698543Y-92700500D01*
X169852567Y-92669862D01*
X169891835Y-92662051D01*
X170073914Y-92586632D01*
X170237782Y-92477139D01*
X170377139Y-92337782D01*
X170486632Y-92173914D01*
X170562051Y-91991835D01*
X170600500Y-91798541D01*
X170600500Y-90101459D01*
X170600500Y-90101456D01*
X170562052Y-89908170D01*
X170562051Y-89908169D01*
X170562051Y-89908165D01*
X170550281Y-89879750D01*
X170486635Y-89726092D01*
X170486628Y-89726079D01*
X170377139Y-89562218D01*
X170377136Y-89562214D01*
X170237785Y-89422863D01*
X170237781Y-89422860D01*
X170073920Y-89313371D01*
X170073907Y-89313364D01*
X169891839Y-89237950D01*
X169891829Y-89237947D01*
X169698543Y-89199500D01*
X169698541Y-89199500D01*
X169501459Y-89199500D01*
X169501457Y-89199500D01*
X169308170Y-89237947D01*
X169308160Y-89237950D01*
X169126092Y-89313364D01*
X169126079Y-89313371D01*
X168962218Y-89422860D01*
X168962214Y-89422863D01*
X168822863Y-89562214D01*
X168822860Y-89562218D01*
X168713371Y-89726079D01*
X168713364Y-89726092D01*
X168637950Y-89908160D01*
X168637947Y-89908170D01*
X168599500Y-90101456D01*
X168599500Y-90101459D01*
X168599500Y-91798541D01*
X168599500Y-91798543D01*
X168599499Y-91798543D01*
X168060500Y-91798543D01*
X168060500Y-91798541D01*
X168060500Y-90101459D01*
X168060500Y-90101456D01*
X168022052Y-89908170D01*
X168022051Y-89908169D01*
X168022051Y-89908165D01*
X168010281Y-89879750D01*
X167946635Y-89726092D01*
X167946628Y-89726079D01*
X167837139Y-89562218D01*
X167837136Y-89562214D01*
X167697785Y-89422863D01*
X167697781Y-89422860D01*
X167533920Y-89313371D01*
X167533907Y-89313364D01*
X167351839Y-89237950D01*
X167351829Y-89237947D01*
X167158543Y-89199500D01*
X167158541Y-89199500D01*
X166961459Y-89199500D01*
X166961457Y-89199500D01*
X166768170Y-89237947D01*
X166768160Y-89237950D01*
X166586092Y-89313364D01*
X166586079Y-89313371D01*
X166422218Y-89422860D01*
X166422214Y-89422863D01*
X166282863Y-89562214D01*
X166282860Y-89562218D01*
X166173371Y-89726079D01*
X166173364Y-89726092D01*
X166097950Y-89908160D01*
X166097947Y-89908170D01*
X166059500Y-90101456D01*
X166059500Y-90101459D01*
X166059500Y-91798541D01*
X166059500Y-91798543D01*
X166059499Y-91798543D01*
X165520500Y-91798543D01*
X165520500Y-91798541D01*
X165520500Y-90101459D01*
X165520500Y-90101456D01*
X165482052Y-89908170D01*
X165482051Y-89908169D01*
X165482051Y-89908165D01*
X165470281Y-89879750D01*
X165406635Y-89726092D01*
X165406628Y-89726079D01*
X165297139Y-89562218D01*
X165297136Y-89562214D01*
X165157785Y-89422863D01*
X165157781Y-89422860D01*
X164993920Y-89313371D01*
X164993907Y-89313364D01*
X164811839Y-89237950D01*
X164811829Y-89237947D01*
X164618543Y-89199500D01*
X164618541Y-89199500D01*
X164421459Y-89199500D01*
X164421457Y-89199500D01*
X164228170Y-89237947D01*
X164228160Y-89237950D01*
X164046092Y-89313364D01*
X164046079Y-89313371D01*
X163882218Y-89422860D01*
X163882214Y-89422863D01*
X163742863Y-89562214D01*
X163742860Y-89562218D01*
X163633371Y-89726079D01*
X163633364Y-89726092D01*
X163557950Y-89908160D01*
X163557947Y-89908170D01*
X163519500Y-90101456D01*
X163519500Y-90101459D01*
X163519500Y-91798541D01*
X163519500Y-91798543D01*
X163519499Y-91798543D01*
X162980500Y-91798543D01*
X162980500Y-91798541D01*
X162980500Y-90101459D01*
X162980500Y-90101456D01*
X162942052Y-89908170D01*
X162942051Y-89908169D01*
X162942051Y-89908165D01*
X162930281Y-89879750D01*
X162866635Y-89726092D01*
X162866628Y-89726079D01*
X162757140Y-89562219D01*
X162720500Y-89525579D01*
X162677434Y-89482513D01*
X162643951Y-89421193D01*
X162648935Y-89351501D01*
X162677434Y-89307155D01*
X163022771Y-88961819D01*
X163084094Y-88928334D01*
X163110452Y-88925500D01*
X163911607Y-88925500D01*
X163972029Y-88913481D01*
X164032452Y-88901463D01*
X164065792Y-88887652D01*
X164146286Y-88854312D01*
X164197509Y-88820084D01*
X164248733Y-88785858D01*
X164335858Y-88698733D01*
X164335858Y-88698731D01*
X164346066Y-88688524D01*
X164346067Y-88688521D01*
X165035857Y-87998734D01*
X165104311Y-87896286D01*
X165151463Y-87782452D01*
X165175500Y-87661607D01*
X165175500Y-87538394D01*
X165175500Y-86883308D01*
X165195185Y-86816269D01*
X165211817Y-86795628D01*
X165218081Y-86789365D01*
X165301744Y-86647898D01*
X165347598Y-86490069D01*
X165350500Y-86453194D01*
X165350500Y-85287000D01*
X165370185Y-85219961D01*
X165422989Y-85174206D01*
X165474500Y-85163000D01*
X165715686Y-85163000D01*
X165715694Y-85163000D01*
X165752569Y-85160098D01*
X165752571Y-85160097D01*
X165752573Y-85160097D01*
X165798347Y-85146798D01*
X165910398Y-85114244D01*
X166051865Y-85030581D01*
X166168081Y-84914365D01*
X166251744Y-84772898D01*
X166297598Y-84615069D01*
X166300500Y-84578194D01*
X166300500Y-83688389D01*
X167224500Y-83688389D01*
X167224500Y-85411610D01*
X167237626Y-85477598D01*
X167248537Y-85532452D01*
X167258232Y-85555858D01*
X167295688Y-85646286D01*
X167313451Y-85672869D01*
X167318288Y-85680108D01*
X167318290Y-85680112D01*
X167364140Y-85748731D01*
X167364141Y-85748732D01*
X167364142Y-85748733D01*
X167451267Y-85835858D01*
X167451268Y-85835858D01*
X167458335Y-85842925D01*
X167458334Y-85842925D01*
X167458338Y-85842928D01*
X168213181Y-86597771D01*
X168246666Y-86659094D01*
X168249500Y-86685452D01*
X168249500Y-86738695D01*
X168284103Y-86912658D01*
X168284106Y-86912667D01*
X168351983Y-87076540D01*
X168351990Y-87076553D01*
X168450535Y-87224034D01*
X168450538Y-87224038D01*
X168575961Y-87349461D01*
X168575965Y-87349464D01*
X168723446Y-87448009D01*
X168723459Y-87448016D01*
X168846363Y-87498923D01*
X168887334Y-87515894D01*
X168887336Y-87515894D01*
X168887341Y-87515896D01*
X169061304Y-87550499D01*
X169061307Y-87550500D01*
X169061309Y-87550500D01*
X169238693Y-87550500D01*
X169238694Y-87550499D01*
X169299552Y-87538394D01*
X169412658Y-87515896D01*
X169412661Y-87515894D01*
X169412666Y-87515894D01*
X169576547Y-87448013D01*
X169631109Y-87411554D01*
X169697786Y-87390677D01*
X169765166Y-87409161D01*
X169768881Y-87411548D01*
X169823453Y-87448013D01*
X169823456Y-87448014D01*
X169823457Y-87448015D01*
X169924820Y-87490000D01*
X169987334Y-87515894D01*
X169987336Y-87515894D01*
X169987341Y-87515896D01*
X170161304Y-87550499D01*
X170161307Y-87550500D01*
X170161309Y-87550500D01*
X170338693Y-87550500D01*
X170338694Y-87550499D01*
X170399552Y-87538394D01*
X170512658Y-87515896D01*
X170512661Y-87515894D01*
X170512666Y-87515894D01*
X170676547Y-87448013D01*
X170824035Y-87349464D01*
X170949464Y-87224035D01*
X171048013Y-87076547D01*
X171048704Y-87074880D01*
X171064322Y-87037174D01*
X171115894Y-86912666D01*
X171123654Y-86873657D01*
X171150499Y-86738695D01*
X171150500Y-86738693D01*
X171150500Y-86561306D01*
X171150499Y-86561304D01*
X171115896Y-86387341D01*
X171115893Y-86387332D01*
X171048016Y-86223459D01*
X171048009Y-86223446D01*
X170949464Y-86075965D01*
X170949461Y-86075961D01*
X170939319Y-86065819D01*
X170927809Y-86044740D01*
X170912654Y-86026106D01*
X170909747Y-86011662D01*
X170905834Y-86004496D01*
X170903771Y-85991948D01*
X170903000Y-85985068D01*
X170903000Y-85965894D01*
X170898077Y-85941148D01*
X170897493Y-85935929D01*
X170902668Y-85906484D01*
X170905332Y-85876719D01*
X170908651Y-85872445D01*
X170909589Y-85867114D01*
X170929858Y-85845145D01*
X170948195Y-85821541D01*
X170955697Y-85817140D01*
X170956258Y-85816533D01*
X170956140Y-85816341D01*
X170956826Y-85815917D01*
X170956969Y-85815763D01*
X170957155Y-85815714D01*
X170962285Y-85812549D01*
X170962287Y-85812549D01*
X171105391Y-85724281D01*
X171114807Y-85714865D01*
X171176129Y-85681378D01*
X171237085Y-85683466D01*
X171261497Y-85690559D01*
X171354791Y-85717664D01*
X171354794Y-85717664D01*
X171354796Y-85717665D01*
X171390819Y-85720500D01*
X171789180Y-85720499D01*
X171825204Y-85717665D01*
X171979393Y-85672869D01*
X172037369Y-85638581D01*
X172105093Y-85621398D01*
X172163612Y-85638581D01*
X172220805Y-85672404D01*
X172360000Y-85712844D01*
X172360000Y-85712843D01*
X172860000Y-85712843D01*
X172999194Y-85672404D01*
X173137285Y-85590738D01*
X173137294Y-85590731D01*
X173250731Y-85477294D01*
X173250738Y-85477285D01*
X173332406Y-85339191D01*
X173332407Y-85339188D01*
X173377166Y-85185128D01*
X173377167Y-85185122D01*
X173379931Y-85150000D01*
X172860000Y-85150000D01*
X172860000Y-85712843D01*
X172360000Y-85712843D01*
X172360000Y-85160408D01*
X172360004Y-85159404D01*
X172360039Y-85155034D01*
X172360500Y-85149181D01*
X172360499Y-84650820D01*
X172360434Y-84650000D01*
X172860000Y-84650000D01*
X173379931Y-84650000D01*
X173377167Y-84614877D01*
X173377166Y-84614871D01*
X173332407Y-84460811D01*
X173332406Y-84460808D01*
X173250738Y-84322714D01*
X173250731Y-84322705D01*
X173137294Y-84209268D01*
X173137291Y-84209266D01*
X173133011Y-84206735D01*
X173085326Y-84155667D01*
X173072819Y-84086926D01*
X173099462Y-84022336D01*
X173133011Y-83993265D01*
X173137291Y-83990733D01*
X173137294Y-83990731D01*
X173250731Y-83877294D01*
X173250738Y-83877285D01*
X173332406Y-83739191D01*
X173332407Y-83739188D01*
X173377166Y-83585128D01*
X173377167Y-83585122D01*
X173379931Y-83550000D01*
X172860000Y-83550000D01*
X172860000Y-84650000D01*
X172360434Y-84650000D01*
X172360382Y-84649332D01*
X172360000Y-84639607D01*
X172360000Y-83560408D01*
X172360004Y-83559404D01*
X172360039Y-83555034D01*
X172360500Y-83549181D01*
X172360499Y-83050820D01*
X172360434Y-83050000D01*
X172360382Y-83049332D01*
X172360000Y-83039607D01*
X172360000Y-82487154D01*
X172860000Y-82487154D01*
X172860000Y-83050000D01*
X173379931Y-83050000D01*
X173377167Y-83014877D01*
X173377166Y-83014871D01*
X173332407Y-82860811D01*
X173332406Y-82860808D01*
X173250738Y-82722714D01*
X173250731Y-82722705D01*
X173137294Y-82609268D01*
X173137285Y-82609261D01*
X172999191Y-82527593D01*
X172999188Y-82527591D01*
X172860001Y-82487153D01*
X172860000Y-82487154D01*
X172360000Y-82487154D01*
X172359998Y-82487153D01*
X172220811Y-82527591D01*
X172220810Y-82527592D01*
X172163611Y-82561419D01*
X172095886Y-82578600D01*
X172037371Y-82561419D01*
X171980174Y-82527593D01*
X171979393Y-82527131D01*
X171979392Y-82527130D01*
X171979391Y-82527130D01*
X171979388Y-82527129D01*
X171825208Y-82482335D01*
X171825202Y-82482334D01*
X171789181Y-82479500D01*
X171390830Y-82479500D01*
X171390808Y-82479501D01*
X171354797Y-82482334D01*
X171237084Y-82516533D01*
X171167215Y-82516333D01*
X171114809Y-82485137D01*
X171105391Y-82475719D01*
X171105387Y-82475716D01*
X170962295Y-82387455D01*
X170962289Y-82387452D01*
X170962287Y-82387451D01*
X170802685Y-82334564D01*
X170802683Y-82334563D01*
X170704181Y-82324500D01*
X170704174Y-82324500D01*
X170170826Y-82324500D01*
X170170818Y-82324500D01*
X170072316Y-82334563D01*
X170072315Y-82334564D01*
X170021909Y-82351267D01*
X169912715Y-82387450D01*
X169912704Y-82387455D01*
X169769612Y-82475716D01*
X169769608Y-82475719D01*
X169737681Y-82507647D01*
X169676358Y-82541132D01*
X169606666Y-82536148D01*
X169562319Y-82507647D01*
X169530391Y-82475719D01*
X169530387Y-82475716D01*
X169387295Y-82387455D01*
X169387289Y-82387452D01*
X169387287Y-82387451D01*
X169227685Y-82334564D01*
X169227683Y-82334563D01*
X169129181Y-82324500D01*
X169129174Y-82324500D01*
X168595826Y-82324500D01*
X168595818Y-82324500D01*
X168497316Y-82334563D01*
X168497315Y-82334564D01*
X168446909Y-82351267D01*
X168337715Y-82387450D01*
X168337704Y-82387455D01*
X168194612Y-82475716D01*
X168194608Y-82475719D01*
X168075720Y-82594607D01*
X168071492Y-82601462D01*
X167987451Y-82737713D01*
X167987449Y-82737716D01*
X167983661Y-82743859D01*
X167982937Y-82743412D01*
X167981762Y-82747526D01*
X167969654Y-82759942D01*
X167958844Y-82774367D01*
X167952672Y-82779793D01*
X167901267Y-82814142D01*
X167814142Y-82901267D01*
X167814139Y-82901270D01*
X167811334Y-82904074D01*
X167811326Y-82904082D01*
X167364144Y-83351264D01*
X167364138Y-83351272D01*
X167329914Y-83402489D01*
X167329915Y-83402490D01*
X167295688Y-83453713D01*
X167295685Y-83453718D01*
X167283786Y-83482449D01*
X167283785Y-83482452D01*
X167248538Y-83567545D01*
X167248535Y-83567555D01*
X167224500Y-83688389D01*
X166300500Y-83688389D01*
X166300500Y-83271806D01*
X166297598Y-83234931D01*
X166251744Y-83077102D01*
X166168081Y-82935635D01*
X166168079Y-82935633D01*
X166168076Y-82935629D01*
X166161819Y-82929372D01*
X166147882Y-82903849D01*
X166131505Y-82879812D01*
X166130186Y-82871441D01*
X166128334Y-82868049D01*
X166125545Y-82845025D01*
X166125500Y-82843351D01*
X166125500Y-82812843D01*
X166480000Y-82812843D01*
X166619194Y-82772404D01*
X166757285Y-82690738D01*
X166757294Y-82690731D01*
X166870731Y-82577294D01*
X166870738Y-82577285D01*
X166952406Y-82439191D01*
X166952407Y-82439188D01*
X166997166Y-82285128D01*
X166997167Y-82285122D01*
X166999931Y-82250000D01*
X166480000Y-82250000D01*
X166480000Y-82812843D01*
X166125500Y-82812843D01*
X166125500Y-82688394D01*
X166122736Y-82674500D01*
X166112990Y-82625500D01*
X166108209Y-82601462D01*
X166108209Y-82601461D01*
X166101464Y-82567554D01*
X166101463Y-82567548D01*
X166084722Y-82527131D01*
X166054312Y-82453714D01*
X166010035Y-82387451D01*
X166000894Y-82373770D01*
X165989064Y-82335981D01*
X165980020Y-82307098D01*
X165980000Y-82304885D01*
X165980000Y-82260408D01*
X165980382Y-82250679D01*
X165980500Y-82249181D01*
X165980499Y-81750820D01*
X165980434Y-81750000D01*
X165980382Y-81749332D01*
X165980000Y-81739607D01*
X165980000Y-81187154D01*
X166480000Y-81187154D01*
X166480000Y-81750000D01*
X166999931Y-81750000D01*
X166997167Y-81714877D01*
X166997166Y-81714871D01*
X166952407Y-81560811D01*
X166952406Y-81560808D01*
X166870738Y-81422714D01*
X166870731Y-81422705D01*
X166757294Y-81309268D01*
X166757285Y-81309261D01*
X166619191Y-81227593D01*
X166619188Y-81227591D01*
X166480001Y-81187153D01*
X166480000Y-81187154D01*
X165980000Y-81187154D01*
X165979998Y-81187153D01*
X165840811Y-81227591D01*
X165840810Y-81227592D01*
X165783611Y-81261419D01*
X165715886Y-81278600D01*
X165657371Y-81261419D01*
X165655565Y-81260351D01*
X165599393Y-81227131D01*
X165599392Y-81227130D01*
X165599391Y-81227130D01*
X165599388Y-81227129D01*
X165445208Y-81182335D01*
X165445202Y-81182334D01*
X165409181Y-81179500D01*
X165010830Y-81179500D01*
X165010808Y-81179501D01*
X164974798Y-81182334D01*
X164819594Y-81227425D01*
X164750406Y-81227425D01*
X164595202Y-81182334D01*
X164559181Y-81179500D01*
X164160830Y-81179500D01*
X164160808Y-81179501D01*
X164124794Y-81182335D01*
X163970611Y-81227129D01*
X163970604Y-81227132D01*
X163913119Y-81261128D01*
X163845395Y-81278309D01*
X163786881Y-81261128D01*
X163729395Y-81227132D01*
X163729388Y-81227129D01*
X163575208Y-81182335D01*
X163575202Y-81182334D01*
X163539181Y-81179500D01*
X163140830Y-81179500D01*
X163140808Y-81179501D01*
X163104794Y-81182335D01*
X162950611Y-81227129D01*
X162950606Y-81227131D01*
X162812404Y-81308863D01*
X162812396Y-81308869D01*
X162783085Y-81338181D01*
X162721762Y-81371666D01*
X162695404Y-81374500D01*
X156417741Y-81374500D01*
X156417721Y-81374499D01*
X156411607Y-81374499D01*
X156288394Y-81374499D01*
X156187597Y-81394548D01*
X156187592Y-81394548D01*
X156167549Y-81398536D01*
X156167547Y-81398536D01*
X156120397Y-81418067D01*
X156053719Y-81445685D01*
X156053717Y-81445686D01*
X155951266Y-81514141D01*
X155951263Y-81514144D01*
X151932966Y-85532443D01*
X150601269Y-86864140D01*
X150601267Y-86864142D01*
X150557704Y-86907704D01*
X150514142Y-86951266D01*
X150488766Y-86989245D01*
X150488765Y-86989246D01*
X150445690Y-87053709D01*
X150445687Y-87053715D01*
X150420657Y-87114141D01*
X150420658Y-87114142D01*
X150403529Y-87155497D01*
X150398539Y-87167542D01*
X150398538Y-87167546D01*
X150398537Y-87167549D01*
X150387302Y-87224038D01*
X150378006Y-87270772D01*
X150378005Y-87270775D01*
X150374500Y-87288393D01*
X150374500Y-94250638D01*
X150354815Y-94317677D01*
X150338181Y-94338319D01*
X150300538Y-94375961D01*
X150300535Y-94375965D01*
X150201990Y-94523446D01*
X150201983Y-94523459D01*
X150134106Y-94687332D01*
X150134103Y-94687341D01*
X150099500Y-94861304D01*
X150099500Y-94861309D01*
X150099500Y-95038691D01*
X150099500Y-95038693D01*
X150099499Y-95038693D01*
X150126874Y-95176308D01*
X150120647Y-95245900D01*
X150077784Y-95301077D01*
X150011895Y-95324322D01*
X150005257Y-95324500D01*
X137957976Y-95324500D01*
X137890937Y-95304815D01*
X137845182Y-95252011D01*
X137833979Y-95201362D01*
X137826082Y-94065362D01*
X137845300Y-93998187D01*
X137897785Y-93952066D01*
X137950079Y-93940500D01*
X138191495Y-93940500D01*
X138282541Y-93922389D01*
X138326828Y-93913580D01*
X138350876Y-93903618D01*
X138354427Y-93902809D01*
X138364226Y-93898089D01*
X138454311Y-93860775D01*
X138486831Y-93839045D01*
X138496101Y-93834582D01*
X138509478Y-93823913D01*
X138569042Y-93784114D01*
X138607070Y-93746085D01*
X138619041Y-93736541D01*
X138628588Y-93724567D01*
X138666614Y-93686542D01*
X138706413Y-93626978D01*
X138717082Y-93613601D01*
X138721545Y-93604331D01*
X138743275Y-93571811D01*
X138780589Y-93481726D01*
X138785309Y-93471927D01*
X138786118Y-93468376D01*
X138796080Y-93444328D01*
X138823000Y-93308993D01*
X138823000Y-93240000D01*
X138823000Y-93239500D01*
X138823000Y-93171007D01*
X138823000Y-93171004D01*
X138796081Y-93035678D01*
X138796080Y-93035674D01*
X138796080Y-93035672D01*
X138786119Y-93011624D01*
X138785309Y-93008073D01*
X138780584Y-92998263D01*
X138743275Y-92908189D01*
X138743275Y-92908188D01*
X138726387Y-92882915D01*
X138726387Y-92882914D01*
X138721546Y-92875670D01*
X138717082Y-92866399D01*
X138706408Y-92853014D01*
X138666614Y-92793458D01*
X138666612Y-92793455D01*
X138666610Y-92793453D01*
X138633521Y-92760365D01*
X138628593Y-92755437D01*
X138619041Y-92743459D01*
X138607062Y-92733906D01*
X138602134Y-92728978D01*
X138569045Y-92695888D01*
X138569044Y-92695887D01*
X138530094Y-92669862D01*
X138509482Y-92656089D01*
X138496101Y-92645418D01*
X138486832Y-92640954D01*
X138479593Y-92636117D01*
X138479587Y-92636114D01*
X138454314Y-92619227D01*
X138454313Y-92619226D01*
X138454311Y-92619225D01*
X138454308Y-92619223D01*
X138454303Y-92619221D01*
X138367457Y-92583249D01*
X138367452Y-92583247D01*
X138364233Y-92581913D01*
X138354427Y-92577191D01*
X138350880Y-92576381D01*
X138341236Y-92572386D01*
X138341227Y-92572384D01*
X138337373Y-92570788D01*
X138326828Y-92566420D01*
X138326824Y-92566419D01*
X138191495Y-92539500D01*
X138191493Y-92539500D01*
X138122707Y-92539500D01*
X133882257Y-92539500D01*
X133862859Y-92537973D01*
X133814799Y-92530361D01*
X133777901Y-92518372D01*
X133743344Y-92500764D01*
X133711959Y-92477961D01*
X133684537Y-92450539D01*
X133661733Y-92419152D01*
X133644127Y-92384598D01*
X133632138Y-92347700D01*
X133630567Y-92337782D01*
X133624526Y-92299635D01*
X133623000Y-92280239D01*
X133623000Y-89885167D01*
X133623472Y-89874356D01*
X133630661Y-89792217D01*
X133636325Y-89727506D01*
X133638558Y-89712564D01*
X133645861Y-89678210D01*
X133647355Y-89671984D01*
X133680480Y-89548360D01*
X133687862Y-89528079D01*
X133752328Y-89389819D01*
X133763130Y-89371109D01*
X133850614Y-89246152D01*
X133864502Y-89229598D01*
X133894593Y-89199500D01*
X133954985Y-89139095D01*
X133959596Y-89134718D01*
X133985730Y-89111182D01*
X133997547Y-89101780D01*
X134116483Y-89018477D01*
X134128568Y-89011008D01*
X139897712Y-85888366D01*
X143422500Y-85888366D01*
X143422500Y-86191633D01*
X143456452Y-86492966D01*
X143456454Y-86492982D01*
X143523934Y-86788633D01*
X143523938Y-86788645D01*
X143624092Y-87074866D01*
X143624098Y-87074880D01*
X143755672Y-87348096D01*
X143917015Y-87604872D01*
X144044371Y-87764573D01*
X144641999Y-87166944D01*
X144755774Y-87166944D01*
X144755774Y-87246508D01*
X144786222Y-87320017D01*
X144842483Y-87376278D01*
X144915992Y-87406726D01*
X144995556Y-87406726D01*
X145069065Y-87376278D01*
X145125326Y-87320017D01*
X145155774Y-87246508D01*
X145155774Y-87166944D01*
X145125326Y-87093435D01*
X145069065Y-87037174D01*
X144995556Y-87006726D01*
X144915992Y-87006726D01*
X144842483Y-87037174D01*
X144786222Y-87093435D01*
X144755774Y-87166944D01*
X144641999Y-87166944D01*
X145186208Y-86622735D01*
X145283467Y-86756602D01*
X145405898Y-86879033D01*
X145539762Y-86976290D01*
X144397925Y-88118127D01*
X144557627Y-88245484D01*
X144814403Y-88406827D01*
X145087619Y-88538401D01*
X145087633Y-88538407D01*
X145373854Y-88638561D01*
X145373866Y-88638565D01*
X145669517Y-88706045D01*
X145669533Y-88706047D01*
X145970866Y-88739999D01*
X145970868Y-88740000D01*
X146274132Y-88740000D01*
X146274133Y-88739999D01*
X146575466Y-88706047D01*
X146575482Y-88706045D01*
X146871133Y-88638565D01*
X146871145Y-88638561D01*
X147157366Y-88538407D01*
X147157380Y-88538401D01*
X147430596Y-88406827D01*
X147687372Y-88245484D01*
X147847073Y-88118126D01*
X146895891Y-87166944D01*
X147089226Y-87166944D01*
X147089226Y-87246508D01*
X147119674Y-87320017D01*
X147175935Y-87376278D01*
X147249444Y-87406726D01*
X147329008Y-87406726D01*
X147402517Y-87376278D01*
X147458778Y-87320017D01*
X147489226Y-87246508D01*
X147489226Y-87166944D01*
X147458778Y-87093435D01*
X147402517Y-87037174D01*
X147329008Y-87006726D01*
X147249444Y-87006726D01*
X147175935Y-87037174D01*
X147119674Y-87093435D01*
X147089226Y-87166944D01*
X146895891Y-87166944D01*
X146705237Y-86976290D01*
X146839102Y-86879033D01*
X146961533Y-86756602D01*
X147058790Y-86622737D01*
X148200626Y-87764573D01*
X148327984Y-87604872D01*
X148489327Y-87348096D01*
X148620901Y-87074880D01*
X148620907Y-87074866D01*
X148721061Y-86788645D01*
X148721065Y-86788633D01*
X148788545Y-86492982D01*
X148788547Y-86492966D01*
X148822499Y-86191633D01*
X148822500Y-86191631D01*
X148822500Y-85888368D01*
X148822499Y-85888366D01*
X148788547Y-85587033D01*
X148788545Y-85587017D01*
X148721065Y-85291366D01*
X148721061Y-85291354D01*
X148620907Y-85005133D01*
X148620901Y-85005119D01*
X148489327Y-84731903D01*
X148327984Y-84475127D01*
X148200627Y-84315425D01*
X147058790Y-85457262D01*
X146961533Y-85323398D01*
X146839102Y-85200967D01*
X146705236Y-85103709D01*
X146975453Y-84833492D01*
X147089226Y-84833492D01*
X147089226Y-84913056D01*
X147119674Y-84986565D01*
X147175935Y-85042826D01*
X147249444Y-85073274D01*
X147329008Y-85073274D01*
X147402517Y-85042826D01*
X147458778Y-84986565D01*
X147489226Y-84913056D01*
X147489226Y-84833492D01*
X147458778Y-84759983D01*
X147402517Y-84703722D01*
X147329008Y-84673274D01*
X147249444Y-84673274D01*
X147175935Y-84703722D01*
X147119674Y-84759983D01*
X147089226Y-84833492D01*
X146975453Y-84833492D01*
X147847073Y-83961871D01*
X147687372Y-83834515D01*
X147430596Y-83673172D01*
X147157380Y-83541598D01*
X147157366Y-83541592D01*
X146871145Y-83441438D01*
X146871133Y-83441434D01*
X146575482Y-83373954D01*
X146575466Y-83373952D01*
X146274133Y-83340000D01*
X145970866Y-83340000D01*
X145669533Y-83373952D01*
X145669517Y-83373954D01*
X145373866Y-83441434D01*
X145373854Y-83441438D01*
X145087633Y-83541592D01*
X145087619Y-83541598D01*
X144814403Y-83673172D01*
X144557627Y-83834515D01*
X144397925Y-83961871D01*
X145539763Y-85103709D01*
X145405898Y-85200967D01*
X145283467Y-85323398D01*
X145186209Y-85457263D01*
X144562438Y-84833492D01*
X144755774Y-84833492D01*
X144755774Y-84913056D01*
X144786222Y-84986565D01*
X144842483Y-85042826D01*
X144915992Y-85073274D01*
X144995556Y-85073274D01*
X145069065Y-85042826D01*
X145125326Y-84986565D01*
X145155774Y-84913056D01*
X145155774Y-84833492D01*
X145125326Y-84759983D01*
X145069065Y-84703722D01*
X144995556Y-84673274D01*
X144915992Y-84673274D01*
X144842483Y-84703722D01*
X144786222Y-84759983D01*
X144755774Y-84833492D01*
X144562438Y-84833492D01*
X144044371Y-84315425D01*
X143917015Y-84475127D01*
X143755672Y-84731903D01*
X143624098Y-85005119D01*
X143624092Y-85005133D01*
X143523938Y-85291354D01*
X143523934Y-85291366D01*
X143456454Y-85587017D01*
X143456452Y-85587033D01*
X143422500Y-85888366D01*
X139897712Y-85888366D01*
X150095010Y-80368915D01*
X150154014Y-80353966D01*
X172694597Y-80350500D01*
X172705385Y-80350971D01*
G37*
%TD.AperFunction*%
%TA.AperFunction,Conductor*%
G36*
X151096587Y-97385185D02*
G01*
X151117229Y-97401819D01*
X158636871Y-104921461D01*
X158670356Y-104982784D01*
X158665372Y-105052476D01*
X158652293Y-105078032D01*
X158553370Y-105226081D01*
X158553364Y-105226092D01*
X158477950Y-105408160D01*
X158477947Y-105408170D01*
X158439500Y-105601456D01*
X158439500Y-105601459D01*
X158439500Y-107298541D01*
X158439500Y-107298543D01*
X158439499Y-107298543D01*
X158477947Y-107491829D01*
X158477949Y-107491835D01*
X158498768Y-107542098D01*
X158503304Y-107553047D01*
X158510773Y-107622517D01*
X158479498Y-107684996D01*
X158419409Y-107720648D01*
X158388743Y-107724500D01*
X157951257Y-107724500D01*
X157884218Y-107704815D01*
X157838463Y-107652011D01*
X157828519Y-107582853D01*
X157836696Y-107553047D01*
X157837159Y-107551930D01*
X157862051Y-107491835D01*
X157880879Y-107397181D01*
X157900500Y-107298543D01*
X157900500Y-105601456D01*
X157862052Y-105408170D01*
X157862051Y-105408169D01*
X157862051Y-105408165D01*
X157832711Y-105337332D01*
X157786635Y-105226092D01*
X157786628Y-105226079D01*
X157677139Y-105062218D01*
X157677136Y-105062214D01*
X157537785Y-104922863D01*
X157537781Y-104922860D01*
X157373920Y-104813371D01*
X157373907Y-104813364D01*
X157191839Y-104737950D01*
X157191829Y-104737947D01*
X156998543Y-104699500D01*
X156998541Y-104699500D01*
X156801459Y-104699500D01*
X156801457Y-104699500D01*
X156608170Y-104737947D01*
X156608160Y-104737950D01*
X156426092Y-104813364D01*
X156426079Y-104813371D01*
X156262218Y-104922860D01*
X156262214Y-104922863D01*
X156122863Y-105062214D01*
X156122860Y-105062218D01*
X156013371Y-105226079D01*
X156013364Y-105226092D01*
X155937950Y-105408160D01*
X155937947Y-105408170D01*
X155899500Y-105601456D01*
X155899500Y-105601459D01*
X155899500Y-107298541D01*
X155899500Y-107298543D01*
X155899499Y-107298543D01*
X155937947Y-107491829D01*
X155937950Y-107491839D01*
X156013364Y-107673907D01*
X156013371Y-107673920D01*
X156122860Y-107837781D01*
X156122863Y-107837785D01*
X156254808Y-107969730D01*
X156262780Y-107983492D01*
X156272823Y-107992570D01*
X156282813Y-108018077D01*
X156286809Y-108024975D01*
X156287918Y-108029069D01*
X156298537Y-108082452D01*
X156306629Y-108101987D01*
X156331308Y-108161569D01*
X156345688Y-108196286D01*
X156345689Y-108196288D01*
X156365821Y-108226415D01*
X156365823Y-108226421D01*
X156365824Y-108226421D01*
X156414138Y-108298728D01*
X156414144Y-108298736D01*
X156505586Y-108390178D01*
X156505608Y-108390198D01*
X156777229Y-108661819D01*
X156810714Y-108723142D01*
X156805730Y-108792834D01*
X156763858Y-108848767D01*
X156698394Y-108873184D01*
X156689548Y-108873500D01*
X154974500Y-108873500D01*
X154907461Y-108853815D01*
X154861706Y-108801011D01*
X154850500Y-108749500D01*
X154850500Y-106135269D01*
X154870185Y-106068230D01*
X154871398Y-106066378D01*
X154898013Y-106026547D01*
X154965894Y-105862666D01*
X154978467Y-105799461D01*
X155000499Y-105688695D01*
X155000500Y-105688693D01*
X155000500Y-105511306D01*
X155000499Y-105511304D01*
X154965896Y-105337341D01*
X154965893Y-105337332D01*
X154898016Y-105173459D01*
X154898009Y-105173446D01*
X154799464Y-105025965D01*
X154799461Y-105025961D01*
X154674038Y-104900538D01*
X154674034Y-104900535D01*
X154526553Y-104801990D01*
X154526540Y-104801983D01*
X154362667Y-104734106D01*
X154362658Y-104734103D01*
X154188694Y-104699500D01*
X154188691Y-104699500D01*
X154011309Y-104699500D01*
X154011306Y-104699500D01*
X153837341Y-104734103D01*
X153837332Y-104734106D01*
X153673459Y-104801983D01*
X153673446Y-104801990D01*
X153525965Y-104900535D01*
X153525961Y-104900538D01*
X153400538Y-105025961D01*
X153400535Y-105025965D01*
X153317602Y-105150082D01*
X153263989Y-105194887D01*
X153194664Y-105203594D01*
X153131637Y-105173439D01*
X153094918Y-105113996D01*
X153090500Y-105081191D01*
X153090500Y-101966079D01*
X153061659Y-101821092D01*
X153061658Y-101821091D01*
X153061658Y-101821087D01*
X153061656Y-101821082D01*
X153005087Y-101684511D01*
X153005080Y-101684498D01*
X152922952Y-101561585D01*
X152922951Y-101561584D01*
X152818416Y-101457049D01*
X152150697Y-100789330D01*
X149918421Y-98557052D01*
X149918414Y-98557046D01*
X149844729Y-98507812D01*
X149844729Y-98507813D01*
X149795491Y-98474913D01*
X149658917Y-98418343D01*
X149658907Y-98418340D01*
X149513920Y-98389500D01*
X149513918Y-98389500D01*
X137979282Y-98389500D01*
X137912243Y-98369815D01*
X137866488Y-98317011D01*
X137855285Y-98266362D01*
X137849891Y-97490362D01*
X137869109Y-97423187D01*
X137921594Y-97377066D01*
X137973888Y-97365500D01*
X151029548Y-97365500D01*
X151096587Y-97385185D01*
G37*
%TD.AperFunction*%
%TD*%
M02*
