M48
; DRILL file {KiCad 9.0.7} date 2026-03-30T09:29:03+0100
; FORMAT={-:-/ absolute / inch / decimal}
; #@! TF.CreationDate,2026-03-30T09:29:03+01:00
; #@! TF.GenerationSoftware,Kicad,Pcbnew,9.0.7
; #@! TF.FileFunction,Plated,1,2,PTH
FMAT,2
INCH
; #@! TA.AperFunction,Plated,PTH,ViaDrill
T1C0.0157
; #@! TA.AperFunction,Plated,PTH,ComponentDrill
T2C0.0157
; #@! TA.AperFunction,Plated,PTH,ComponentDrill
T3C0.0866
%
G90
G05
T1
X5.5068Y-3.6531
X5.5068Y-4.0961
X5.5177Y-3.9606
X5.5295Y-3.8386
X5.8563Y-4.1378
X5.8588Y-3.9995
X5.8602Y-3.7323
X5.9193Y-4.1831
X5.9449Y-3.7382
X5.9508Y-4.4882
X5.9626Y-4.1024
X5.9803Y-3.9055
X6.0098Y-3.4724
X6.0118Y-3.2185
X6.0177Y-4.3494
X6.0433Y-3.7382
X6.0551Y-4.5354
X6.0669Y-4.1575
X6.2244Y-4.3543
X6.2244Y-4.4902
X6.2382Y-3.4409
X6.2382Y-3.4665
X6.2382Y-3.4961
X6.2697Y-4.4356
X6.2697Y-4.4856
X6.2697Y-4.5356
X6.3169Y-3.4409
X6.3169Y-3.4665
X6.3169Y-3.4941
X6.374Y-4.0276
X6.4114Y-4.4094
X6.4213Y-4.1122
X6.4213Y-4.2657
X6.5276Y-4.2835
X6.5748Y-3.4272
X6.6594Y-3.2185
X6.6594Y-3.4114
X6.6772Y-4.2874
X6.7028Y-3.4114
X6.7835Y-3.435
T2
X5.6879Y-3.3874
X5.6879Y-4.3717
X5.7069Y-3.3415
X5.7069Y-3.4333
X5.7069Y-4.3257
X5.7069Y-4.4176
X5.7529Y-3.3224
X5.7529Y-3.4524
X5.7529Y-4.3067
X5.7529Y-4.4366
X5.7988Y-3.3415
X5.7988Y-3.4333
X5.7988Y-4.3257
X5.7988Y-4.4176
X5.8178Y-3.3874
X5.8178Y-4.3717
T3
X5.7529Y-3.3874
X5.7529Y-4.3717
M30
