%TF.GenerationSoftware,KiCad,Pcbnew,9.0.7*%
%TF.CreationDate,2026-03-30T09:29:02+01:00*%
%TF.ProjectId,hexpansion-L80,68657870-616e-4736-996f-6e2d4c38302e,rev?*%
%TF.SameCoordinates,Original*%
%TF.FileFunction,Legend,Top*%
%TF.FilePolarity,Positive*%
%FSLAX46Y46*%
G04 Gerber Fmt 4.6, Leading zero omitted, Abs format (unit mm)*
G04 Created by KiCad (PCBNEW 9.0.7) date 2026-03-30 09:29:02*
%MOMM*%
%LPD*%
G01*
G04 APERTURE LIST*
G04 Aperture macros list*
%AMRoundRect*
0 Rectangle with rounded corners*
0 $1 Rounding radius*
0 $2 $3 $4 $5 $6 $7 $8 $9 X,Y pos of 4 corners*
0 Add a 4 corners polygon primitive as box body*
4,1,4,$2,$3,$4,$5,$6,$7,$8,$9,$2,$3,0*
0 Add four circle primitives for the rounded corners*
1,1,$1+$1,$2,$3*
1,1,$1+$1,$4,$5*
1,1,$1+$1,$6,$7*
1,1,$1+$1,$8,$9*
0 Add four rect primitives between the rounded corners*
20,1,$1+$1,$2,$3,$4,$5,0*
20,1,$1+$1,$4,$5,$6,$7,0*
20,1,$1+$1,$6,$7,$8,$9,0*
20,1,$1+$1,$8,$9,$2,$3,0*%
G04 Aperture macros list end*
%ADD10C,0.150000*%
%ADD11C,0.250000*%
%ADD12C,0.120000*%
%ADD13C,0.200000*%
%ADD14C,0.127000*%
%ADD15RoundRect,0.218750X-0.218750X-0.256250X0.218750X-0.256250X0.218750X0.256250X-0.218750X0.256250X0*%
%ADD16RoundRect,0.135000X0.135000X0.185000X-0.135000X0.185000X-0.135000X-0.185000X0.135000X-0.185000X0*%
%ADD17RoundRect,0.135000X-0.135000X-0.185000X0.135000X-0.185000X0.135000X0.185000X-0.135000X0.185000X0*%
%ADD18RoundRect,0.140000X-0.170000X0.140000X-0.170000X-0.140000X0.170000X-0.140000X0.170000X0.140000X0*%
%ADD19RoundRect,0.102000X0.775000X0.300000X-0.775000X0.300000X-0.775000X-0.300000X0.775000X-0.300000X0*%
%ADD20RoundRect,0.102000X0.800000X0.300000X-0.800000X0.300000X-0.800000X-0.300000X0.800000X-0.300000X0*%
%ADD21O,1.204000X2.704000*%
%ADD22RoundRect,0.150000X-0.150000X0.587500X-0.150000X-0.587500X0.150000X-0.587500X0.150000X0.587500X0*%
%ADD23RoundRect,0.250000X0.250000X-0.275000X0.250000X0.275000X-0.250000X0.275000X-0.250000X-0.275000X0*%
%ADD24RoundRect,0.250000X0.275000X-0.850000X0.275000X0.850000X-0.275000X0.850000X-0.275000X-0.850000X0*%
%ADD25RoundRect,0.150000X1.600000X0.150000X-1.600000X0.150000X-1.600000X-0.150000X1.600000X-0.150000X0*%
%ADD26RoundRect,0.150000X1.200000X0.150000X-1.200000X0.150000X-1.200000X-0.150000X1.200000X-0.150000X0*%
%ADD27C,0.700000*%
%ADD28C,4.400000*%
G04 APERTURE END LIST*
D10*
X166461905Y-85354819D02*
X166461905Y-84354819D01*
X166461905Y-84354819D02*
X166700000Y-84354819D01*
X166700000Y-84354819D02*
X166842857Y-84402438D01*
X166842857Y-84402438D02*
X166938095Y-84497676D01*
X166938095Y-84497676D02*
X166985714Y-84592914D01*
X166985714Y-84592914D02*
X167033333Y-84783390D01*
X167033333Y-84783390D02*
X167033333Y-84926247D01*
X167033333Y-84926247D02*
X166985714Y-85116723D01*
X166985714Y-85116723D02*
X166938095Y-85211961D01*
X166938095Y-85211961D02*
X166842857Y-85307200D01*
X166842857Y-85307200D02*
X166700000Y-85354819D01*
X166700000Y-85354819D02*
X166461905Y-85354819D01*
X167985714Y-85354819D02*
X167414286Y-85354819D01*
X167700000Y-85354819D02*
X167700000Y-84354819D01*
X167700000Y-84354819D02*
X167604762Y-84497676D01*
X167604762Y-84497676D02*
X167509524Y-84592914D01*
X167509524Y-84592914D02*
X167414286Y-84640533D01*
X166461905Y-83754819D02*
X166461905Y-82754819D01*
X166461905Y-82754819D02*
X166700000Y-82754819D01*
X166700000Y-82754819D02*
X166842857Y-82802438D01*
X166842857Y-82802438D02*
X166938095Y-82897676D01*
X166938095Y-82897676D02*
X166985714Y-82992914D01*
X166985714Y-82992914D02*
X167033333Y-83183390D01*
X167033333Y-83183390D02*
X167033333Y-83326247D01*
X167033333Y-83326247D02*
X166985714Y-83516723D01*
X166985714Y-83516723D02*
X166938095Y-83611961D01*
X166938095Y-83611961D02*
X166842857Y-83707200D01*
X166842857Y-83707200D02*
X166700000Y-83754819D01*
X166700000Y-83754819D02*
X166461905Y-83754819D01*
X167414286Y-82850057D02*
X167461905Y-82802438D01*
X167461905Y-82802438D02*
X167557143Y-82754819D01*
X167557143Y-82754819D02*
X167795238Y-82754819D01*
X167795238Y-82754819D02*
X167890476Y-82802438D01*
X167890476Y-82802438D02*
X167938095Y-82850057D01*
X167938095Y-82850057D02*
X167985714Y-82945295D01*
X167985714Y-82945295D02*
X167985714Y-83040533D01*
X167985714Y-83040533D02*
X167938095Y-83183390D01*
X167938095Y-83183390D02*
X167366667Y-83754819D01*
X167366667Y-83754819D02*
X167985714Y-83754819D01*
X171933333Y-86524819D02*
X171600000Y-86048628D01*
X171361905Y-86524819D02*
X171361905Y-85524819D01*
X171361905Y-85524819D02*
X171742857Y-85524819D01*
X171742857Y-85524819D02*
X171838095Y-85572438D01*
X171838095Y-85572438D02*
X171885714Y-85620057D01*
X171885714Y-85620057D02*
X171933333Y-85715295D01*
X171933333Y-85715295D02*
X171933333Y-85858152D01*
X171933333Y-85858152D02*
X171885714Y-85953390D01*
X171885714Y-85953390D02*
X171838095Y-86001009D01*
X171838095Y-86001009D02*
X171742857Y-86048628D01*
X171742857Y-86048628D02*
X171361905Y-86048628D01*
X172266667Y-85524819D02*
X172885714Y-85524819D01*
X172885714Y-85524819D02*
X172552381Y-85905771D01*
X172552381Y-85905771D02*
X172695238Y-85905771D01*
X172695238Y-85905771D02*
X172790476Y-85953390D01*
X172790476Y-85953390D02*
X172838095Y-86001009D01*
X172838095Y-86001009D02*
X172885714Y-86096247D01*
X172885714Y-86096247D02*
X172885714Y-86334342D01*
X172885714Y-86334342D02*
X172838095Y-86429580D01*
X172838095Y-86429580D02*
X172790476Y-86477200D01*
X172790476Y-86477200D02*
X172695238Y-86524819D01*
X172695238Y-86524819D02*
X172409524Y-86524819D01*
X172409524Y-86524819D02*
X172314286Y-86477200D01*
X172314286Y-86477200D02*
X172266667Y-86429580D01*
X150583333Y-111954819D02*
X150250000Y-111478628D01*
X150011905Y-111954819D02*
X150011905Y-110954819D01*
X150011905Y-110954819D02*
X150392857Y-110954819D01*
X150392857Y-110954819D02*
X150488095Y-111002438D01*
X150488095Y-111002438D02*
X150535714Y-111050057D01*
X150535714Y-111050057D02*
X150583333Y-111145295D01*
X150583333Y-111145295D02*
X150583333Y-111288152D01*
X150583333Y-111288152D02*
X150535714Y-111383390D01*
X150535714Y-111383390D02*
X150488095Y-111431009D01*
X150488095Y-111431009D02*
X150392857Y-111478628D01*
X150392857Y-111478628D02*
X150011905Y-111478628D01*
X151440476Y-110954819D02*
X151250000Y-110954819D01*
X151250000Y-110954819D02*
X151154762Y-111002438D01*
X151154762Y-111002438D02*
X151107143Y-111050057D01*
X151107143Y-111050057D02*
X151011905Y-111192914D01*
X151011905Y-111192914D02*
X150964286Y-111383390D01*
X150964286Y-111383390D02*
X150964286Y-111764342D01*
X150964286Y-111764342D02*
X151011905Y-111859580D01*
X151011905Y-111859580D02*
X151059524Y-111907200D01*
X151059524Y-111907200D02*
X151154762Y-111954819D01*
X151154762Y-111954819D02*
X151345238Y-111954819D01*
X151345238Y-111954819D02*
X151440476Y-111907200D01*
X151440476Y-111907200D02*
X151488095Y-111859580D01*
X151488095Y-111859580D02*
X151535714Y-111764342D01*
X151535714Y-111764342D02*
X151535714Y-111526247D01*
X151535714Y-111526247D02*
X151488095Y-111431009D01*
X151488095Y-111431009D02*
X151440476Y-111383390D01*
X151440476Y-111383390D02*
X151345238Y-111335771D01*
X151345238Y-111335771D02*
X151154762Y-111335771D01*
X151154762Y-111335771D02*
X151059524Y-111383390D01*
X151059524Y-111383390D02*
X151011905Y-111431009D01*
X151011905Y-111431009D02*
X150964286Y-111526247D01*
X150583333Y-113204819D02*
X150250000Y-112728628D01*
X150011905Y-113204819D02*
X150011905Y-112204819D01*
X150011905Y-112204819D02*
X150392857Y-112204819D01*
X150392857Y-112204819D02*
X150488095Y-112252438D01*
X150488095Y-112252438D02*
X150535714Y-112300057D01*
X150535714Y-112300057D02*
X150583333Y-112395295D01*
X150583333Y-112395295D02*
X150583333Y-112538152D01*
X150583333Y-112538152D02*
X150535714Y-112633390D01*
X150535714Y-112633390D02*
X150488095Y-112681009D01*
X150488095Y-112681009D02*
X150392857Y-112728628D01*
X150392857Y-112728628D02*
X150011905Y-112728628D01*
X151488095Y-112204819D02*
X151011905Y-112204819D01*
X151011905Y-112204819D02*
X150964286Y-112681009D01*
X150964286Y-112681009D02*
X151011905Y-112633390D01*
X151011905Y-112633390D02*
X151107143Y-112585771D01*
X151107143Y-112585771D02*
X151345238Y-112585771D01*
X151345238Y-112585771D02*
X151440476Y-112633390D01*
X151440476Y-112633390D02*
X151488095Y-112681009D01*
X151488095Y-112681009D02*
X151535714Y-112776247D01*
X151535714Y-112776247D02*
X151535714Y-113014342D01*
X151535714Y-113014342D02*
X151488095Y-113109580D01*
X151488095Y-113109580D02*
X151440476Y-113157200D01*
X151440476Y-113157200D02*
X151345238Y-113204819D01*
X151345238Y-113204819D02*
X151107143Y-113204819D01*
X151107143Y-113204819D02*
X151011905Y-113157200D01*
X151011905Y-113157200D02*
X150964286Y-113109580D01*
X171933333Y-82654819D02*
X171600000Y-82178628D01*
X171361905Y-82654819D02*
X171361905Y-81654819D01*
X171361905Y-81654819D02*
X171742857Y-81654819D01*
X171742857Y-81654819D02*
X171838095Y-81702438D01*
X171838095Y-81702438D02*
X171885714Y-81750057D01*
X171885714Y-81750057D02*
X171933333Y-81845295D01*
X171933333Y-81845295D02*
X171933333Y-81988152D01*
X171933333Y-81988152D02*
X171885714Y-82083390D01*
X171885714Y-82083390D02*
X171838095Y-82131009D01*
X171838095Y-82131009D02*
X171742857Y-82178628D01*
X171742857Y-82178628D02*
X171361905Y-82178628D01*
X172790476Y-81988152D02*
X172790476Y-82654819D01*
X172552381Y-81607200D02*
X172314286Y-82321485D01*
X172314286Y-82321485D02*
X172933333Y-82321485D01*
X161783333Y-82504819D02*
X161450000Y-82028628D01*
X161211905Y-82504819D02*
X161211905Y-81504819D01*
X161211905Y-81504819D02*
X161592857Y-81504819D01*
X161592857Y-81504819D02*
X161688095Y-81552438D01*
X161688095Y-81552438D02*
X161735714Y-81600057D01*
X161735714Y-81600057D02*
X161783333Y-81695295D01*
X161783333Y-81695295D02*
X161783333Y-81838152D01*
X161783333Y-81838152D02*
X161735714Y-81933390D01*
X161735714Y-81933390D02*
X161688095Y-81981009D01*
X161688095Y-81981009D02*
X161592857Y-82028628D01*
X161592857Y-82028628D02*
X161211905Y-82028628D01*
X162164286Y-81600057D02*
X162211905Y-81552438D01*
X162211905Y-81552438D02*
X162307143Y-81504819D01*
X162307143Y-81504819D02*
X162545238Y-81504819D01*
X162545238Y-81504819D02*
X162640476Y-81552438D01*
X162640476Y-81552438D02*
X162688095Y-81600057D01*
X162688095Y-81600057D02*
X162735714Y-81695295D01*
X162735714Y-81695295D02*
X162735714Y-81790533D01*
X162735714Y-81790533D02*
X162688095Y-81933390D01*
X162688095Y-81933390D02*
X162116667Y-82504819D01*
X162116667Y-82504819D02*
X162735714Y-82504819D01*
X167433333Y-82404819D02*
X167100000Y-81928628D01*
X166861905Y-82404819D02*
X166861905Y-81404819D01*
X166861905Y-81404819D02*
X167242857Y-81404819D01*
X167242857Y-81404819D02*
X167338095Y-81452438D01*
X167338095Y-81452438D02*
X167385714Y-81500057D01*
X167385714Y-81500057D02*
X167433333Y-81595295D01*
X167433333Y-81595295D02*
X167433333Y-81738152D01*
X167433333Y-81738152D02*
X167385714Y-81833390D01*
X167385714Y-81833390D02*
X167338095Y-81881009D01*
X167338095Y-81881009D02*
X167242857Y-81928628D01*
X167242857Y-81928628D02*
X166861905Y-81928628D01*
X168385714Y-82404819D02*
X167814286Y-82404819D01*
X168100000Y-82404819D02*
X168100000Y-81404819D01*
X168100000Y-81404819D02*
X168004762Y-81547676D01*
X168004762Y-81547676D02*
X167909524Y-81642914D01*
X167909524Y-81642914D02*
X167814286Y-81690533D01*
X165633333Y-112809580D02*
X165585714Y-112857200D01*
X165585714Y-112857200D02*
X165442857Y-112904819D01*
X165442857Y-112904819D02*
X165347619Y-112904819D01*
X165347619Y-112904819D02*
X165204762Y-112857200D01*
X165204762Y-112857200D02*
X165109524Y-112761961D01*
X165109524Y-112761961D02*
X165061905Y-112666723D01*
X165061905Y-112666723D02*
X165014286Y-112476247D01*
X165014286Y-112476247D02*
X165014286Y-112333390D01*
X165014286Y-112333390D02*
X165061905Y-112142914D01*
X165061905Y-112142914D02*
X165109524Y-112047676D01*
X165109524Y-112047676D02*
X165204762Y-111952438D01*
X165204762Y-111952438D02*
X165347619Y-111904819D01*
X165347619Y-111904819D02*
X165442857Y-111904819D01*
X165442857Y-111904819D02*
X165585714Y-111952438D01*
X165585714Y-111952438D02*
X165633333Y-112000057D01*
X166014286Y-112000057D02*
X166061905Y-111952438D01*
X166061905Y-111952438D02*
X166157143Y-111904819D01*
X166157143Y-111904819D02*
X166395238Y-111904819D01*
X166395238Y-111904819D02*
X166490476Y-111952438D01*
X166490476Y-111952438D02*
X166538095Y-112000057D01*
X166538095Y-112000057D02*
X166585714Y-112095295D01*
X166585714Y-112095295D02*
X166585714Y-112190533D01*
X166585714Y-112190533D02*
X166538095Y-112333390D01*
X166538095Y-112333390D02*
X165966667Y-112904819D01*
X165966667Y-112904819D02*
X166585714Y-112904819D01*
X168333333Y-111109580D02*
X168285714Y-111157200D01*
X168285714Y-111157200D02*
X168142857Y-111204819D01*
X168142857Y-111204819D02*
X168047619Y-111204819D01*
X168047619Y-111204819D02*
X167904762Y-111157200D01*
X167904762Y-111157200D02*
X167809524Y-111061961D01*
X167809524Y-111061961D02*
X167761905Y-110966723D01*
X167761905Y-110966723D02*
X167714286Y-110776247D01*
X167714286Y-110776247D02*
X167714286Y-110633390D01*
X167714286Y-110633390D02*
X167761905Y-110442914D01*
X167761905Y-110442914D02*
X167809524Y-110347676D01*
X167809524Y-110347676D02*
X167904762Y-110252438D01*
X167904762Y-110252438D02*
X168047619Y-110204819D01*
X168047619Y-110204819D02*
X168142857Y-110204819D01*
X168142857Y-110204819D02*
X168285714Y-110252438D01*
X168285714Y-110252438D02*
X168333333Y-110300057D01*
X169285714Y-111204819D02*
X168714286Y-111204819D01*
X169000000Y-111204819D02*
X169000000Y-110204819D01*
X169000000Y-110204819D02*
X168904762Y-110347676D01*
X168904762Y-110347676D02*
X168809524Y-110442914D01*
X168809524Y-110442914D02*
X168714286Y-110490533D01*
X162833333Y-111259580D02*
X162785714Y-111307200D01*
X162785714Y-111307200D02*
X162642857Y-111354819D01*
X162642857Y-111354819D02*
X162547619Y-111354819D01*
X162547619Y-111354819D02*
X162404762Y-111307200D01*
X162404762Y-111307200D02*
X162309524Y-111211961D01*
X162309524Y-111211961D02*
X162261905Y-111116723D01*
X162261905Y-111116723D02*
X162214286Y-110926247D01*
X162214286Y-110926247D02*
X162214286Y-110783390D01*
X162214286Y-110783390D02*
X162261905Y-110592914D01*
X162261905Y-110592914D02*
X162309524Y-110497676D01*
X162309524Y-110497676D02*
X162404762Y-110402438D01*
X162404762Y-110402438D02*
X162547619Y-110354819D01*
X162547619Y-110354819D02*
X162642857Y-110354819D01*
X162642857Y-110354819D02*
X162785714Y-110402438D01*
X162785714Y-110402438D02*
X162833333Y-110450057D01*
X163166667Y-110354819D02*
X163785714Y-110354819D01*
X163785714Y-110354819D02*
X163452381Y-110735771D01*
X163452381Y-110735771D02*
X163595238Y-110735771D01*
X163595238Y-110735771D02*
X163690476Y-110783390D01*
X163690476Y-110783390D02*
X163738095Y-110831009D01*
X163738095Y-110831009D02*
X163785714Y-110926247D01*
X163785714Y-110926247D02*
X163785714Y-111164342D01*
X163785714Y-111164342D02*
X163738095Y-111259580D01*
X163738095Y-111259580D02*
X163690476Y-111307200D01*
X163690476Y-111307200D02*
X163595238Y-111354819D01*
X163595238Y-111354819D02*
X163309524Y-111354819D01*
X163309524Y-111354819D02*
X163214286Y-111307200D01*
X163214286Y-111307200D02*
X163166667Y-111259580D01*
X151636121Y-114753427D02*
X151636121Y-115565048D01*
X151636121Y-115565048D02*
X151683863Y-115660533D01*
X151683863Y-115660533D02*
X151731606Y-115708276D01*
X151731606Y-115708276D02*
X151827090Y-115756018D01*
X151827090Y-115756018D02*
X152018060Y-115756018D01*
X152018060Y-115756018D02*
X152113545Y-115708276D01*
X152113545Y-115708276D02*
X152161287Y-115660533D01*
X152161287Y-115660533D02*
X152209030Y-115565048D01*
X152209030Y-115565048D02*
X152209030Y-114753427D01*
X152638711Y-114848912D02*
X152686454Y-114801169D01*
X152686454Y-114801169D02*
X152781939Y-114753427D01*
X152781939Y-114753427D02*
X153020651Y-114753427D01*
X153020651Y-114753427D02*
X153116136Y-114801169D01*
X153116136Y-114801169D02*
X153163878Y-114848912D01*
X153163878Y-114848912D02*
X153211620Y-114944397D01*
X153211620Y-114944397D02*
X153211620Y-115039882D01*
X153211620Y-115039882D02*
X153163878Y-115183109D01*
X153163878Y-115183109D02*
X152590969Y-115756018D01*
X152590969Y-115756018D02*
X153211620Y-115756018D01*
X153038095Y-86454819D02*
X153038095Y-87264342D01*
X153038095Y-87264342D02*
X153085714Y-87359580D01*
X153085714Y-87359580D02*
X153133333Y-87407200D01*
X153133333Y-87407200D02*
X153228571Y-87454819D01*
X153228571Y-87454819D02*
X153419047Y-87454819D01*
X153419047Y-87454819D02*
X153514285Y-87407200D01*
X153514285Y-87407200D02*
X153561904Y-87359580D01*
X153561904Y-87359580D02*
X153609523Y-87264342D01*
X153609523Y-87264342D02*
X153609523Y-86454819D01*
X154609523Y-87454819D02*
X154038095Y-87454819D01*
X154323809Y-87454819D02*
X154323809Y-86454819D01*
X154323809Y-86454819D02*
X154228571Y-86597676D01*
X154228571Y-86597676D02*
X154133333Y-86692914D01*
X154133333Y-86692914D02*
X154038095Y-86740533D01*
X162854761Y-87062557D02*
X162759523Y-87014938D01*
X162759523Y-87014938D02*
X162664285Y-86919700D01*
X162664285Y-86919700D02*
X162521428Y-86776842D01*
X162521428Y-86776842D02*
X162426190Y-86729223D01*
X162426190Y-86729223D02*
X162330952Y-86729223D01*
X162378571Y-86967319D02*
X162283333Y-86919700D01*
X162283333Y-86919700D02*
X162188095Y-86824461D01*
X162188095Y-86824461D02*
X162140476Y-86633985D01*
X162140476Y-86633985D02*
X162140476Y-86300652D01*
X162140476Y-86300652D02*
X162188095Y-86110176D01*
X162188095Y-86110176D02*
X162283333Y-86014938D01*
X162283333Y-86014938D02*
X162378571Y-85967319D01*
X162378571Y-85967319D02*
X162569047Y-85967319D01*
X162569047Y-85967319D02*
X162664285Y-86014938D01*
X162664285Y-86014938D02*
X162759523Y-86110176D01*
X162759523Y-86110176D02*
X162807142Y-86300652D01*
X162807142Y-86300652D02*
X162807142Y-86633985D01*
X162807142Y-86633985D02*
X162759523Y-86824461D01*
X162759523Y-86824461D02*
X162664285Y-86919700D01*
X162664285Y-86919700D02*
X162569047Y-86967319D01*
X162569047Y-86967319D02*
X162378571Y-86967319D01*
X163759523Y-86967319D02*
X163188095Y-86967319D01*
X163473809Y-86967319D02*
X163473809Y-85967319D01*
X163473809Y-85967319D02*
X163378571Y-86110176D01*
X163378571Y-86110176D02*
X163283333Y-86205414D01*
X163283333Y-86205414D02*
X163188095Y-86253033D01*
X155816666Y-84054819D02*
X155816666Y-84769104D01*
X155816666Y-84769104D02*
X155769047Y-84911961D01*
X155769047Y-84911961D02*
X155673809Y-85007200D01*
X155673809Y-85007200D02*
X155530952Y-85054819D01*
X155530952Y-85054819D02*
X155435714Y-85054819D01*
X156245238Y-84150057D02*
X156292857Y-84102438D01*
X156292857Y-84102438D02*
X156388095Y-84054819D01*
X156388095Y-84054819D02*
X156626190Y-84054819D01*
X156626190Y-84054819D02*
X156721428Y-84102438D01*
X156721428Y-84102438D02*
X156769047Y-84150057D01*
X156769047Y-84150057D02*
X156816666Y-84245295D01*
X156816666Y-84245295D02*
X156816666Y-84340533D01*
X156816666Y-84340533D02*
X156769047Y-84483390D01*
X156769047Y-84483390D02*
X156197619Y-85054819D01*
X156197619Y-85054819D02*
X156816666Y-85054819D01*
D11*
G36*
X137330355Y-98433634D02*
G01*
X137386768Y-98490048D01*
X137412119Y-98540748D01*
X137412119Y-98672207D01*
X137386768Y-98722907D01*
X137330355Y-98779321D01*
X137188396Y-98814811D01*
X136885841Y-98814811D01*
X136743881Y-98779321D01*
X136687470Y-98722910D01*
X136662119Y-98672208D01*
X136662119Y-98540748D01*
X136687470Y-98490046D01*
X136743881Y-98433635D01*
X136885841Y-98398145D01*
X137188396Y-98398145D01*
X137330355Y-98433634D01*
G37*
G36*
X136891645Y-97423495D02*
G01*
X136910577Y-97442428D01*
X136935928Y-97493129D01*
X136935928Y-97719573D01*
X136662119Y-97719573D01*
X136662119Y-97493129D01*
X136687469Y-97442427D01*
X136706402Y-97423495D01*
X136757104Y-97398145D01*
X136840944Y-97398145D01*
X136891645Y-97423495D01*
G37*
G36*
X137787119Y-101380103D02*
G01*
X136239685Y-101380103D01*
X136239685Y-100933008D01*
X136364685Y-100933008D01*
X136365657Y-100939812D01*
X136364685Y-100946616D01*
X136369079Y-100963767D01*
X136371583Y-100981292D01*
X136375084Y-100987205D01*
X136376790Y-100993862D01*
X136389500Y-101014812D01*
X136532357Y-101205288D01*
X136548910Y-101223356D01*
X136590877Y-101248205D01*
X136639161Y-101255103D01*
X136686407Y-101242998D01*
X136725425Y-101213735D01*
X136750274Y-101171768D01*
X136757172Y-101123484D01*
X136745067Y-101076238D01*
X136732357Y-101055288D01*
X136645750Y-100939812D01*
X136732357Y-100824336D01*
X136745067Y-100803386D01*
X136757172Y-100756140D01*
X136750274Y-100707856D01*
X136725425Y-100665889D01*
X136686407Y-100636626D01*
X136639161Y-100624521D01*
X136590877Y-100631419D01*
X136548910Y-100656268D01*
X136532357Y-100674336D01*
X136389500Y-100864812D01*
X136376790Y-100885762D01*
X136375084Y-100892418D01*
X136371583Y-100898332D01*
X136369079Y-100915856D01*
X136364685Y-100933008D01*
X136239685Y-100933008D01*
X136239685Y-99225526D01*
X136412119Y-99225526D01*
X136412119Y-99796954D01*
X136414521Y-99821340D01*
X136433185Y-99866400D01*
X136467673Y-99900888D01*
X136512733Y-99919552D01*
X136561505Y-99919552D01*
X136606565Y-99900888D01*
X136641053Y-99866400D01*
X136659717Y-99821340D01*
X136662119Y-99796954D01*
X136662119Y-99636240D01*
X137537119Y-99636240D01*
X137561505Y-99633838D01*
X137606565Y-99615174D01*
X137641053Y-99580686D01*
X137659717Y-99535626D01*
X137659717Y-99486854D01*
X137641053Y-99441794D01*
X137606565Y-99407306D01*
X137561505Y-99388642D01*
X137537119Y-99386240D01*
X136662119Y-99386240D01*
X136662119Y-99225526D01*
X136659717Y-99201140D01*
X136641053Y-99156080D01*
X136606565Y-99121592D01*
X136561505Y-99102928D01*
X136512733Y-99102928D01*
X136467673Y-99121592D01*
X136433185Y-99156080D01*
X136414521Y-99201140D01*
X136412119Y-99225526D01*
X136239685Y-99225526D01*
X136239685Y-98511240D01*
X136412119Y-98511240D01*
X136412119Y-98701716D01*
X136414521Y-98726102D01*
X136416239Y-98730250D01*
X136416558Y-98734732D01*
X136425316Y-98757618D01*
X136472934Y-98852855D01*
X136479543Y-98863353D01*
X136480805Y-98866400D01*
X136483620Y-98869831D01*
X136485989Y-98873593D01*
X136488483Y-98875756D01*
X136496350Y-98885342D01*
X136591588Y-98980580D01*
X136610530Y-98996125D01*
X136619115Y-98999681D01*
X136626584Y-99005215D01*
X136649659Y-99013460D01*
X136840135Y-99061079D01*
X136844364Y-99061704D01*
X136846066Y-99062409D01*
X136855245Y-99063313D01*
X136864375Y-99064663D01*
X136866197Y-99064391D01*
X136870452Y-99064811D01*
X137203785Y-99064811D01*
X137208039Y-99064391D01*
X137209861Y-99064663D01*
X137218989Y-99063313D01*
X137228171Y-99062409D01*
X137229872Y-99061704D01*
X137234102Y-99061079D01*
X137424578Y-99013460D01*
X137447653Y-99005215D01*
X137455119Y-98999682D01*
X137463707Y-98996126D01*
X137482649Y-98980581D01*
X137577888Y-98885343D01*
X137585757Y-98875754D01*
X137588249Y-98873593D01*
X137590614Y-98869835D01*
X137593433Y-98866401D01*
X137594696Y-98863350D01*
X137601303Y-98852856D01*
X137648922Y-98757618D01*
X137657680Y-98734732D01*
X137657998Y-98730251D01*
X137659717Y-98726102D01*
X137662119Y-98701716D01*
X137662119Y-98511240D01*
X137659717Y-98486854D01*
X137657998Y-98482704D01*
X137657680Y-98478224D01*
X137648922Y-98455338D01*
X137601303Y-98360100D01*
X137594696Y-98349605D01*
X137593433Y-98346555D01*
X137590614Y-98343120D01*
X137588249Y-98339363D01*
X137585757Y-98337201D01*
X137577888Y-98327613D01*
X137482649Y-98232375D01*
X137463707Y-98216830D01*
X137455119Y-98213273D01*
X137447653Y-98207741D01*
X137424578Y-98199496D01*
X137234102Y-98151877D01*
X137229872Y-98151251D01*
X137228171Y-98150547D01*
X137218989Y-98149642D01*
X137209861Y-98148293D01*
X137208039Y-98148564D01*
X137203785Y-98148145D01*
X136870452Y-98148145D01*
X136866197Y-98148564D01*
X136864375Y-98148293D01*
X136855245Y-98149642D01*
X136846066Y-98150547D01*
X136844364Y-98151251D01*
X136840135Y-98151877D01*
X136649659Y-98199496D01*
X136626584Y-98207741D01*
X136619115Y-98213274D01*
X136610530Y-98216831D01*
X136591588Y-98232376D01*
X136496350Y-98327614D01*
X136488483Y-98337199D01*
X136485989Y-98339363D01*
X136483620Y-98343124D01*
X136480805Y-98346556D01*
X136479543Y-98349602D01*
X136472934Y-98360101D01*
X136425316Y-98455338D01*
X136416558Y-98478224D01*
X136416239Y-98482705D01*
X136414521Y-98486854D01*
X136412119Y-98511240D01*
X136239685Y-98511240D01*
X136239685Y-97463621D01*
X136412119Y-97463621D01*
X136412119Y-97844573D01*
X136414521Y-97868959D01*
X136433185Y-97914019D01*
X136467673Y-97948507D01*
X136512733Y-97967171D01*
X136537119Y-97969573D01*
X137537119Y-97969573D01*
X137561505Y-97967171D01*
X137606565Y-97948507D01*
X137641053Y-97914019D01*
X137659717Y-97868959D01*
X137659717Y-97820187D01*
X137641053Y-97775127D01*
X137606565Y-97740639D01*
X137561505Y-97721975D01*
X137537119Y-97719573D01*
X137185928Y-97719573D01*
X137185928Y-97463621D01*
X137183526Y-97439235D01*
X137181807Y-97435085D01*
X137181489Y-97430605D01*
X137172731Y-97407719D01*
X137125112Y-97312481D01*
X137118505Y-97301986D01*
X137117242Y-97298936D01*
X137114423Y-97295501D01*
X137112058Y-97291744D01*
X137109566Y-97289582D01*
X137101697Y-97279994D01*
X137054078Y-97232376D01*
X137044492Y-97224509D01*
X137042329Y-97222015D01*
X137038567Y-97219646D01*
X137035136Y-97216831D01*
X137032089Y-97215569D01*
X137021591Y-97208960D01*
X136926354Y-97161342D01*
X136903468Y-97152584D01*
X136898986Y-97152265D01*
X136894838Y-97150547D01*
X136870452Y-97148145D01*
X136727595Y-97148145D01*
X136703209Y-97150547D01*
X136699059Y-97152265D01*
X136694579Y-97152584D01*
X136671693Y-97161342D01*
X136576455Y-97208961D01*
X136565960Y-97215567D01*
X136562910Y-97216831D01*
X136559475Y-97219649D01*
X136555718Y-97222015D01*
X136553556Y-97224506D01*
X136543968Y-97232376D01*
X136496350Y-97279995D01*
X136488483Y-97289580D01*
X136485989Y-97291744D01*
X136483620Y-97295505D01*
X136480805Y-97298937D01*
X136479543Y-97301983D01*
X136472934Y-97312482D01*
X136425316Y-97407719D01*
X136416558Y-97430605D01*
X136416239Y-97435086D01*
X136414521Y-97439235D01*
X136412119Y-97463621D01*
X136239685Y-97463621D01*
X136239685Y-96028245D01*
X136364685Y-96028245D01*
X136365657Y-96035049D01*
X136364685Y-96041853D01*
X136369079Y-96059004D01*
X136371583Y-96076529D01*
X136375084Y-96082442D01*
X136376790Y-96089099D01*
X136389500Y-96110049D01*
X136532357Y-96300525D01*
X136548910Y-96318593D01*
X136590877Y-96343442D01*
X136639161Y-96350340D01*
X136686407Y-96338235D01*
X136725425Y-96308972D01*
X136750274Y-96267005D01*
X136757172Y-96218721D01*
X136745067Y-96171475D01*
X136732357Y-96150525D01*
X136645750Y-96035049D01*
X136732357Y-95919573D01*
X136745067Y-95898623D01*
X136757172Y-95851377D01*
X136750274Y-95803093D01*
X136725425Y-95761126D01*
X136686407Y-95731863D01*
X136639161Y-95719758D01*
X136590877Y-95726656D01*
X136548910Y-95751505D01*
X136532357Y-95769573D01*
X136389500Y-95960049D01*
X136376790Y-95980999D01*
X136375084Y-95987655D01*
X136371583Y-95993569D01*
X136369079Y-96011093D01*
X136364685Y-96028245D01*
X136239685Y-96028245D01*
X136239685Y-95594758D01*
X137787119Y-95594758D01*
X137787119Y-101380103D01*
G37*
D12*
%TO.C,D1*%
X168165000Y-84165000D02*
X168165000Y-85635000D01*
X168165000Y-85635000D02*
X170450000Y-85635000D01*
X170450000Y-84165000D02*
X168165000Y-84165000D01*
%TO.C,D2*%
X168165000Y-82565000D02*
X168165000Y-84035000D01*
X168165000Y-84035000D02*
X170450000Y-84035000D01*
X170450000Y-82565000D02*
X168165000Y-82565000D01*
%TO.C,R3*%
X172253641Y-85280000D02*
X171946359Y-85280000D01*
X172253641Y-84520000D02*
X171946359Y-84520000D01*
%TO.C,R6*%
X152506359Y-111020000D02*
X152813641Y-111020000D01*
X152506359Y-111780000D02*
X152813641Y-111780000D01*
%TO.C,R5*%
X152496359Y-112270000D02*
X152803641Y-112270000D01*
X152496359Y-113030000D02*
X152803641Y-113030000D01*
%TO.C,R4*%
X172253641Y-83680000D02*
X171946359Y-83680000D01*
X172253641Y-82920000D02*
X171946359Y-82920000D01*
%TO.C,R2*%
X163696359Y-81620000D02*
X164003641Y-81620000D01*
X163696359Y-82380000D02*
X164003641Y-82380000D01*
%TO.C,R1*%
X165566359Y-81620000D02*
X165873641Y-81620000D01*
X165566359Y-82380000D02*
X165873641Y-82380000D01*
%TO.C,C2*%
X166210000Y-110692164D02*
X166210000Y-110907836D01*
X165490000Y-110692164D02*
X165490000Y-110907836D01*
%TO.C,C1*%
X166690000Y-110642164D02*
X166690000Y-110857836D01*
X167410000Y-110642164D02*
X167410000Y-110857836D01*
%TO.C,C3*%
X164910000Y-110692164D02*
X164910000Y-110907836D01*
X164190000Y-110692164D02*
X164190000Y-110907836D01*
D13*
%TO.C,U2*%
X159850000Y-115750000D02*
X155950000Y-115750000D01*
X159850000Y-110850000D02*
X155950000Y-110850000D01*
D14*
X161463500Y-115800000D02*
G75*
G02*
X161336500Y-115800000I-63500J0D01*
G01*
X161336500Y-115800000D02*
G75*
G02*
X161463500Y-115800000I63500J0D01*
G01*
%TO.C,U1*%
X154750000Y-106700000D02*
X154750000Y-90700000D01*
X170750000Y-90700000D02*
X170750000Y-106700000D01*
X154750000Y-106700000D02*
X155850000Y-106700000D01*
X154750000Y-90700000D02*
X155850000Y-90700000D01*
X170750000Y-90700000D02*
X170650000Y-90700000D01*
X170750000Y-106700000D02*
X170650000Y-106700000D01*
D13*
X155850000Y-108100000D02*
G75*
G02*
X155650000Y-108100000I-100000J0D01*
G01*
X155650000Y-108100000D02*
G75*
G02*
X155850000Y-108100000I100000J0D01*
G01*
D12*
%TO.C,Q1*%
X166110000Y-84102500D02*
X166110000Y-85622500D01*
X166060000Y-84102500D02*
X166110000Y-84102500D01*
X164160000Y-84102500D02*
X164940000Y-84102500D01*
X162990000Y-84102500D02*
X163040000Y-84102500D01*
X166110000Y-85622500D02*
X165110000Y-85622500D01*
X163990000Y-85622500D02*
X162990000Y-85622500D01*
X162990000Y-85622500D02*
X162990000Y-84102500D01*
X164930000Y-83562500D02*
X164600000Y-83802500D01*
X164600000Y-83322500D01*
X164930000Y-83562500D01*
G36*
X164930000Y-83562500D02*
G01*
X164600000Y-83802500D01*
X164600000Y-83322500D01*
X164930000Y-83562500D01*
G37*
%TO.C,J2*%
X158050000Y-85965000D02*
X158690000Y-85965000D01*
X158690000Y-85965000D02*
X158690000Y-86595000D01*
X160850000Y-85965000D02*
X160210000Y-85965000D01*
X158100000Y-83245000D02*
X160800000Y-83245000D01*
%TD*%
%LPC*%
%TO.C,J2*%
G36*
X158510000Y-85595000D02*
G01*
X160390000Y-85595000D01*
X160390000Y-83505000D01*
X158510000Y-83505000D01*
X158510000Y-85595000D01*
G37*
%TD*%
D15*
%TO.C,D1*%
X168862500Y-84900000D03*
X170437500Y-84900000D03*
%TD*%
%TO.C,D2*%
X168862500Y-83300000D03*
X170437500Y-83300000D03*
%TD*%
D16*
%TO.C,R3*%
X172610000Y-84900000D03*
X171590000Y-84900000D03*
%TD*%
D17*
%TO.C,R6*%
X152150000Y-111400000D03*
X153170000Y-111400000D03*
%TD*%
%TO.C,R5*%
X152140000Y-112650000D03*
X153160000Y-112650000D03*
%TD*%
D16*
%TO.C,R4*%
X172610000Y-83300000D03*
X171590000Y-83300000D03*
%TD*%
D17*
%TO.C,R2*%
X163340000Y-82000000D03*
X164360000Y-82000000D03*
%TD*%
%TO.C,R1*%
X165210000Y-82000000D03*
X166230000Y-82000000D03*
%TD*%
D18*
%TO.C,C2*%
X165850000Y-110320000D03*
X165850000Y-111280000D03*
%TD*%
%TO.C,C1*%
X167050000Y-111230000D03*
X167050000Y-110270000D03*
%TD*%
%TO.C,C3*%
X164550000Y-110320000D03*
X164550000Y-111280000D03*
%TD*%
D19*
%TO.C,U2*%
X160600000Y-113935000D03*
X155200000Y-113935000D03*
D20*
X160600000Y-115205000D03*
D19*
X160600000Y-112665000D03*
X160600000Y-111395000D03*
X155200000Y-115205000D03*
X155200000Y-112665000D03*
X155200000Y-111395000D03*
%TD*%
D21*
%TO.C,U1*%
X161980000Y-106450000D03*
X161980000Y-90950000D03*
X164520000Y-106450000D03*
X159440000Y-106450000D03*
X156900000Y-106450000D03*
X167060000Y-106450000D03*
X169600000Y-106450000D03*
X159440000Y-90950000D03*
X156900000Y-90950000D03*
X164520000Y-90950000D03*
X167060000Y-90950000D03*
X169600000Y-90950000D03*
%TD*%
D22*
%TO.C,Q1*%
X165500000Y-83925000D03*
X163600000Y-83925000D03*
X164550000Y-85800000D03*
%TD*%
D23*
%TO.C,J2*%
X159450000Y-86130000D03*
D24*
X157975000Y-84605000D03*
X160925000Y-84605000D03*
%TD*%
D25*
%TO.C,J1*%
X134122500Y-95140000D03*
D26*
X134522500Y-95940000D03*
X134522500Y-96740000D03*
D25*
X134122500Y-97540000D03*
D26*
X134522500Y-98340000D03*
X134522500Y-99140000D03*
D25*
X134122500Y-99940000D03*
D26*
X134522500Y-100740000D03*
X134522500Y-101540000D03*
D25*
X134122500Y-102340000D03*
%TD*%
D27*
%TO.C,H2*%
X144472500Y-86040000D03*
X144955774Y-84873274D03*
X144955774Y-87206726D03*
X146122500Y-84390000D03*
D28*
X146122500Y-86040000D03*
D27*
X146122500Y-87690000D03*
X147289226Y-84873274D03*
X147289226Y-87206726D03*
X147772500Y-86040000D03*
%TD*%
%TO.C,H1*%
X144472500Y-111040000D03*
X144955774Y-109873274D03*
X144955774Y-112206726D03*
X146122500Y-109390000D03*
D28*
X146122500Y-111040000D03*
D27*
X146122500Y-112690000D03*
X147289226Y-109873274D03*
X147289226Y-112206726D03*
X147772500Y-111040000D03*
%TD*%
%LPD*%
M02*
